<mxfile host="app.diagrams.net" agent="Mozilla/5.0 (Windows NT 10.0; Win64; x64) AppleWebKit/537.36 (KHTML, like Gecko) Chrome/137.0.0.0 Safari/537.36" version="27.1.4">
  <diagram name="Page-1" id="6fcJlKqYZbVJpShiuInz">
    <mxGraphModel dx="2742" dy="3410" grid="1" gridSize="10" guides="1" tooltips="1" connect="1" arrows="1" fold="1" page="1" pageScale="1" pageWidth="850" pageHeight="1100" math="0" shadow="0">
      <root>
        <mxCell id="0" />
        <mxCell id="1" parent="0" />
        <UserObject label="" plantUmlData="{&#xa;  &quot;data&quot;: &quot;@startuml\nactor Siswa\n\nboundary UI_Login\ncontrol LoginController\nentity UserDatabase\n\nSiswa -&gt; UI_Login : Masukkan username &amp; password\nUI_Login -&gt; LoginController : Kirim data login (username, password)\nLoginController -&gt; UserDatabase : Validasi kredensial\nUserDatabase --&gt; LoginController : Status validasi (valid/tidak valid)\n\nalt Kredensial valid\n    LoginController -&gt; UI_Login : Akses sistem (login berhasil)\nelse Kredensial tidak valid\n    LoginController -&gt; UI_Login : Tampilkan pesan gagal\nend\n\n@enduml\n&quot;,&#xa;  &quot;format&quot;: &quot;svg&quot;&#xa;}" id="f9MgHtHTdjxqu1ZTsrYx-1">
          <mxCell style="shape=image;noLabel=1;verticalAlign=top;aspect=fixed;imageAspect=0;image=data:image/svg+xml,PHN2ZyB4bWxucz0iaHR0cDovL3d3dy53My5vcmcvMjAwMC9zdmciIHhtbG5zOnhsaW5rPSJodHRwOi8vd3d3LnczLm9yZy8xOTk5L3hsaW5rIiBjb250ZW50U3R5bGVUeXBlPSJ0ZXh0L2NzcyIgZGF0YS1kaWFncmFtLXR5cGU9IlNFUVVFTkNFIiBoZWlnaHQ9IjM5MHB4IiBwcmVzZXJ2ZUFzcGVjdFJhdGlvPSJub25lIiBzdHlsZT0id2lkdGg6NzkzcHg7aGVpZ2h0OjM5MHB4O2JhY2tncm91bmQ6I0ZGRkZGRjsiIHZlcnNpb249IjEuMSIgdmlld0JveD0iMCAwIDc5MyAzOTAiIHdpZHRoPSI3OTNweCIgem9vbUFuZFBhbj0ibWFnbmlmeSI+PGRlZnMvPjxnPjxyZWN0IGZpbGw9Im5vbmUiIGhlaWdodD0iODUuNTE1NiIgc3R5bGU9InN0cm9rZTojMDAwMDAwO3N0cm9rZS13aWR0aDoxLjU7IiB3aWR0aD0iMzcxIiB4PSIxOTAuNSIgeT0iMjA4LjY0MDYiLz48Zz48dGl0bGU+U2lzd2E8L3RpdGxlPjxyZWN0IGZpbGw9IiMwMDAwMDAiIGZpbGwtb3BhY2l0eT0iMC4wMDAwMCIgaGVpZ2h0PSIyMzEuMTcxOSIgd2lkdGg9IjgiIHg9IjIxLjUiIHk9Ijc5Ljk4NDQiLz48bGluZSBzdHlsZT0ic3Ryb2tlOiMxODE4MTg7c3Ryb2tlLXdpZHRoOjAuNTtzdHJva2UtZGFzaGFycmF5OjUuMCw1LjA7IiB4MT0iMjUiIHgyPSIyNSIgeTE9Ijc5Ljk4NDQiIHkyPSIzMTEuMTU2MyIvPjwvZz48Zz48dGl0bGU+VUlfTG9naW48L3RpdGxlPjxyZWN0IGZpbGw9IiMwMDAwMDAiIGZpbGwtb3BhY2l0eT0iMC4wMDAwMCIgaGVpZ2h0PSIyMzEuMTcxOSIgd2lkdGg9IjgiIHg9IjIyNy41IiB5PSI3OS45ODQ0Ii8+PGxpbmUgc3R5bGU9InN0cm9rZTojMTgxODE4O3N0cm9rZS13aWR0aDowLjU7c3Ryb2tlLWRhc2hhcnJheTo1LjAsNS4wOyIgeDE9IjIzMS41IiB4Mj0iMjMxLjUiIHkxPSI3OS45ODQ0IiB5Mj0iMzExLjE1NjMiLz48L2c+PGc+PHRpdGxlPkxvZ2luQ29udHJvbGxlcjwvdGl0bGU+PHJlY3QgZmlsbD0iIzAwMDAwMCIgZmlsbC1vcGFjaXR5PSIwLjAwMDAwIiBoZWlnaHQ9IjIzMS4xNzE5IiB3aWR0aD0iOCIgeD0iNDkyIiB5PSI3OS45ODQ0Ii8+PGxpbmUgc3R5bGU9InN0cm9rZTojMTgxODE4O3N0cm9rZS13aWR0aDowLjU7c3Ryb2tlLWRhc2hhcnJheTo1LjAsNS4wOyIgeDE9IjQ5NS41IiB4Mj0iNDk1LjUiIHkxPSI3OS45ODQ0IiB5Mj0iMzExLjE1NjMiLz48L2c+PGc+PHRpdGxlPlVzZXJEYXRhYmFzZTwvdGl0bGU+PHJlY3QgZmlsbD0iIzAwMDAwMCIgZmlsbC1vcGFjaXR5PSIwLjAwMDAwIiBoZWlnaHQ9IjIzMS4xNzE5IiB3aWR0aD0iOCIgeD0iNzQzLjUiIHk9Ijc5Ljk4NDQiLz48bGluZSBzdHlsZT0ic3Ryb2tlOiMxODE4MTg7c3Ryb2tlLXdpZHRoOjAuNTtzdHJva2UtZGFzaGFycmF5OjUuMCw1LjA7IiB4MT0iNzQ3LjUiIHgyPSI3NDcuNSIgeTE9Ijc5Ljk4NDQiIHkyPSIzMTEuMTU2MyIvPjwvZz48ZyBjbGFzcz0icGFydGljaXBhbnQgcGFydGljaXBhbnQtaGVhZCIgZGF0YS1wYXJ0aWNpcGFudD0iU2lzd2EiPjx0ZXh0IGZpbGw9IiMwMDAwMDAiIGZvbnQtZmFtaWx5PSJzYW5zLXNlcmlmIiBmb250LXNpemU9IjE0IiBsZW5ndGhBZGp1c3Q9InNwYWNpbmciIHRleHRMZW5ndGg9IjM1IiB4PSI1IiB5PSI3OC4yMzQ0Ij5TaXN3YTwvdGV4dD48ZWxsaXBzZSBjeD0iMjUuNSIgY3k9IjEzLjUiIGZpbGw9IiNFMkUyRjAiIHJ4PSI4IiByeT0iOCIgc3R5bGU9InN0cm9rZTojMTgxODE4O3N0cm9rZS13aWR0aDowLjU7Ii8+PHBhdGggZD0iTTI1LjUsMjEuNSBMMjUuNSw0OC41IE0xMi41LDI5LjUgTDM4LjUsMjkuNSBNMjUuNSw0OC41IEwxMi41LDYzLjUgTTI1LjUsNDguNSBMMzguNSw2My41IiBmaWxsPSJub25lIiBzdHlsZT0ic3Ryb2tlOiMxODE4MTg7c3Ryb2tlLXdpZHRoOjAuNTsiLz48L2c+PGcgY2xhc3M9InBhcnRpY2lwYW50IHBhcnRpY2lwYW50LXRhaWwiIGRhdGEtcGFydGljaXBhbnQ9IlNpc3dhIj48dGV4dCBmaWxsPSIjMDAwMDAwIiBmb250LWZhbWlseT0ic2Fucy1zZXJpZiIgZm9udC1zaXplPSIxNCIgbGVuZ3RoQWRqdXN0PSJzcGFjaW5nIiB0ZXh0TGVuZ3RoPSIzNSIgeD0iNSIgeT0iMzIzLjM5MDYiPlNpc3dhPC90ZXh0PjxlbGxpcHNlIGN4PSIyNS41IiBjeT0iMzMzLjY0MDYiIGZpbGw9IiNFMkUyRjAiIHJ4PSI4IiByeT0iOCIgc3R5bGU9InN0cm9rZTojMTgxODE4O3N0cm9rZS13aWR0aDowLjU7Ii8+PHBhdGggZD0iTTI1LjUsMzQxLjY0MDYgTDI1LjUsMzY4LjY0MDYgTTEyLjUsMzQ5LjY0MDYgTDM4LjUsMzQ5LjY0MDYgTTI1LjUsMzY4LjY0MDYgTDEyLjUsMzgzLjY0MDYgTTI1LjUsMzY4LjY0MDYgTDM4LjUsMzgzLjY0MDYiIGZpbGw9Im5vbmUiIHN0eWxlPSJzdHJva2U6IzE4MTgxODtzdHJva2Utd2lkdGg6MC41OyIvPjwvZz48ZyBjbGFzcz0icGFydGljaXBhbnQgcGFydGljaXBhbnQtaGVhZCIgZGF0YS1wYXJ0aWNpcGFudD0iVUlfTG9naW4iPjx0ZXh0IGZpbGw9IiMwMDAwMDAiIGZvbnQtZmFtaWx5PSJzYW5zLXNlcmlmIiBmb250LXNpemU9IjE0IiBsZW5ndGhBZGp1c3Q9InNwYWNpbmciIHRleHRMZW5ndGg9IjU2IiB4PSIyMDAuNSIgeT0iNzguMjM0NCI+VUlfTG9naW48L3RleHQ+PHBhdGggZD0iTTIxMSwzNyBMMjExLDYxIE0yMTEsNDkgTDIyOCw0OSIgZmlsbD0ibm9uZSIgc3R5bGU9InN0cm9rZTojMTgxODE4O3N0cm9rZS13aWR0aDowLjU7Ii8+PGVsbGlwc2UgY3g9IjI0MCIgY3k9IjQ5IiBmaWxsPSIjRTJFMkYwIiByeD0iMTIiIHJ5PSIxMiIgc3R5bGU9InN0cm9rZTojMTgxODE4O3N0cm9rZS13aWR0aDowLjU7Ii8+PC9nPjxnIGNsYXNzPSJwYXJ0aWNpcGFudCBwYXJ0aWNpcGFudC10YWlsIiBkYXRhLXBhcnRpY2lwYW50PSJVSV9Mb2dpbiI+PHRleHQgZmlsbD0iIzAwMDAwMCIgZm9udC1mYW1pbHk9InNhbnMtc2VyaWYiIGZvbnQtc2l6ZT0iMTQiIGxlbmd0aEFkanVzdD0ic3BhY2luZyIgdGV4dExlbmd0aD0iNTYiIHg9IjIwMC41IiB5PSIzMjMuMzkwNiI+VUlfTG9naW48L3RleHQ+PHBhdGggZD0iTTIxMSwzMjkuMTQwNiBMMjExLDM1My4xNDA2IE0yMTEsMzQxLjE0MDYgTDIyOCwzNDEuMTQwNiIgZmlsbD0ibm9uZSIgc3R5bGU9InN0cm9rZTojMTgxODE4O3N0cm9rZS13aWR0aDowLjU7Ii8+PGVsbGlwc2UgY3g9IjI0MCIgY3k9IjM0MS4xNDA2IiBmaWxsPSIjRTJFMkYwIiByeD0iMTIiIHJ5PSIxMiIgc3R5bGU9InN0cm9rZTojMTgxODE4O3N0cm9rZS13aWR0aDowLjU7Ii8+PC9nPjxnIGNsYXNzPSJwYXJ0aWNpcGFudCBwYXJ0aWNpcGFudC1oZWFkIiBkYXRhLXBhcnRpY2lwYW50PSJMb2dpbkNvbnRyb2xsZXIiPjx0ZXh0IGZpbGw9IiMwMDAwMDAiIGZvbnQtZmFtaWx5PSJzYW5zLXNlcmlmIiBmb250LXNpemU9IjE0IiBsZW5ndGhBZGp1c3Q9InNwYWNpbmciIHRleHRMZW5ndGg9IjEwNSIgeD0iNDQwLjUiIHk9Ijc4LjIzNDQiPkxvZ2luQ29udHJvbGxlcjwvdGV4dD48ZWxsaXBzZSBjeD0iNDk2IiBjeT0iNDkiIGZpbGw9IiNFMkUyRjAiIHJ4PSIxMiIgcnk9IjEyIiBzdHlsZT0ic3Ryb2tlOiMxODE4MTg7c3Ryb2tlLXdpZHRoOjAuNTsiLz48cG9seWdvbiBmaWxsPSIjMTgxODE4IiBwb2ludHM9IjQ5MiwzNyw0OTgsMzIsNDk2LDM3LDQ5OCw0Miw0OTIsMzciIHN0eWxlPSJzdHJva2U6IzE4MTgxODtzdHJva2Utd2lkdGg6MTsiLz48L2c+PGcgY2xhc3M9InBhcnRpY2lwYW50IHBhcnRpY2lwYW50LXRhaWwiIGRhdGEtcGFydGljaXBhbnQ9IkxvZ2luQ29udHJvbGxlciI+PHRleHQgZmlsbD0iIzAwMDAwMCIgZm9udC1mYW1pbHk9InNhbnMtc2VyaWYiIGZvbnQtc2l6ZT0iMTQiIGxlbmd0aEFkanVzdD0ic3BhY2luZyIgdGV4dExlbmd0aD0iMTA1IiB4PSI0NDAuNSIgeT0iMzIzLjM5MDYiPkxvZ2luQ29udHJvbGxlcjwvdGV4dD48ZWxsaXBzZSBjeD0iNDk2IiBjeT0iMzQxLjE0MDYiIGZpbGw9IiNFMkUyRjAiIHJ4PSIxMiIgcnk9IjEyIiBzdHlsZT0ic3Ryb2tlOiMxODE4MTg7c3Ryb2tlLXdpZHRoOjAuNTsiLz48cG9seWdvbiBmaWxsPSIjMTgxODE4IiBwb2ludHM9IjQ5MiwzMjkuMTQwNiw0OTgsMzI0LjE0MDYsNDk2LDMyOS4xNDA2LDQ5OCwzMzQuMTQwNiw0OTIsMzI5LjE0MDYiIHN0eWxlPSJzdHJva2U6IzE4MTgxODtzdHJva2Utd2lkdGg6MTsiLz48L2c+PGcgY2xhc3M9InBhcnRpY2lwYW50IHBhcnRpY2lwYW50LWhlYWQiIGRhdGEtcGFydGljaXBhbnQ9IlVzZXJEYXRhYmFzZSI+PHRleHQgZmlsbD0iIzAwMDAwMCIgZm9udC1mYW1pbHk9InNhbnMtc2VyaWYiIGZvbnQtc2l6ZT0iMTQiIGxlbmd0aEFkanVzdD0ic3BhY2luZyIgdGV4dExlbmd0aD0iODQiIHg9IjcwMi41IiB5PSI3OC4yMzQ0Ij5Vc2VyRGF0YWJhc2U8L3RleHQ+PGVsbGlwc2UgY3g9Ijc0Ny41IiBjeT0iNDkiIGZpbGw9IiNFMkUyRjAiIHJ4PSIxMiIgcnk9IjEyIiBzdHlsZT0ic3Ryb2tlOiMxODE4MTg7c3Ryb2tlLXdpZHRoOjAuNTsiLz48bGluZSBzdHlsZT0ic3Ryb2tlOiMxODE4MTg7c3Ryb2tlLXdpZHRoOjAuNTsiIHgxPSI3MzUuNSIgeDI9Ijc1OS41IiB5MT0iNjMiIHkyPSI2MyIvPjwvZz48ZyBjbGFzcz0icGFydGljaXBhbnQgcGFydGljaXBhbnQtdGFpbCIgZGF0YS1wYXJ0aWNpcGFudD0iVXNlckRhdGFiYXNlIj48dGV4dCBmaWxsPSIjMDAwMDAwIiBmb250LWZhbWlseT0ic2Fucy1zZXJpZiIgZm9udC1zaXplPSIxNCIgbGVuZ3RoQWRqdXN0PSJzcGFjaW5nIiB0ZXh0TGVuZ3RoPSI4NCIgeD0iNzAyLjUiIHk9IjMyMy4zOTA2Ij5Vc2VyRGF0YWJhc2U8L3RleHQ+PGVsbGlwc2UgY3g9Ijc0Ny41IiBjeT0iMzQxLjE0MDYiIGZpbGw9IiNFMkUyRjAiIHJ4PSIxMiIgcnk9IjEyIiBzdHlsZT0ic3Ryb2tlOiMxODE4MTg7c3Ryb2tlLXdpZHRoOjAuNTsiLz48bGluZSBzdHlsZT0ic3Ryb2tlOiMxODE4MTg7c3Ryb2tlLXdpZHRoOjAuNTsiIHgxPSI3MzUuNSIgeDI9Ijc1OS41IiB5MT0iMzU1LjE0MDYiIHkyPSIzNTUuMTQwNiIvPjwvZz48ZyBjbGFzcz0ibWVzc2FnZSIgZGF0YS1wYXJ0aWNpcGFudC0xPSJTaXN3YSIgZGF0YS1wYXJ0aWNpcGFudC0yPSJVSV9Mb2dpbiI+PHBvbHlnb24gZmlsbD0iIzE4MTgxOCIgcG9pbnRzPSIyMTkuNSwxMDUuODk4NCwyMjkuNSwxMDkuODk4NCwyMTkuNSwxMTMuODk4NCwyMjMuNSwxMDkuODk4NCIgc3R5bGU9InN0cm9rZTojMTgxODE4O3N0cm9rZS13aWR0aDoxOyIvPjxsaW5lIHN0eWxlPSJzdHJva2U6IzE4MTgxODtzdHJva2Utd2lkdGg6MTsiIHgxPSIyNS41IiB4Mj0iMjI1LjUiIHkxPSIxMDkuODk4NCIgeTI9IjEwOS44OTg0Ii8+PHRleHQgZmlsbD0iIzAwMDAwMCIgZm9udC1mYW1pbHk9InNhbnMtc2VyaWYiIGZvbnQtc2l6ZT0iMTMiIGxlbmd0aEFkanVzdD0ic3BhY2luZyIgdGV4dExlbmd0aD0iMTgyIiB4PSIzMi41IiB5PSIxMDYuMjczNCI+TWFzdWtrYW4gdXNlcm5hbWUgJmFtcDsgcGFzc3dvcmQ8L3RleHQ+PC9nPjxnIGNsYXNzPSJtZXNzYWdlIiBkYXRhLXBhcnRpY2lwYW50LTE9IlVJX0xvZ2luIiBkYXRhLXBhcnRpY2lwYW50LTI9IkxvZ2luQ29udHJvbGxlciI+PHBvbHlnb24gZmlsbD0iIzE4MTgxOCIgcG9pbnRzPSI0ODQsMTMzLjgxMjUsNDk0LDEzNy44MTI1LDQ4NCwxNDEuODEyNSw0ODgsMTM3LjgxMjUiIHN0eWxlPSJzdHJva2U6IzE4MTgxODtzdHJva2Utd2lkdGg6MTsiLz48bGluZSBzdHlsZT0ic3Ryb2tlOiMxODE4MTg7c3Ryb2tlLXdpZHRoOjE7IiB4MT0iMjMxLjUiIHgyPSI0OTAiIHkxPSIxMzcuODEyNSIgeTI9IjEzNy44MTI1Ii8+PHRleHQgZmlsbD0iIzAwMDAwMCIgZm9udC1mYW1pbHk9InNhbnMtc2VyaWYiIGZvbnQtc2l6ZT0iMTMiIGxlbmd0aEFkanVzdD0ic3BhY2luZyIgdGV4dExlbmd0aD0iMjQwLjUiIHg9IjIzOC41IiB5PSIxMzQuMTg3NSI+S2lyaW0gZGF0YSBsb2dpbiAodXNlcm5hbWUsIHBhc3N3b3JkKTwvdGV4dD48L2c+PGcgY2xhc3M9Im1lc3NhZ2UiIGRhdGEtcGFydGljaXBhbnQtMT0iTG9naW5Db250cm9sbGVyIiBkYXRhLXBhcnRpY2lwYW50LTI9IlVzZXJEYXRhYmFzZSI+PHBvbHlnb24gZmlsbD0iIzE4MTgxOCIgcG9pbnRzPSI3MzUuNSwxNjEuNzI2Niw3NDUuNSwxNjUuNzI2Niw3MzUuNSwxNjkuNzI2Niw3MzkuNSwxNjUuNzI2NiIgc3R5bGU9InN0cm9rZTojMTgxODE4O3N0cm9rZS13aWR0aDoxOyIvPjxsaW5lIHN0eWxlPSJzdHJva2U6IzE4MTgxODtzdHJva2Utd2lkdGg6MTsiIHgxPSI0OTYiIHgyPSI3NDEuNSIgeTE9IjE2NS43MjY2IiB5Mj0iMTY1LjcyNjYiLz48dGV4dCBmaWxsPSIjMDAwMDAwIiBmb250LWZhbWlseT0ic2Fucy1zZXJpZiIgZm9udC1zaXplPSIxMyIgbGVuZ3RoQWRqdXN0PSJzcGFjaW5nIiB0ZXh0TGVuZ3RoPSIxMjMuNSIgeD0iNTAzIiB5PSIxNjIuMTAxNiI+VmFsaWRhc2kga3JlZGVuc2lhbDwvdGV4dD48L2c+PGcgY2xhc3M9Im1lc3NhZ2UiIGRhdGEtcGFydGljaXBhbnQtMT0iVXNlckRhdGFiYXNlIiBkYXRhLXBhcnRpY2lwYW50LTI9IkxvZ2luQ29udHJvbGxlciI+PHBvbHlnb24gZmlsbD0iIzE4MTgxOCIgcG9pbnRzPSI1MDcsMTg5LjY0MDYsNDk3LDE5My42NDA2LDUwNywxOTcuNjQwNiw1MDMsMTkzLjY0MDYiIHN0eWxlPSJzdHJva2U6IzE4MTgxODtzdHJva2Utd2lkdGg6MTsiLz48bGluZSBzdHlsZT0ic3Ryb2tlOiMxODE4MTg7c3Ryb2tlLXdpZHRoOjE7c3Ryb2tlLWRhc2hhcnJheToyLjAsMi4wOyIgeDE9IjUwMSIgeDI9Ijc0Ni41IiB5MT0iMTkzLjY0MDYiIHkyPSIxOTMuNjQwNiIvPjx0ZXh0IGZpbGw9IiMwMDAwMDAiIGZvbnQtZmFtaWx5PSJzYW5zLXNlcmlmIiBmb250LXNpemU9IjEzIiBsZW5ndGhBZGp1c3Q9InNwYWNpbmciIHRleHRMZW5ndGg9IjIyNy41IiB4PSI1MTMiIHk9IjE5MC4wMTU2Ij5TdGF0dXMgdmFsaWRhc2kgKHZhbGlkL3RpZGFrIHZhbGlkKTwvdGV4dD48L2c+PHBhdGggZD0iTTE5MC41LDIwOC42NDA2IEwyNTUsMjA4LjY0MDYgTDI1NSwyMTQuNTU0NyBMMjQ1LDIyNC41NTQ3IEwxOTAuNSwyMjQuNTU0NyBMMTkwLjUsMjA4LjY0MDYiIGZpbGw9IiNFRUVFRUUiIHN0eWxlPSJzdHJva2U6IzAwMDAwMDtzdHJva2Utd2lkdGg6MS41OyIvPjxyZWN0IGZpbGw9Im5vbmUiIGhlaWdodD0iODUuNTE1NiIgc3R5bGU9InN0cm9rZTojMDAwMDAwO3N0cm9rZS13aWR0aDoxLjU7IiB3aWR0aD0iMzcxIiB4PSIxOTAuNSIgeT0iMjA4LjY0MDYiLz48dGV4dCBmaWxsPSIjMDAwMDAwIiBmb250LWZhbWlseT0ic2Fucy1zZXJpZiIgZm9udC1zaXplPSIxMyIgZm9udC13ZWlnaHQ9ImJvbGQiIGxlbmd0aEFkanVzdD0ic3BhY2luZyIgdGV4dExlbmd0aD0iMTkuNSIgeD0iMjA1LjUiIHk9IjIyMS45Mjk3Ij5hbHQ8L3RleHQ+PHRleHQgZmlsbD0iIzAwMDAwMCIgZm9udC1mYW1pbHk9InNhbnMtc2VyaWYiIGZvbnQtc2l6ZT0iMTEiIGZvbnQtd2VpZ2h0PSJib2xkIiBsZW5ndGhBZGp1c3Q9InNwYWNpbmciIHRleHRMZW5ndGg9Ijk5IiB4PSIyNzAiIHk9IjIyMS4wMzkxIj5bS3JlZGVuc2lhbCB2YWxpZF08L3RleHQ+PGcgY2xhc3M9Im1lc3NhZ2UiIGRhdGEtcGFydGljaXBhbnQtMT0iTG9naW5Db250cm9sbGVyIiBkYXRhLXBhcnRpY2lwYW50LTI9IlVJX0xvZ2luIj48cG9seWdvbiBmaWxsPSIjMTgxODE4IiBwb2ludHM9IjI0Mi41LDI0MC40Njg4LDIzMi41LDI0NC40Njg4LDI0Mi41LDI0OC40Njg4LDIzOC41LDI0NC40Njg4IiBzdHlsZT0ic3Ryb2tlOiMxODE4MTg7c3Ryb2tlLXdpZHRoOjE7Ii8+PGxpbmUgc3R5bGU9InN0cm9rZTojMTgxODE4O3N0cm9rZS13aWR0aDoxOyIgeDE9IjIzNi41IiB4Mj0iNDk1IiB5MT0iMjQ0LjQ2ODgiIHkyPSIyNDQuNDY4OCIvPjx0ZXh0IGZpbGw9IiMwMDAwMDAiIGZvbnQtZmFtaWx5PSJzYW5zLXNlcmlmIiBmb250LXNpemU9IjEzIiBsZW5ndGhBZGp1c3Q9InNwYWNpbmciIHRleHRMZW5ndGg9IjE4OC41IiB4PSIyNDguNSIgeT0iMjQwLjg0MzgiPkFrc2VzIHNpc3RlbSAobG9naW4gYmVyaGFzaWwpPC90ZXh0PjwvZz48bGluZSBzdHlsZT0ic3Ryb2tlOiMwMDAwMDA7c3Ryb2tlLXdpZHRoOjE7c3Ryb2tlLWRhc2hhcnJheToyLjAsMi4wOyIgeDE9IjE5MC41IiB4Mj0iNTYxLjUiIHkxPSIyNTMuNDY4OCIgeTI9IjI1My40Njg4Ii8+PHRleHQgZmlsbD0iIzAwMDAwMCIgZm9udC1mYW1pbHk9InNhbnMtc2VyaWYiIGZvbnQtc2l6ZT0iMTEiIGZvbnQtd2VpZ2h0PSJib2xkIiBsZW5ndGhBZGp1c3Q9InNwYWNpbmciIHRleHRMZW5ndGg9IjEzMiIgeD0iMTk1LjUiIHk9IjI2My44NjcyIj5bS3JlZGVuc2lhbCB0aWRhayB2YWxpZF08L3RleHQ+PGcgY2xhc3M9Im1lc3NhZ2UiIGRhdGEtcGFydGljaXBhbnQtMT0iTG9naW5Db250cm9sbGVyIiBkYXRhLXBhcnRpY2lwYW50LTI9IlVJX0xvZ2luIj48cG9seWdvbiBmaWxsPSIjMTgxODE4IiBwb2ludHM9IjI0Mi41LDI4Mi4xNTYzLDIzMi41LDI4Ni4xNTYzLDI0Mi41LDI5MC4xNTYzLDIzOC41LDI4Ni4xNTYzIiBzdHlsZT0ic3Ryb2tlOiMxODE4MTg7c3Ryb2tlLXdpZHRoOjE7Ii8+PGxpbmUgc3R5bGU9InN0cm9rZTojMTgxODE4O3N0cm9rZS13aWR0aDoxOyIgeDE9IjIzNi41IiB4Mj0iNDk1IiB5MT0iMjg2LjE1NjMiIHkyPSIyODYuMTU2MyIvPjx0ZXh0IGZpbGw9IiMwMDAwMDAiIGZvbnQtZmFtaWx5PSJzYW5zLXNlcmlmIiBmb250LXNpemU9IjEzIiBsZW5ndGhBZGp1c3Q9InNwYWNpbmciIHRleHRMZW5ndGg9IjEzNi41IiB4PSIyNDguNSIgeT0iMjgyLjUzMTMiPlRhbXBpbGthbiBwZXNhbiBnYWdhbDwvdGV4dD48L2c+PCEtLVNSQz1bWlAwbkp5R20zOEx0X21mRmc5S3VpSkNXOExaR21OSjBZam9CTFFvY0lITXhkRlp0LTVmVEFRU1JvMTM1cmRsVmlxRHhvbUx0ZVdTMlFGQU8wZkxsVjdsd1VDd2o5RFpkUDJMN2RBZzdrT1hTVzlFOWtLd3ZGOTlIR3llMDRtS3RUdWlUUl82NVRFbXdJWll3RDU3RlU4SzNnSHZvMlIzZXQ3RU11RFFqNUVhbkUxeFpmQWZFWkVpNUtTRXZ4bllfY2lldnhuR2JhMGZzWEdDZDVPaG1IeEF2NkJ5cGliN253LUlrZmpVRFVUTkR0SGcwZWs1c21TdmpHMy1ObmxoemJWakVNTDU1Wk5raXZrcVFCZi1VNHNsV3c0RWpnQWw4VngxVmdIeWE3aHp5T0ZNeGZUT052WEgtMDAwMF0tLT48L2c+PC9zdmc+;" vertex="1" parent="1">
            <mxGeometry x="-590" y="-1280" width="793" height="390" as="geometry" />
          </mxCell>
        </UserObject>
        <UserObject label="" plantUmlData="{&#xa;  &quot;data&quot;: &quot;@startuml\nactor Siswa\nboundary \&quot;UI:Halaman Tagihan\&quot; as UI\ncontrol \&quot;C:TagihanController\&quot; as Controller\nentity \&quot;E:Tagihan\&quot; as Entity\n\nSiswa -&gt; UI : Login\nSiswa -&gt; UI : Klik menu Tagihan\nUI -&gt; Controller : tampilkanTagihan()\nController -&gt; Entity : getTagihanBySiswa()\nEntity --&gt; Controller : data tagihan\nController --&gt; UI : tampilkan data tagihan\n@enduml\n&quot;,&#xa;  &quot;format&quot;: &quot;svg&quot;&#xa;}" id="f9MgHtHTdjxqu1ZTsrYx-2">
          <mxCell style="shape=image;noLabel=1;verticalAlign=top;aspect=fixed;imageAspect=0;image=data:image/svg+xml,PHN2ZyB4bWxucz0iaHR0cDovL3d3dy53My5vcmcvMjAwMC9zdmciIHhtbG5zOnhsaW5rPSJodHRwOi8vd3d3LnczLm9yZy8xOTk5L3hsaW5rIiBjb250ZW50U3R5bGVUeXBlPSJ0ZXh0L2NzcyIgZGF0YS1kaWFncmFtLXR5cGU9IlNFUVVFTkNFIiBoZWlnaHQ9IjM0NnB4IiBwcmVzZXJ2ZUFzcGVjdFJhdGlvPSJub25lIiBzdHlsZT0id2lkdGg6NTEwcHg7aGVpZ2h0OjM0NnB4O2JhY2tncm91bmQ6I0ZGRkZGRjsiIHZlcnNpb249IjEuMSIgdmlld0JveD0iMCAwIDUxMCAzNDYiIHdpZHRoPSI1MTBweCIgem9vbUFuZFBhbj0ibWFnbmlmeSI+PGRlZnMvPjxnPjxnPjx0aXRsZT5TaXN3YTwvdGl0bGU+PHJlY3QgZmlsbD0iIzAwMDAwMCIgZmlsbC1vcGFjaXR5PSIwLjAwMDAwIiBoZWlnaHQ9IjE4Ny40ODQ0IiB3aWR0aD0iOCIgeD0iMjEuNSIgeT0iNzkuOTg0NCIvPjxsaW5lIHN0eWxlPSJzdHJva2U6IzE4MTgxODtzdHJva2Utd2lkdGg6MC41O3N0cm9rZS1kYXNoYXJyYXk6NS4wLDUuMDsiIHgxPSIyNSIgeDI9IjI1IiB5MT0iNzkuOTg0NCIgeTI9IjI2Ny40Njg4Ii8+PC9nPjxnPjx0aXRsZT5VSTpIYWxhbWFuIFRhZ2loYW48L3RpdGxlPjxyZWN0IGZpbGw9IiMwMDAwMDAiIGZpbGwtb3BhY2l0eT0iMC4wMDAwMCIgaGVpZ2h0PSIxODcuNDg0NCIgd2lkdGg9IjgiIHg9IjE1NiIgeT0iNzkuOTg0NCIvPjxsaW5lIHN0eWxlPSJzdHJva2U6IzE4MTgxODtzdHJva2Utd2lkdGg6MC41O3N0cm9rZS1kYXNoYXJyYXk6NS4wLDUuMDsiIHgxPSIxNjAiIHgyPSIxNjAiIHkxPSI3OS45ODQ0IiB5Mj0iMjY3LjQ2ODgiLz48L2c+PGc+PHRpdGxlPkM6VGFnaWhhbkNvbnRyb2xsZXI8L3RpdGxlPjxyZWN0IGZpbGw9IiMwMDAwMDAiIGZpbGwtb3BhY2l0eT0iMC4wMDAwMCIgaGVpZ2h0PSIxODcuNDg0NCIgd2lkdGg9IjgiIHg9IjMyMyIgeT0iNzkuOTg0NCIvPjxsaW5lIHN0eWxlPSJzdHJva2U6IzE4MTgxODtzdHJva2Utd2lkdGg6MC41O3N0cm9rZS1kYXNoYXJyYXk6NS4wLDUuMDsiIHgxPSIzMjYuNSIgeDI9IjMyNi41IiB5MT0iNzkuOTg0NCIgeTI9IjI2Ny40Njg4Ii8+PC9nPjxnPjx0aXRsZT5FOlRhZ2loYW48L3RpdGxlPjxyZWN0IGZpbGw9IiMwMDAwMDAiIGZpbGwtb3BhY2l0eT0iMC4wMDAwMCIgaGVpZ2h0PSIxODcuNDg0NCIgd2lkdGg9IjgiIHg9IjQ3MC41IiB5PSI3OS45ODQ0Ii8+PGxpbmUgc3R5bGU9InN0cm9rZTojMTgxODE4O3N0cm9rZS13aWR0aDowLjU7c3Ryb2tlLWRhc2hhcnJheTo1LjAsNS4wOyIgeDE9IjQ3NCIgeDI9IjQ3NCIgeTE9Ijc5Ljk4NDQiIHkyPSIyNjcuNDY4OCIvPjwvZz48ZyBjbGFzcz0icGFydGljaXBhbnQgcGFydGljaXBhbnQtaGVhZCIgZGF0YS1wYXJ0aWNpcGFudD0iU2lzd2EiPjx0ZXh0IGZpbGw9IiMwMDAwMDAiIGZvbnQtZmFtaWx5PSJzYW5zLXNlcmlmIiBmb250LXNpemU9IjE0IiBsZW5ndGhBZGp1c3Q9InNwYWNpbmciIHRleHRMZW5ndGg9IjM1IiB4PSI1IiB5PSI3OC4yMzQ0Ij5TaXN3YTwvdGV4dD48ZWxsaXBzZSBjeD0iMjUuNSIgY3k9IjEzLjUiIGZpbGw9IiNFMkUyRjAiIHJ4PSI4IiByeT0iOCIgc3R5bGU9InN0cm9rZTojMTgxODE4O3N0cm9rZS13aWR0aDowLjU7Ii8+PHBhdGggZD0iTTI1LjUsMjEuNSBMMjUuNSw0OC41IE0xMi41LDI5LjUgTDM4LjUsMjkuNSBNMjUuNSw0OC41IEwxMi41LDYzLjUgTTI1LjUsNDguNSBMMzguNSw2My41IiBmaWxsPSJub25lIiBzdHlsZT0ic3Ryb2tlOiMxODE4MTg7c3Ryb2tlLXdpZHRoOjAuNTsiLz48L2c+PGcgY2xhc3M9InBhcnRpY2lwYW50IHBhcnRpY2lwYW50LXRhaWwiIGRhdGEtcGFydGljaXBhbnQ9IlNpc3dhIj48dGV4dCBmaWxsPSIjMDAwMDAwIiBmb250LWZhbWlseT0ic2Fucy1zZXJpZiIgZm9udC1zaXplPSIxNCIgbGVuZ3RoQWRqdXN0PSJzcGFjaW5nIiB0ZXh0TGVuZ3RoPSIzNSIgeD0iNSIgeT0iMjc5LjcwMzEiPlNpc3dhPC90ZXh0PjxlbGxpcHNlIGN4PSIyNS41IiBjeT0iMjg5Ljk1MzEiIGZpbGw9IiNFMkUyRjAiIHJ4PSI4IiByeT0iOCIgc3R5bGU9InN0cm9rZTojMTgxODE4O3N0cm9rZS13aWR0aDowLjU7Ii8+PHBhdGggZD0iTTI1LjUsMjk3Ljk1MzEgTDI1LjUsMzI0Ljk1MzEgTTEyLjUsMzA1Ljk1MzEgTDM4LjUsMzA1Ljk1MzEgTTI1LjUsMzI0Ljk1MzEgTDEyLjUsMzM5Ljk1MzEgTTI1LjUsMzI0Ljk1MzEgTDM4LjUsMzM5Ljk1MzEiIGZpbGw9Im5vbmUiIHN0eWxlPSJzdHJva2U6IzE4MTgxODtzdHJva2Utd2lkdGg6MC41OyIvPjwvZz48ZyBjbGFzcz0icGFydGljaXBhbnQgcGFydGljaXBhbnQtaGVhZCIgZGF0YS1wYXJ0aWNpcGFudD0iVUkiPjx0ZXh0IGZpbGw9IiMwMDAwMDAiIGZvbnQtZmFtaWx5PSJzYW5zLXNlcmlmIiBmb250LXNpemU9IjE0IiBsZW5ndGhBZGp1c3Q9InNwYWNpbmciIHRleHRMZW5ndGg9IjEyNiIgeD0iOTQiIHk9Ijc4LjIzNDQiPlVJOkhhbGFtYW4gVGFnaWhhbjwvdGV4dD48cGF0aCBkPSJNMTM5LjUsMzcgTDEzOS41LDYxIE0xMzkuNSw0OSBMMTU2LjUsNDkiIGZpbGw9Im5vbmUiIHN0eWxlPSJzdHJva2U6IzE4MTgxODtzdHJva2Utd2lkdGg6MC41OyIvPjxlbGxpcHNlIGN4PSIxNjguNSIgY3k9IjQ5IiBmaWxsPSIjRTJFMkYwIiByeD0iMTIiIHJ5PSIxMiIgc3R5bGU9InN0cm9rZTojMTgxODE4O3N0cm9rZS13aWR0aDowLjU7Ii8+PC9nPjxnIGNsYXNzPSJwYXJ0aWNpcGFudCBwYXJ0aWNpcGFudC10YWlsIiBkYXRhLXBhcnRpY2lwYW50PSJVSSI+PHRleHQgZmlsbD0iIzAwMDAwMCIgZm9udC1mYW1pbHk9InNhbnMtc2VyaWYiIGZvbnQtc2l6ZT0iMTQiIGxlbmd0aEFkanVzdD0ic3BhY2luZyIgdGV4dExlbmd0aD0iMTI2IiB4PSI5NCIgeT0iMjc5LjcwMzEiPlVJOkhhbGFtYW4gVGFnaWhhbjwvdGV4dD48cGF0aCBkPSJNMTM5LjUsMjg1LjQ1MzEgTDEzOS41LDMwOS40NTMxIE0xMzkuNSwyOTcuNDUzMSBMMTU2LjUsMjk3LjQ1MzEiIGZpbGw9Im5vbmUiIHN0eWxlPSJzdHJva2U6IzE4MTgxODtzdHJva2Utd2lkdGg6MC41OyIvPjxlbGxpcHNlIGN4PSIxNjguNSIgY3k9IjI5Ny40NTMxIiBmaWxsPSIjRTJFMkYwIiByeD0iMTIiIHJ5PSIxMiIgc3R5bGU9InN0cm9rZTojMTgxODE4O3N0cm9rZS13aWR0aDowLjU7Ii8+PC9nPjxnIGNsYXNzPSJwYXJ0aWNpcGFudCBwYXJ0aWNpcGFudC1oZWFkIiBkYXRhLXBhcnRpY2lwYW50PSJDb250cm9sbGVyIj48dGV4dCBmaWxsPSIjMDAwMDAwIiBmb250LWZhbWlseT0ic2Fucy1zZXJpZiIgZm9udC1zaXplPSIxNCIgbGVuZ3RoQWRqdXN0PSJzcGFjaW5nIiB0ZXh0TGVuZ3RoPSIxMzMiIHg9IjI1Ny41IiB5PSI3OC4yMzQ0Ij5DOlRhZ2loYW5Db250cm9sbGVyPC90ZXh0PjxlbGxpcHNlIGN4PSIzMjciIGN5PSI0OSIgZmlsbD0iI0UyRTJGMCIgcng9IjEyIiByeT0iMTIiIHN0eWxlPSJzdHJva2U6IzE4MTgxODtzdHJva2Utd2lkdGg6MC41OyIvPjxwb2x5Z29uIGZpbGw9IiMxODE4MTgiIHBvaW50cz0iMzIzLDM3LDMyOSwzMiwzMjcsMzcsMzI5LDQyLDMyMywzNyIgc3R5bGU9InN0cm9rZTojMTgxODE4O3N0cm9rZS13aWR0aDoxOyIvPjwvZz48ZyBjbGFzcz0icGFydGljaXBhbnQgcGFydGljaXBhbnQtdGFpbCIgZGF0YS1wYXJ0aWNpcGFudD0iQ29udHJvbGxlciI+PHRleHQgZmlsbD0iIzAwMDAwMCIgZm9udC1mYW1pbHk9InNhbnMtc2VyaWYiIGZvbnQtc2l6ZT0iMTQiIGxlbmd0aEFkanVzdD0ic3BhY2luZyIgdGV4dExlbmd0aD0iMTMzIiB4PSIyNTcuNSIgeT0iMjc5LjcwMzEiPkM6VGFnaWhhbkNvbnRyb2xsZXI8L3RleHQ+PGVsbGlwc2UgY3g9IjMyNyIgY3k9IjI5Ny40NTMxIiBmaWxsPSIjRTJFMkYwIiByeD0iMTIiIHJ5PSIxMiIgc3R5bGU9InN0cm9rZTojMTgxODE4O3N0cm9rZS13aWR0aDowLjU7Ii8+PHBvbHlnb24gZmlsbD0iIzE4MTgxOCIgcG9pbnRzPSIzMjMsMjg1LjQ1MzEsMzI5LDI4MC40NTMxLDMyNywyODUuNDUzMSwzMjksMjkwLjQ1MzEsMzIzLDI4NS40NTMxIiBzdHlsZT0ic3Ryb2tlOiMxODE4MTg7c3Ryb2tlLXdpZHRoOjE7Ii8+PC9nPjxnIGNsYXNzPSJwYXJ0aWNpcGFudCBwYXJ0aWNpcGFudC1oZWFkIiBkYXRhLXBhcnRpY2lwYW50PSJFbnRpdHkiPjx0ZXh0IGZpbGw9IiMwMDAwMDAiIGZvbnQtZmFtaWx5PSJzYW5zLXNlcmlmIiBmb250LXNpemU9IjE0IiBsZW5ndGhBZGp1c3Q9InNwYWNpbmciIHRleHRMZW5ndGg9IjYzIiB4PSI0NDAiIHk9Ijc4LjIzNDQiPkU6VGFnaWhhbjwvdGV4dD48ZWxsaXBzZSBjeD0iNDc0LjUiIGN5PSI0OSIgZmlsbD0iI0UyRTJGMCIgcng9IjEyIiByeT0iMTIiIHN0eWxlPSJzdHJva2U6IzE4MTgxODtzdHJva2Utd2lkdGg6MC41OyIvPjxsaW5lIHN0eWxlPSJzdHJva2U6IzE4MTgxODtzdHJva2Utd2lkdGg6MC41OyIgeDE9IjQ2Mi41IiB4Mj0iNDg2LjUiIHkxPSI2MyIgeTI9IjYzIi8+PC9nPjxnIGNsYXNzPSJwYXJ0aWNpcGFudCBwYXJ0aWNpcGFudC10YWlsIiBkYXRhLXBhcnRpY2lwYW50PSJFbnRpdHkiPjx0ZXh0IGZpbGw9IiMwMDAwMDAiIGZvbnQtZmFtaWx5PSJzYW5zLXNlcmlmIiBmb250LXNpemU9IjE0IiBsZW5ndGhBZGp1c3Q9InNwYWNpbmciIHRleHRMZW5ndGg9IjYzIiB4PSI0NDAiIHk9IjI3OS43MDMxIj5FOlRhZ2loYW48L3RleHQ+PGVsbGlwc2UgY3g9IjQ3NC41IiBjeT0iMjk3LjQ1MzEiIGZpbGw9IiNFMkUyRjAiIHJ4PSIxMiIgcnk9IjEyIiBzdHlsZT0ic3Ryb2tlOiMxODE4MTg7c3Ryb2tlLXdpZHRoOjAuNTsiLz48bGluZSBzdHlsZT0ic3Ryb2tlOiMxODE4MTg7c3Ryb2tlLXdpZHRoOjAuNTsiIHgxPSI0NjIuNSIgeDI9IjQ4Ni41IiB5MT0iMzExLjQ1MzEiIHkyPSIzMTEuNDUzMSIvPjwvZz48ZyBjbGFzcz0ibWVzc2FnZSIgZGF0YS1wYXJ0aWNpcGFudC0xPSJTaXN3YSIgZGF0YS1wYXJ0aWNpcGFudC0yPSJVSSI+PHBvbHlnb24gZmlsbD0iIzE4MTgxOCIgcG9pbnRzPSIxNDgsMTA1Ljg5ODQsMTU4LDEwOS44OTg0LDE0OCwxMTMuODk4NCwxNTIsMTA5Ljg5ODQiIHN0eWxlPSJzdHJva2U6IzE4MTgxODtzdHJva2Utd2lkdGg6MTsiLz48bGluZSBzdHlsZT0ic3Ryb2tlOiMxODE4MTg7c3Ryb2tlLXdpZHRoOjE7IiB4MT0iMjUuNSIgeDI9IjE1NCIgeTE9IjEwOS44OTg0IiB5Mj0iMTA5Ljg5ODQiLz48dGV4dCBmaWxsPSIjMDAwMDAwIiBmb250LWZhbWlseT0ic2Fucy1zZXJpZiIgZm9udC1zaXplPSIxMyIgbGVuZ3RoQWRqdXN0PSJzcGFjaW5nIiB0ZXh0TGVuZ3RoPSIzMi41IiB4PSIzMi41IiB5PSIxMDYuMjczNCI+TG9naW48L3RleHQ+PC9nPjxnIGNsYXNzPSJtZXNzYWdlIiBkYXRhLXBhcnRpY2lwYW50LTE9IlNpc3dhIiBkYXRhLXBhcnRpY2lwYW50LTI9IlVJIj48cG9seWdvbiBmaWxsPSIjMTgxODE4IiBwb2ludHM9IjE0OCwxMzMuODEyNSwxNTgsMTM3LjgxMjUsMTQ4LDE0MS44MTI1LDE1MiwxMzcuODEyNSIgc3R5bGU9InN0cm9rZTojMTgxODE4O3N0cm9rZS13aWR0aDoxOyIvPjxsaW5lIHN0eWxlPSJzdHJva2U6IzE4MTgxODtzdHJva2Utd2lkdGg6MTsiIHgxPSIyNS41IiB4Mj0iMTU0IiB5MT0iMTM3LjgxMjUiIHkyPSIxMzcuODEyNSIvPjx0ZXh0IGZpbGw9IiMwMDAwMDAiIGZvbnQtZmFtaWx5PSJzYW5zLXNlcmlmIiBmb250LXNpemU9IjEzIiBsZW5ndGhBZGp1c3Q9InNwYWNpbmciIHRleHRMZW5ndGg9IjExMC41IiB4PSIzMi41IiB5PSIxMzQuMTg3NSI+S2xpayBtZW51IFRhZ2loYW48L3RleHQ+PC9nPjxnIGNsYXNzPSJtZXNzYWdlIiBkYXRhLXBhcnRpY2lwYW50LTE9IlVJIiBkYXRhLXBhcnRpY2lwYW50LTI9IkNvbnRyb2xsZXIiPjxwb2x5Z29uIGZpbGw9IiMxODE4MTgiIHBvaW50cz0iMzE1LDE2MS43MjY2LDMyNSwxNjUuNzI2NiwzMTUsMTY5LjcyNjYsMzE5LDE2NS43MjY2IiBzdHlsZT0ic3Ryb2tlOiMxODE4MTg7c3Ryb2tlLXdpZHRoOjE7Ii8+PGxpbmUgc3R5bGU9InN0cm9rZTojMTgxODE4O3N0cm9rZS13aWR0aDoxOyIgeDE9IjE2MCIgeDI9IjMyMSIgeTE9IjE2NS43MjY2IiB5Mj0iMTY1LjcyNjYiLz48dGV4dCBmaWxsPSIjMDAwMDAwIiBmb250LWZhbWlseT0ic2Fucy1zZXJpZiIgZm9udC1zaXplPSIxMyIgbGVuZ3RoQWRqdXN0PSJzcGFjaW5nIiB0ZXh0TGVuZ3RoPSIxMTciIHg9IjE2NyIgeT0iMTYyLjEwMTYiPnRhbXBpbGthblRhZ2loYW4oKTwvdGV4dD48L2c+PGcgY2xhc3M9Im1lc3NhZ2UiIGRhdGEtcGFydGljaXBhbnQtMT0iQ29udHJvbGxlciIgZGF0YS1wYXJ0aWNpcGFudC0yPSJFbnRpdHkiPjxwb2x5Z29uIGZpbGw9IiMxODE4MTgiIHBvaW50cz0iNDYyLjUsMTg5LjY0MDYsNDcyLjUsMTkzLjY0MDYsNDYyLjUsMTk3LjY0MDYsNDY2LjUsMTkzLjY0MDYiIHN0eWxlPSJzdHJva2U6IzE4MTgxODtzdHJva2Utd2lkdGg6MTsiLz48bGluZSBzdHlsZT0ic3Ryb2tlOiMxODE4MTg7c3Ryb2tlLXdpZHRoOjE7IiB4MT0iMzI3IiB4Mj0iNDY4LjUiIHkxPSIxOTMuNjQwNiIgeTI9IjE5My42NDA2Ii8+PHRleHQgZmlsbD0iIzAwMDAwMCIgZm9udC1mYW1pbHk9InNhbnMtc2VyaWYiIGZvbnQtc2l6ZT0iMTMiIGxlbmd0aEFkanVzdD0ic3BhY2luZyIgdGV4dExlbmd0aD0iMTIzLjUiIHg9IjMzNCIgeT0iMTkwLjAxNTYiPmdldFRhZ2loYW5CeVNpc3dhKCk8L3RleHQ+PC9nPjxnIGNsYXNzPSJtZXNzYWdlIiBkYXRhLXBhcnRpY2lwYW50LTE9IkVudGl0eSIgZGF0YS1wYXJ0aWNpcGFudC0yPSJDb250cm9sbGVyIj48cG9seWdvbiBmaWxsPSIjMTgxODE4IiBwb2ludHM9IjMzOCwyMTcuNTU0NywzMjgsMjIxLjU1NDcsMzM4LDIyNS41NTQ3LDMzNCwyMjEuNTU0NyIgc3R5bGU9InN0cm9rZTojMTgxODE4O3N0cm9rZS13aWR0aDoxOyIvPjxsaW5lIHN0eWxlPSJzdHJva2U6IzE4MTgxODtzdHJva2Utd2lkdGg6MTtzdHJva2UtZGFzaGFycmF5OjIuMCwyLjA7IiB4MT0iMzMyIiB4Mj0iNDczLjUiIHkxPSIyMjEuNTU0NyIgeTI9IjIyMS41NTQ3Ii8+PHRleHQgZmlsbD0iIzAwMDAwMCIgZm9udC1mYW1pbHk9InNhbnMtc2VyaWYiIGZvbnQtc2l6ZT0iMTMiIGxlbmd0aEFkanVzdD0ic3BhY2luZyIgdGV4dExlbmd0aD0iNzgiIHg9IjM0NCIgeT0iMjE3LjkyOTciPmRhdGEgdGFnaWhhbjwvdGV4dD48L2c+PGcgY2xhc3M9Im1lc3NhZ2UiIGRhdGEtcGFydGljaXBhbnQtMT0iQ29udHJvbGxlciIgZGF0YS1wYXJ0aWNpcGFudC0yPSJVSSI+PHBvbHlnb24gZmlsbD0iIzE4MTgxOCIgcG9pbnRzPSIxNzEsMjQ1LjQ2ODgsMTYxLDI0OS40Njg4LDE3MSwyNTMuNDY4OCwxNjcsMjQ5LjQ2ODgiIHN0eWxlPSJzdHJva2U6IzE4MTgxODtzdHJva2Utd2lkdGg6MTsiLz48bGluZSBzdHlsZT0ic3Ryb2tlOiMxODE4MTg7c3Ryb2tlLXdpZHRoOjE7c3Ryb2tlLWRhc2hhcnJheToyLjAsMi4wOyIgeDE9IjE2NSIgeDI9IjMyNiIgeTE9IjI0OS40Njg4IiB5Mj0iMjQ5LjQ2ODgiLz48dGV4dCBmaWxsPSIjMDAwMDAwIiBmb250LWZhbWlseT0ic2Fucy1zZXJpZiIgZm9udC1zaXplPSIxMyIgbGVuZ3RoQWRqdXN0PSJzcGFjaW5nIiB0ZXh0TGVuZ3RoPSIxNDMiIHg9IjE3NyIgeT0iMjQ1Ljg0MzgiPnRhbXBpbGthbiBkYXRhIHRhZ2loYW48L3RleHQ+PC9nPjwhLS1TUkM9W05PdjEzZThtNDROdEZTTTRiSXd1RzFTazkyR0l0SWE3NkE3MVhaOHJmU0htVW9UajRNR3ZfeC15RnpYdXctMmtubS1BZnZzZUhKVDNMYlZvV1dPNzk3WFdmcno4NlUwOFRJS1FJenZQMHJhWEtyRjRuMldOY0ZLS1locHNSMmxiTGJBNkw4WW0yVmM5aEkzWFBaakRrLW5nVDAtM2VjYnZHZDNDdkpoMWFDVlhoS3NGYjlaM0tNbndma0NVYXZ0b1lKZEZPT1pITEVQeFF1aVVNSHJOanh4Ymp6X2k3X2U1XS0tPjwvZz48L3N2Zz4=;" vertex="1" parent="1">
            <mxGeometry x="270" y="-1280" width="510" height="346" as="geometry" />
          </mxCell>
        </UserObject>
        <UserObject label="" plantUmlData="{&#xa;  &quot;data&quot;: &quot;@startuml\nactor Siswa\nboundary \&quot;UI:Halaman Pembayaran\&quot; as UI\ncontrol \&quot;C:PembayaranController\&quot; as Controller\nentity \&quot;E:Pembayaran\&quot; as Entity\n\nSiswa -&gt; UI : Login\nSiswa -&gt; UI : Klik menu Pembayaran\nSiswa -&gt; UI : Masukkan nominal dan metode pembayaran\nUI -&gt; Controller : prosesPembayaran(nominal, metode)\nController -&gt; Entity : simpanTransaksi(nominal, metode)\nEntity --&gt; Controller : konfirmasi\nController --&gt; UI : tampilkanInstruksiPembayaran()\n@enduml\n&quot;,&#xa;  &quot;format&quot;: &quot;svg&quot;&#xa;}" id="f9MgHtHTdjxqu1ZTsrYx-3">
          <mxCell style="shape=image;noLabel=1;verticalAlign=top;aspect=fixed;imageAspect=0;image=data:image/svg+xml,PHN2ZyB4bWxucz0iaHR0cDovL3d3dy53My5vcmcvMjAwMC9zdmciIHhtbG5zOnhsaW5rPSJodHRwOi8vd3d3LnczLm9yZy8xOTk5L3hsaW5rIiBjb250ZW50U3R5bGVUeXBlPSJ0ZXh0L2NzcyIgZGF0YS1kaWFncmFtLXR5cGU9IlNFUVVFTkNFIiBoZWlnaHQ9IjM3NHB4IiBwcmVzZXJ2ZUFzcGVjdFJhdGlvPSJub25lIiBzdHlsZT0id2lkdGg6ODEzcHg7aGVpZ2h0OjM3NHB4O2JhY2tncm91bmQ6I0ZGRkZGRjsiIHZlcnNpb249IjEuMSIgdmlld0JveD0iMCAwIDgxMyAzNzQiIHdpZHRoPSI4MTNweCIgem9vbUFuZFBhbj0ibWFnbmlmeSI+PGRlZnMvPjxnPjxnPjx0aXRsZT5TaXN3YTwvdGl0bGU+PHJlY3QgZmlsbD0iIzAwMDAwMCIgZmlsbC1vcGFjaXR5PSIwLjAwMDAwIiBoZWlnaHQ9IjIxNS4zOTg0IiB3aWR0aD0iOCIgeD0iMjEuNSIgeT0iNzkuOTg0NCIvPjxsaW5lIHN0eWxlPSJzdHJva2U6IzE4MTgxODtzdHJva2Utd2lkdGg6MC41O3N0cm9rZS1kYXNoYXJyYXk6NS4wLDUuMDsiIHgxPSIyNSIgeDI9IjI1IiB5MT0iNzkuOTg0NCIgeTI9IjI5NS4zODI4Ii8+PC9nPjxnPjx0aXRsZT5VSTpIYWxhbWFuIFBlbWJheWFyYW48L3RpdGxlPjxyZWN0IGZpbGw9IiMwMDAwMDAiIGZpbGwtb3BhY2l0eT0iMC4wMDAwMCIgaGVpZ2h0PSIyMTUuMzk4NCIgd2lkdGg9IjgiIHg9IjI5Mi41IiB5PSI3OS45ODQ0Ii8+PGxpbmUgc3R5bGU9InN0cm9rZTojMTgxODE4O3N0cm9rZS13aWR0aDowLjU7c3Ryb2tlLWRhc2hhcnJheTo1LjAsNS4wOyIgeDE9IjI5NiIgeDI9IjI5NiIgeTE9Ijc5Ljk4NDQiIHkyPSIyOTUuMzgyOCIvPjwvZz48Zz48dGl0bGU+QzpQZW1iYXlhcmFuQ29udHJvbGxlcjwvdGl0bGU+PHJlY3QgZmlsbD0iIzAwMDAwMCIgZmlsbC1vcGFjaXR5PSIwLjAwMDAwIiBoZWlnaHQ9IjIxNS4zOTg0IiB3aWR0aD0iOCIgeD0iNTMxIiB5PSI3OS45ODQ0Ii8+PGxpbmUgc3R5bGU9InN0cm9rZTojMTgxODE4O3N0cm9rZS13aWR0aDowLjU7c3Ryb2tlLWRhc2hhcnJheTo1LjAsNS4wOyIgeDE9IjUzNSIgeDI9IjUzNSIgeTE9Ijc5Ljk4NDQiIHkyPSIyOTUuMzgyOCIvPjwvZz48Zz48dGl0bGU+RTpQZW1iYXlhcmFuPC90aXRsZT48cmVjdCBmaWxsPSIjMDAwMDAwIiBmaWxsLW9wYWNpdHk9IjAuMDAwMDAiIGhlaWdodD0iMjE1LjM5ODQiIHdpZHRoPSI4IiB4PSI3NjMiIHk9Ijc5Ljk4NDQiLz48bGluZSBzdHlsZT0ic3Ryb2tlOiMxODE4MTg7c3Ryb2tlLXdpZHRoOjAuNTtzdHJva2UtZGFzaGFycmF5OjUuMCw1LjA7IiB4MT0iNzY3IiB4Mj0iNzY3IiB5MT0iNzkuOTg0NCIgeTI9IjI5NS4zODI4Ii8+PC9nPjxnIGNsYXNzPSJwYXJ0aWNpcGFudCBwYXJ0aWNpcGFudC1oZWFkIiBkYXRhLXBhcnRpY2lwYW50PSJTaXN3YSI+PHRleHQgZmlsbD0iIzAwMDAwMCIgZm9udC1mYW1pbHk9InNhbnMtc2VyaWYiIGZvbnQtc2l6ZT0iMTQiIGxlbmd0aEFkanVzdD0ic3BhY2luZyIgdGV4dExlbmd0aD0iMzUiIHg9IjUiIHk9Ijc4LjIzNDQiPlNpc3dhPC90ZXh0PjxlbGxpcHNlIGN4PSIyNS41IiBjeT0iMTMuNSIgZmlsbD0iI0UyRTJGMCIgcng9IjgiIHJ5PSI4IiBzdHlsZT0ic3Ryb2tlOiMxODE4MTg7c3Ryb2tlLXdpZHRoOjAuNTsiLz48cGF0aCBkPSJNMjUuNSwyMS41IEwyNS41LDQ4LjUgTTEyLjUsMjkuNSBMMzguNSwyOS41IE0yNS41LDQ4LjUgTDEyLjUsNjMuNSBNMjUuNSw0OC41IEwzOC41LDYzLjUiIGZpbGw9Im5vbmUiIHN0eWxlPSJzdHJva2U6IzE4MTgxODtzdHJva2Utd2lkdGg6MC41OyIvPjwvZz48ZyBjbGFzcz0icGFydGljaXBhbnQgcGFydGljaXBhbnQtdGFpbCIgZGF0YS1wYXJ0aWNpcGFudD0iU2lzd2EiPjx0ZXh0IGZpbGw9IiMwMDAwMDAiIGZvbnQtZmFtaWx5PSJzYW5zLXNlcmlmIiBmb250LXNpemU9IjE0IiBsZW5ndGhBZGp1c3Q9InNwYWNpbmciIHRleHRMZW5ndGg9IjM1IiB4PSI1IiB5PSIzMDcuNjE3MiI+U2lzd2E8L3RleHQ+PGVsbGlwc2UgY3g9IjI1LjUiIGN5PSIzMTcuODY3MiIgZmlsbD0iI0UyRTJGMCIgcng9IjgiIHJ5PSI4IiBzdHlsZT0ic3Ryb2tlOiMxODE4MTg7c3Ryb2tlLXdpZHRoOjAuNTsiLz48cGF0aCBkPSJNMjUuNSwzMjUuODY3MiBMMjUuNSwzNTIuODY3MiBNMTIuNSwzMzMuODY3MiBMMzguNSwzMzMuODY3MiBNMjUuNSwzNTIuODY3MiBMMTIuNSwzNjcuODY3MiBNMjUuNSwzNTIuODY3MiBMMzguNSwzNjcuODY3MiIgZmlsbD0ibm9uZSIgc3R5bGU9InN0cm9rZTojMTgxODE4O3N0cm9rZS13aWR0aDowLjU7Ii8+PC9nPjxnIGNsYXNzPSJwYXJ0aWNpcGFudCBwYXJ0aWNpcGFudC1oZWFkIiBkYXRhLXBhcnRpY2lwYW50PSJVSSI+PHRleHQgZmlsbD0iIzAwMDAwMCIgZm9udC1mYW1pbHk9InNhbnMtc2VyaWYiIGZvbnQtc2l6ZT0iMTQiIGxlbmd0aEFkanVzdD0ic3BhY2luZyIgdGV4dExlbmd0aD0iMTQ3IiB4PSIyMjAiIHk9Ijc4LjIzNDQiPlVJOkhhbGFtYW4gUGVtYmF5YXJhbjwvdGV4dD48cGF0aCBkPSJNMjc2LDM3IEwyNzYsNjEgTTI3Niw0OSBMMjkzLDQ5IiBmaWxsPSJub25lIiBzdHlsZT0ic3Ryb2tlOiMxODE4MTg7c3Ryb2tlLXdpZHRoOjAuNTsiLz48ZWxsaXBzZSBjeD0iMzA1IiBjeT0iNDkiIGZpbGw9IiNFMkUyRjAiIHJ4PSIxMiIgcnk9IjEyIiBzdHlsZT0ic3Ryb2tlOiMxODE4MTg7c3Ryb2tlLXdpZHRoOjAuNTsiLz48L2c+PGcgY2xhc3M9InBhcnRpY2lwYW50IHBhcnRpY2lwYW50LXRhaWwiIGRhdGEtcGFydGljaXBhbnQ9IlVJIj48dGV4dCBmaWxsPSIjMDAwMDAwIiBmb250LWZhbWlseT0ic2Fucy1zZXJpZiIgZm9udC1zaXplPSIxNCIgbGVuZ3RoQWRqdXN0PSJzcGFjaW5nIiB0ZXh0TGVuZ3RoPSIxNDciIHg9IjIyMCIgeT0iMzA3LjYxNzIiPlVJOkhhbGFtYW4gUGVtYmF5YXJhbjwvdGV4dD48cGF0aCBkPSJNMjc2LDMxMy4zNjcyIEwyNzYsMzM3LjM2NzIgTTI3NiwzMjUuMzY3MiBMMjkzLDMyNS4zNjcyIiBmaWxsPSJub25lIiBzdHlsZT0ic3Ryb2tlOiMxODE4MTg7c3Ryb2tlLXdpZHRoOjAuNTsiLz48ZWxsaXBzZSBjeD0iMzA1IiBjeT0iMzI1LjM2NzIiIGZpbGw9IiNFMkUyRjAiIHJ4PSIxMiIgcnk9IjEyIiBzdHlsZT0ic3Ryb2tlOiMxODE4MTg7c3Ryb2tlLXdpZHRoOjAuNTsiLz48L2c+PGcgY2xhc3M9InBhcnRpY2lwYW50IHBhcnRpY2lwYW50LWhlYWQiIGRhdGEtcGFydGljaXBhbnQ9IkNvbnRyb2xsZXIiPjx0ZXh0IGZpbGw9IiMwMDAwMDAiIGZvbnQtZmFtaWx5PSJzYW5zLXNlcmlmIiBmb250LXNpemU9IjE0IiBsZW5ndGhBZGp1c3Q9InNwYWNpbmciIHRleHRMZW5ndGg9IjE1NCIgeD0iNDU1IiB5PSI3OC4yMzQ0Ij5DOlBlbWJheWFyYW5Db250cm9sbGVyPC90ZXh0PjxlbGxpcHNlIGN4PSI1MzUiIGN5PSI0OSIgZmlsbD0iI0UyRTJGMCIgcng9IjEyIiByeT0iMTIiIHN0eWxlPSJzdHJva2U6IzE4MTgxODtzdHJva2Utd2lkdGg6MC41OyIvPjxwb2x5Z29uIGZpbGw9IiMxODE4MTgiIHBvaW50cz0iNTMxLDM3LDUzNywzMiw1MzUsMzcsNTM3LDQyLDUzMSwzNyIgc3R5bGU9InN0cm9rZTojMTgxODE4O3N0cm9rZS13aWR0aDoxOyIvPjwvZz48ZyBjbGFzcz0icGFydGljaXBhbnQgcGFydGljaXBhbnQtdGFpbCIgZGF0YS1wYXJ0aWNpcGFudD0iQ29udHJvbGxlciI+PHRleHQgZmlsbD0iIzAwMDAwMCIgZm9udC1mYW1pbHk9InNhbnMtc2VyaWYiIGZvbnQtc2l6ZT0iMTQiIGxlbmd0aEFkanVzdD0ic3BhY2luZyIgdGV4dExlbmd0aD0iMTU0IiB4PSI0NTUiIHk9IjMwNy42MTcyIj5DOlBlbWJheWFyYW5Db250cm9sbGVyPC90ZXh0PjxlbGxpcHNlIGN4PSI1MzUiIGN5PSIzMjUuMzY3MiIgZmlsbD0iI0UyRTJGMCIgcng9IjEyIiByeT0iMTIiIHN0eWxlPSJzdHJva2U6IzE4MTgxODtzdHJva2Utd2lkdGg6MC41OyIvPjxwb2x5Z29uIGZpbGw9IiMxODE4MTgiIHBvaW50cz0iNTMxLDMxMy4zNjcyLDUzNywzMDguMzY3Miw1MzUsMzEzLjM2NzIsNTM3LDMxOC4zNjcyLDUzMSwzMTMuMzY3MiIgc3R5bGU9InN0cm9rZTojMTgxODE4O3N0cm9rZS13aWR0aDoxOyIvPjwvZz48ZyBjbGFzcz0icGFydGljaXBhbnQgcGFydGljaXBhbnQtaGVhZCIgZGF0YS1wYXJ0aWNpcGFudD0iRW50aXR5Ij48dGV4dCBmaWxsPSIjMDAwMDAwIiBmb250LWZhbWlseT0ic2Fucy1zZXJpZiIgZm9udC1zaXplPSIxNCIgbGVuZ3RoQWRqdXN0PSJzcGFjaW5nIiB0ZXh0TGVuZ3RoPSI4NCIgeD0iNzIyIiB5PSI3OC4yMzQ0Ij5FOlBlbWJheWFyYW48L3RleHQ+PGVsbGlwc2UgY3g9Ijc2NyIgY3k9IjQ5IiBmaWxsPSIjRTJFMkYwIiByeD0iMTIiIHJ5PSIxMiIgc3R5bGU9InN0cm9rZTojMTgxODE4O3N0cm9rZS13aWR0aDowLjU7Ii8+PGxpbmUgc3R5bGU9InN0cm9rZTojMTgxODE4O3N0cm9rZS13aWR0aDowLjU7IiB4MT0iNzU1IiB4Mj0iNzc5IiB5MT0iNjMiIHkyPSI2MyIvPjwvZz48ZyBjbGFzcz0icGFydGljaXBhbnQgcGFydGljaXBhbnQtdGFpbCIgZGF0YS1wYXJ0aWNpcGFudD0iRW50aXR5Ij48dGV4dCBmaWxsPSIjMDAwMDAwIiBmb250LWZhbWlseT0ic2Fucy1zZXJpZiIgZm9udC1zaXplPSIxNCIgbGVuZ3RoQWRqdXN0PSJzcGFjaW5nIiB0ZXh0TGVuZ3RoPSI4NCIgeD0iNzIyIiB5PSIzMDcuNjE3MiI+RTpQZW1iYXlhcmFuPC90ZXh0PjxlbGxpcHNlIGN4PSI3NjciIGN5PSIzMjUuMzY3MiIgZmlsbD0iI0UyRTJGMCIgcng9IjEyIiByeT0iMTIiIHN0eWxlPSJzdHJva2U6IzE4MTgxODtzdHJva2Utd2lkdGg6MC41OyIvPjxsaW5lIHN0eWxlPSJzdHJva2U6IzE4MTgxODtzdHJva2Utd2lkdGg6MC41OyIgeDE9Ijc1NSIgeDI9Ijc3OSIgeTE9IjMzOS4zNjcyIiB5Mj0iMzM5LjM2NzIiLz48L2c+PGcgY2xhc3M9Im1lc3NhZ2UiIGRhdGEtcGFydGljaXBhbnQtMT0iU2lzd2EiIGRhdGEtcGFydGljaXBhbnQtMj0iVUkiPjxwb2x5Z29uIGZpbGw9IiMxODE4MTgiIHBvaW50cz0iMjg0LjUsMTA1Ljg5ODQsMjk0LjUsMTA5Ljg5ODQsMjg0LjUsMTEzLjg5ODQsMjg4LjUsMTA5Ljg5ODQiIHN0eWxlPSJzdHJva2U6IzE4MTgxODtzdHJva2Utd2lkdGg6MTsiLz48bGluZSBzdHlsZT0ic3Ryb2tlOiMxODE4MTg7c3Ryb2tlLXdpZHRoOjE7IiB4MT0iMjUuNSIgeDI9IjI5MC41IiB5MT0iMTA5Ljg5ODQiIHkyPSIxMDkuODk4NCIvPjx0ZXh0IGZpbGw9IiMwMDAwMDAiIGZvbnQtZmFtaWx5PSJzYW5zLXNlcmlmIiBmb250LXNpemU9IjEzIiBsZW5ndGhBZGp1c3Q9InNwYWNpbmciIHRleHRMZW5ndGg9IjMyLjUiIHg9IjMyLjUiIHk9IjEwNi4yNzM0Ij5Mb2dpbjwvdGV4dD48L2c+PGcgY2xhc3M9Im1lc3NhZ2UiIGRhdGEtcGFydGljaXBhbnQtMT0iU2lzd2EiIGRhdGEtcGFydGljaXBhbnQtMj0iVUkiPjxwb2x5Z29uIGZpbGw9IiMxODE4MTgiIHBvaW50cz0iMjg0LjUsMTMzLjgxMjUsMjk0LjUsMTM3LjgxMjUsMjg0LjUsMTQxLjgxMjUsMjg4LjUsMTM3LjgxMjUiIHN0eWxlPSJzdHJva2U6IzE4MTgxODtzdHJva2Utd2lkdGg6MTsiLz48bGluZSBzdHlsZT0ic3Ryb2tlOiMxODE4MTg7c3Ryb2tlLXdpZHRoOjE7IiB4MT0iMjUuNSIgeDI9IjI5MC41IiB5MT0iMTM3LjgxMjUiIHkyPSIxMzcuODEyNSIvPjx0ZXh0IGZpbGw9IiMwMDAwMDAiIGZvbnQtZmFtaWx5PSJzYW5zLXNlcmlmIiBmb250LXNpemU9IjEzIiBsZW5ndGhBZGp1c3Q9InNwYWNpbmciIHRleHRMZW5ndGg9IjEzMCIgeD0iMzIuNSIgeT0iMTM0LjE4NzUiPktsaWsgbWVudSBQZW1iYXlhcmFuPC90ZXh0PjwvZz48ZyBjbGFzcz0ibWVzc2FnZSIgZGF0YS1wYXJ0aWNpcGFudC0xPSJTaXN3YSIgZGF0YS1wYXJ0aWNpcGFudC0yPSJVSSI+PHBvbHlnb24gZmlsbD0iIzE4MTgxOCIgcG9pbnRzPSIyODQuNSwxNjEuNzI2NiwyOTQuNSwxNjUuNzI2NiwyODQuNSwxNjkuNzI2NiwyODguNSwxNjUuNzI2NiIgc3R5bGU9InN0cm9rZTojMTgxODE4O3N0cm9rZS13aWR0aDoxOyIvPjxsaW5lIHN0eWxlPSJzdHJva2U6IzE4MTgxODtzdHJva2Utd2lkdGg6MTsiIHgxPSIyNS41IiB4Mj0iMjkwLjUiIHkxPSIxNjUuNzI2NiIgeTI9IjE2NS43MjY2Ii8+PHRleHQgZmlsbD0iIzAwMDAwMCIgZm9udC1mYW1pbHk9InNhbnMtc2VyaWYiIGZvbnQtc2l6ZT0iMTMiIGxlbmd0aEFkanVzdD0ic3BhY2luZyIgdGV4dExlbmd0aD0iMjQ3IiB4PSIzMi41IiB5PSIxNjIuMTAxNiI+TWFzdWtrYW4gbm9taW5hbCBkYW4gbWV0b2RlIHBlbWJheWFyYW48L3RleHQ+PC9nPjxnIGNsYXNzPSJtZXNzYWdlIiBkYXRhLXBhcnRpY2lwYW50LTE9IlVJIiBkYXRhLXBhcnRpY2lwYW50LTI9IkNvbnRyb2xsZXIiPjxwb2x5Z29uIGZpbGw9IiMxODE4MTgiIHBvaW50cz0iNTIzLDE4OS42NDA2LDUzMywxOTMuNjQwNiw1MjMsMTk3LjY0MDYsNTI3LDE5My42NDA2IiBzdHlsZT0ic3Ryb2tlOiMxODE4MTg7c3Ryb2tlLXdpZHRoOjE7Ii8+PGxpbmUgc3R5bGU9InN0cm9rZTojMTgxODE4O3N0cm9rZS13aWR0aDoxOyIgeDE9IjI5Ni41IiB4Mj0iNTI5IiB5MT0iMTkzLjY0MDYiIHkyPSIxOTMuNjQwNiIvPjx0ZXh0IGZpbGw9IiMwMDAwMDAiIGZvbnQtZmFtaWx5PSJzYW5zLXNlcmlmIiBmb250LXNpemU9IjEzIiBsZW5ndGhBZGp1c3Q9InNwYWNpbmciIHRleHRMZW5ndGg9IjIxNC41IiB4PSIzMDMuNSIgeT0iMTkwLjAxNTYiPnByb3Nlc1BlbWJheWFyYW4obm9taW5hbCwgbWV0b2RlKTwvdGV4dD48L2c+PGcgY2xhc3M9Im1lc3NhZ2UiIGRhdGEtcGFydGljaXBhbnQtMT0iQ29udHJvbGxlciIgZGF0YS1wYXJ0aWNpcGFudC0yPSJFbnRpdHkiPjxwb2x5Z29uIGZpbGw9IiMxODE4MTgiIHBvaW50cz0iNzU1LDIxNy41NTQ3LDc2NSwyMjEuNTU0Nyw3NTUsMjI1LjU1NDcsNzU5LDIyMS41NTQ3IiBzdHlsZT0ic3Ryb2tlOiMxODE4MTg7c3Ryb2tlLXdpZHRoOjE7Ii8+PGxpbmUgc3R5bGU9InN0cm9rZTojMTgxODE4O3N0cm9rZS13aWR0aDoxOyIgeDE9IjUzNSIgeDI9Ijc2MSIgeTE9IjIyMS41NTQ3IiB5Mj0iMjIxLjU1NDciLz48dGV4dCBmaWxsPSIjMDAwMDAwIiBmb250LWZhbWlseT0ic2Fucy1zZXJpZiIgZm9udC1zaXplPSIxMyIgbGVuZ3RoQWRqdXN0PSJzcGFjaW5nIiB0ZXh0TGVuZ3RoPSIyMDgiIHg9IjU0MiIgeT0iMjE3LjkyOTciPnNpbXBhblRyYW5zYWtzaShub21pbmFsLCBtZXRvZGUpPC90ZXh0PjwvZz48ZyBjbGFzcz0ibWVzc2FnZSIgZGF0YS1wYXJ0aWNpcGFudC0xPSJFbnRpdHkiIGRhdGEtcGFydGljaXBhbnQtMj0iQ29udHJvbGxlciI+PHBvbHlnb24gZmlsbD0iIzE4MTgxOCIgcG9pbnRzPSI1NDYsMjQ1LjQ2ODgsNTM2LDI0OS40Njg4LDU0NiwyNTMuNDY4OCw1NDIsMjQ5LjQ2ODgiIHN0eWxlPSJzdHJva2U6IzE4MTgxODtzdHJva2Utd2lkdGg6MTsiLz48bGluZSBzdHlsZT0ic3Ryb2tlOiMxODE4MTg7c3Ryb2tlLXdpZHRoOjE7c3Ryb2tlLWRhc2hhcnJheToyLjAsMi4wOyIgeDE9IjU0MCIgeDI9Ijc2NiIgeTE9IjI0OS40Njg4IiB5Mj0iMjQ5LjQ2ODgiLz48dGV4dCBmaWxsPSIjMDAwMDAwIiBmb250LWZhbWlseT0ic2Fucy1zZXJpZiIgZm9udC1zaXplPSIxMyIgbGVuZ3RoQWRqdXN0PSJzcGFjaW5nIiB0ZXh0TGVuZ3RoPSI2NSIgeD0iNTUyIiB5PSIyNDUuODQzOCI+a29uZmlybWFzaTwvdGV4dD48L2c+PGcgY2xhc3M9Im1lc3NhZ2UiIGRhdGEtcGFydGljaXBhbnQtMT0iQ29udHJvbGxlciIgZGF0YS1wYXJ0aWNpcGFudC0yPSJVSSI+PHBvbHlnb24gZmlsbD0iIzE4MTgxOCIgcG9pbnRzPSIzMDcuNSwyNzMuMzgyOCwyOTcuNSwyNzcuMzgyOCwzMDcuNSwyODEuMzgyOCwzMDMuNSwyNzcuMzgyOCIgc3R5bGU9InN0cm9rZTojMTgxODE4O3N0cm9rZS13aWR0aDoxOyIvPjxsaW5lIHN0eWxlPSJzdHJva2U6IzE4MTgxODtzdHJva2Utd2lkdGg6MTtzdHJva2UtZGFzaGFycmF5OjIuMCwyLjA7IiB4MT0iMzAxLjUiIHgyPSI1MzQiIHkxPSIyNzcuMzgyOCIgeTI9IjI3Ny4zODI4Ii8+PHRleHQgZmlsbD0iIzAwMDAwMCIgZm9udC1mYW1pbHk9InNhbnMtc2VyaWYiIGZvbnQtc2l6ZT0iMTMiIGxlbmd0aEFkanVzdD0ic3BhY2luZyIgdGV4dExlbmd0aD0iMTk1IiB4PSIzMTMuNSIgeT0iMjczLjc1NzgiPnRhbXBpbGthbkluc3RydWtzaVBlbWJheWFyYW4oKTwvdGV4dD48L2c+PCEtLVNSQz1bUE9fMVFpQ20zOFJsVldnSHFtaGoyLUltSW9haVI4TDJybVRHNnd5OHNyQW03NFJWVllCRFM5UlRSRmRfRmxfMk12NENQejlsVDVTUGtTVnlXRVJJak15T0NJNzNvUVNoRlowWkR1MEFieXhUWDRrTTJDcy1oT194dnAzd0ZDTmdyTmFrTENudlE1VWdtX0pXdEZHdng1eEQzSXJ5bzlydUROa0Y1MjF2N1hUakxmNFp3WFkyek1MOW4xWVhqdEZvSE5lRkd1S2lRcUhqUC1JR0hSck15U2ppc0N4dW5ZdFkxWnpoNndZSzFrSEZHbkkzcWR6a0preE1GbVJYQnllOWJWd2VWclNmYzBRQWphbDdNbDlld2FNdnBHeTBdLS0+PC9nPjwvc3ZnPg==;" vertex="1" parent="1">
            <mxGeometry x="-610" y="-860" width="813" height="374" as="geometry" />
          </mxCell>
        </UserObject>
        <UserObject label="" plantUmlData="{&#xa;  &quot;data&quot;: &quot;@startuml\nactor Siswa\nboundary \&quot;UI:Upload Bukti Bayar\&quot; as UI\ncontrol \&quot;C:UploadBuktiController\&quot; as Controller\nentity \&quot;E:BuktiPembayaran\&quot; as Entity\n\nSiswa -&gt; UI : Login\nSiswa -&gt; UI : Pilih menu Upload Bukti Bayar\nSiswa -&gt; UI : Upload file bukti transfer\nUI -&gt; Controller : uploadBukti(file)\nController -&gt; Entity : simpanBukti(file)\nEntity --&gt; Controller : konfirmasi simpan\nController -&gt; UI : tampilkan notifikasi sukses\nController -&gt; \&quot;Admin\&quot; : kirimNotifikasi()\n@enduml\n&quot;,&#xa;  &quot;format&quot;: &quot;svg&quot;&#xa;}" id="f9MgHtHTdjxqu1ZTsrYx-4">
          <mxCell style="shape=image;noLabel=1;verticalAlign=top;aspect=fixed;imageAspect=0;image=data:image/svg+xml,PHN2ZyB4bWxucz0iaHR0cDovL3d3dy53My5vcmcvMjAwMC9zdmciIHhtbG5zOnhsaW5rPSJodHRwOi8vd3d3LnczLm9yZy8xOTk5L3hsaW5rIiBjb250ZW50U3R5bGVUeXBlPSJ0ZXh0L2NzcyIgZGF0YS1kaWFncmFtLXR5cGU9IlNFUVVFTkNFIiBoZWlnaHQ9IjQwMnB4IiBwcmVzZXJ2ZUFzcGVjdFJhdGlvPSJub25lIiBzdHlsZT0id2lkdGg6NzIxcHg7aGVpZ2h0OjQwMnB4O2JhY2tncm91bmQ6I0ZGRkZGRjsiIHZlcnNpb249IjEuMSIgdmlld0JveD0iMCAwIDcyMSA0MDIiIHdpZHRoPSI3MjFweCIgem9vbUFuZFBhbj0ibWFnbmlmeSI+PGRlZnMvPjxnPjxnPjx0aXRsZT5TaXN3YTwvdGl0bGU+PHJlY3QgZmlsbD0iIzAwMDAwMCIgZmlsbC1vcGFjaXR5PSIwLjAwMDAwIiBoZWlnaHQ9IjI0My4zMTI1IiB3aWR0aD0iOCIgeD0iMjEuNSIgeT0iNzkuOTg0NCIvPjxsaW5lIHN0eWxlPSJzdHJva2U6IzE4MTgxODtzdHJva2Utd2lkdGg6MC41O3N0cm9rZS1kYXNoYXJyYXk6NS4wLDUuMDsiIHgxPSIyNSIgeDI9IjI1IiB5MT0iNzkuOTg0NCIgeTI9IjMyMy4yOTY5Ii8+PC9nPjxnPjx0aXRsZT5VSTpVcGxvYWQgQnVrdGkgQmF5YXI8L3RpdGxlPjxyZWN0IGZpbGw9IiMwMDAwMDAiIGZpbGwtb3BhY2l0eT0iMC4wMDAwMCIgaGVpZ2h0PSIyNDMuMzEyNSIgd2lkdGg9IjgiIHg9IjIzNCIgeT0iNzkuOTg0NCIvPjxsaW5lIHN0eWxlPSJzdHJva2U6IzE4MTgxODtzdHJva2Utd2lkdGg6MC41O3N0cm9rZS1kYXNoYXJyYXk6NS4wLDUuMDsiIHgxPSIyMzcuNSIgeDI9IjIzNy41IiB5MT0iNzkuOTg0NCIgeTI9IjMyMy4yOTY5Ii8+PC9nPjxnPjx0aXRsZT5DOlVwbG9hZEJ1a3RpQ29udHJvbGxlcjwvdGl0bGU+PHJlY3QgZmlsbD0iIzAwMDAwMCIgZmlsbC1vcGFjaXR5PSIwLjAwMDAwIiBoZWlnaHQ9IjI0My4zMTI1IiB3aWR0aD0iOCIgeD0iNDMzLjUiIHk9Ijc5Ljk4NDQiLz48bGluZSBzdHlsZT0ic3Ryb2tlOiMxODE4MTg7c3Ryb2tlLXdpZHRoOjAuNTtzdHJva2UtZGFzaGFycmF5OjUuMCw1LjA7IiB4MT0iNDM3IiB4Mj0iNDM3IiB5MT0iNzkuOTg0NCIgeTI9IjMyMy4yOTY5Ii8+PC9nPjxnPjx0aXRsZT5FOkJ1a3RpUGVtYmF5YXJhbjwvdGl0bGU+PHJlY3QgZmlsbD0iIzAwMDAwMCIgZmlsbC1vcGFjaXR5PSIwLjAwMDAwIiBoZWlnaHQ9IjI0My4zMTI1IiB3aWR0aD0iOCIgeD0iNTg5LjUiIHk9Ijc5Ljk4NDQiLz48bGluZSBzdHlsZT0ic3Ryb2tlOiMxODE4MTg7c3Ryb2tlLXdpZHRoOjAuNTtzdHJva2UtZGFzaGFycmF5OjUuMCw1LjA7IiB4MT0iNTkzIiB4Mj0iNTkzIiB5MT0iNzkuOTg0NCIgeTI9IjMyMy4yOTY5Ii8+PC9nPjxnPjx0aXRsZT5BZG1pbjwvdGl0bGU+PHJlY3QgZmlsbD0iIzAwMDAwMCIgZmlsbC1vcGFjaXR5PSIwLjAwMDAwIiBoZWlnaHQ9IjI0My4zMTI1IiB3aWR0aD0iOCIgeD0iNjg2LjUiIHk9Ijc5Ljk4NDQiLz48bGluZSBzdHlsZT0ic3Ryb2tlOiMxODE4MTg7c3Ryb2tlLXdpZHRoOjAuNTtzdHJva2UtZGFzaGFycmF5OjUuMCw1LjA7IiB4MT0iNjkwIiB4Mj0iNjkwIiB5MT0iNzkuOTg0NCIgeTI9IjMyMy4yOTY5Ii8+PC9nPjxnIGNsYXNzPSJwYXJ0aWNpcGFudCBwYXJ0aWNpcGFudC1oZWFkIiBkYXRhLXBhcnRpY2lwYW50PSJTaXN3YSI+PHRleHQgZmlsbD0iIzAwMDAwMCIgZm9udC1mYW1pbHk9InNhbnMtc2VyaWYiIGZvbnQtc2l6ZT0iMTQiIGxlbmd0aEFkanVzdD0ic3BhY2luZyIgdGV4dExlbmd0aD0iMzUiIHg9IjUiIHk9Ijc4LjIzNDQiPlNpc3dhPC90ZXh0PjxlbGxpcHNlIGN4PSIyNS41IiBjeT0iMTMuNSIgZmlsbD0iI0UyRTJGMCIgcng9IjgiIHJ5PSI4IiBzdHlsZT0ic3Ryb2tlOiMxODE4MTg7c3Ryb2tlLXdpZHRoOjAuNTsiLz48cGF0aCBkPSJNMjUuNSwyMS41IEwyNS41LDQ4LjUgTTEyLjUsMjkuNSBMMzguNSwyOS41IE0yNS41LDQ4LjUgTDEyLjUsNjMuNSBNMjUuNSw0OC41IEwzOC41LDYzLjUiIGZpbGw9Im5vbmUiIHN0eWxlPSJzdHJva2U6IzE4MTgxODtzdHJva2Utd2lkdGg6MC41OyIvPjwvZz48ZyBjbGFzcz0icGFydGljaXBhbnQgcGFydGljaXBhbnQtdGFpbCIgZGF0YS1wYXJ0aWNpcGFudD0iU2lzd2EiPjx0ZXh0IGZpbGw9IiMwMDAwMDAiIGZvbnQtZmFtaWx5PSJzYW5zLXNlcmlmIiBmb250LXNpemU9IjE0IiBsZW5ndGhBZGp1c3Q9InNwYWNpbmciIHRleHRMZW5ndGg9IjM1IiB4PSI1IiB5PSIzMzUuNTMxMyI+U2lzd2E8L3RleHQ+PGVsbGlwc2UgY3g9IjI1LjUiIGN5PSIzNDUuNzgxMyIgZmlsbD0iI0UyRTJGMCIgcng9IjgiIHJ5PSI4IiBzdHlsZT0ic3Ryb2tlOiMxODE4MTg7c3Ryb2tlLXdpZHRoOjAuNTsiLz48cGF0aCBkPSJNMjUuNSwzNTMuNzgxMyBMMjUuNSwzODAuNzgxMyBNMTIuNSwzNjEuNzgxMyBMMzguNSwzNjEuNzgxMyBNMjUuNSwzODAuNzgxMyBMMTIuNSwzOTUuNzgxMyBNMjUuNSwzODAuNzgxMyBMMzguNSwzOTUuNzgxMyIgZmlsbD0ibm9uZSIgc3R5bGU9InN0cm9rZTojMTgxODE4O3N0cm9rZS13aWR0aDowLjU7Ii8+PC9nPjxnIGNsYXNzPSJwYXJ0aWNpcGFudCBwYXJ0aWNpcGFudC1oZWFkIiBkYXRhLXBhcnRpY2lwYW50PSJVSSI+PHRleHQgZmlsbD0iIzAwMDAwMCIgZm9udC1mYW1pbHk9InNhbnMtc2VyaWYiIGZvbnQtc2l6ZT0iMTQiIGxlbmd0aEFkanVzdD0ic3BhY2luZyIgdGV4dExlbmd0aD0iMTQ3IiB4PSIxNjEuNSIgeT0iNzguMjM0NCI+VUk6VXBsb2FkIEJ1a3RpIEJheWFyPC90ZXh0PjxwYXRoIGQ9Ik0yMTcuNSwzNyBMMjE3LjUsNjEgTTIxNy41LDQ5IEwyMzQuNSw0OSIgZmlsbD0ibm9uZSIgc3R5bGU9InN0cm9rZTojMTgxODE4O3N0cm9rZS13aWR0aDowLjU7Ii8+PGVsbGlwc2UgY3g9IjI0Ni41IiBjeT0iNDkiIGZpbGw9IiNFMkUyRjAiIHJ4PSIxMiIgcnk9IjEyIiBzdHlsZT0ic3Ryb2tlOiMxODE4MTg7c3Ryb2tlLXdpZHRoOjAuNTsiLz48L2c+PGcgY2xhc3M9InBhcnRpY2lwYW50IHBhcnRpY2lwYW50LXRhaWwiIGRhdGEtcGFydGljaXBhbnQ9IlVJIj48dGV4dCBmaWxsPSIjMDAwMDAwIiBmb250LWZhbWlseT0ic2Fucy1zZXJpZiIgZm9udC1zaXplPSIxNCIgbGVuZ3RoQWRqdXN0PSJzcGFjaW5nIiB0ZXh0TGVuZ3RoPSIxNDciIHg9IjE2MS41IiB5PSIzMzUuNTMxMyI+VUk6VXBsb2FkIEJ1a3RpIEJheWFyPC90ZXh0PjxwYXRoIGQ9Ik0yMTcuNSwzNDEuMjgxMyBMMjE3LjUsMzY1LjI4MTMgTTIxNy41LDM1My4yODEzIEwyMzQuNSwzNTMuMjgxMyIgZmlsbD0ibm9uZSIgc3R5bGU9InN0cm9rZTojMTgxODE4O3N0cm9rZS13aWR0aDowLjU7Ii8+PGVsbGlwc2UgY3g9IjI0Ni41IiBjeT0iMzUzLjI4MTMiIGZpbGw9IiNFMkUyRjAiIHJ4PSIxMiIgcnk9IjEyIiBzdHlsZT0ic3Ryb2tlOiMxODE4MTg7c3Ryb2tlLXdpZHRoOjAuNTsiLz48L2c+PGcgY2xhc3M9InBhcnRpY2lwYW50IHBhcnRpY2lwYW50LWhlYWQiIGRhdGEtcGFydGljaXBhbnQ9IkNvbnRyb2xsZXIiPjx0ZXh0IGZpbGw9IiMwMDAwMDAiIGZvbnQtZmFtaWx5PSJzYW5zLXNlcmlmIiBmb250LXNpemU9IjE0IiBsZW5ndGhBZGp1c3Q9InNwYWNpbmciIHRleHRMZW5ndGg9IjE2MSIgeD0iMzU0IiB5PSI3OC4yMzQ0Ij5DOlVwbG9hZEJ1a3RpQ29udHJvbGxlcjwvdGV4dD48ZWxsaXBzZSBjeD0iNDM3LjUiIGN5PSI0OSIgZmlsbD0iI0UyRTJGMCIgcng9IjEyIiByeT0iMTIiIHN0eWxlPSJzdHJva2U6IzE4MTgxODtzdHJva2Utd2lkdGg6MC41OyIvPjxwb2x5Z29uIGZpbGw9IiMxODE4MTgiIHBvaW50cz0iNDMzLjUsMzcsNDM5LjUsMzIsNDM3LjUsMzcsNDM5LjUsNDIsNDMzLjUsMzciIHN0eWxlPSJzdHJva2U6IzE4MTgxODtzdHJva2Utd2lkdGg6MTsiLz48L2c+PGcgY2xhc3M9InBhcnRpY2lwYW50IHBhcnRpY2lwYW50LXRhaWwiIGRhdGEtcGFydGljaXBhbnQ9IkNvbnRyb2xsZXIiPjx0ZXh0IGZpbGw9IiMwMDAwMDAiIGZvbnQtZmFtaWx5PSJzYW5zLXNlcmlmIiBmb250LXNpemU9IjE0IiBsZW5ndGhBZGp1c3Q9InNwYWNpbmciIHRleHRMZW5ndGg9IjE2MSIgeD0iMzU0IiB5PSIzMzUuNTMxMyI+QzpVcGxvYWRCdWt0aUNvbnRyb2xsZXI8L3RleHQ+PGVsbGlwc2UgY3g9IjQzNy41IiBjeT0iMzUzLjI4MTMiIGZpbGw9IiNFMkUyRjAiIHJ4PSIxMiIgcnk9IjEyIiBzdHlsZT0ic3Ryb2tlOiMxODE4MTg7c3Ryb2tlLXdpZHRoOjAuNTsiLz48cG9seWdvbiBmaWxsPSIjMTgxODE4IiBwb2ludHM9IjQzMy41LDM0MS4yODEzLDQzOS41LDMzNi4yODEzLDQzNy41LDM0MS4yODEzLDQzOS41LDM0Ni4yODEzLDQzMy41LDM0MS4yODEzIiBzdHlsZT0ic3Ryb2tlOiMxODE4MTg7c3Ryb2tlLXdpZHRoOjE7Ii8+PC9nPjxnIGNsYXNzPSJwYXJ0aWNpcGFudCBwYXJ0aWNpcGFudC1oZWFkIiBkYXRhLXBhcnRpY2lwYW50PSJFbnRpdHkiPjx0ZXh0IGZpbGw9IiMwMDAwMDAiIGZvbnQtZmFtaWx5PSJzYW5zLXNlcmlmIiBmb250LXNpemU9IjE0IiBsZW5ndGhBZGp1c3Q9InNwYWNpbmciIHRleHRMZW5ndGg9IjExOSIgeD0iNTMxIiB5PSI3OC4yMzQ0Ij5FOkJ1a3RpUGVtYmF5YXJhbjwvdGV4dD48ZWxsaXBzZSBjeD0iNTkzLjUiIGN5PSI0OSIgZmlsbD0iI0UyRTJGMCIgcng9IjEyIiByeT0iMTIiIHN0eWxlPSJzdHJva2U6IzE4MTgxODtzdHJva2Utd2lkdGg6MC41OyIvPjxsaW5lIHN0eWxlPSJzdHJva2U6IzE4MTgxODtzdHJva2Utd2lkdGg6MC41OyIgeDE9IjU4MS41IiB4Mj0iNjA1LjUiIHkxPSI2MyIgeTI9IjYzIi8+PC9nPjxnIGNsYXNzPSJwYXJ0aWNpcGFudCBwYXJ0aWNpcGFudC10YWlsIiBkYXRhLXBhcnRpY2lwYW50PSJFbnRpdHkiPjx0ZXh0IGZpbGw9IiMwMDAwMDAiIGZvbnQtZmFtaWx5PSJzYW5zLXNlcmlmIiBmb250LXNpemU9IjE0IiBsZW5ndGhBZGp1c3Q9InNwYWNpbmciIHRleHRMZW5ndGg9IjExOSIgeD0iNTMxIiB5PSIzMzUuNTMxMyI+RTpCdWt0aVBlbWJheWFyYW48L3RleHQ+PGVsbGlwc2UgY3g9IjU5My41IiBjeT0iMzUzLjI4MTMiIGZpbGw9IiNFMkUyRjAiIHJ4PSIxMiIgcnk9IjEyIiBzdHlsZT0ic3Ryb2tlOiMxODE4MTg7c3Ryb2tlLXdpZHRoOjAuNTsiLz48bGluZSBzdHlsZT0ic3Ryb2tlOiMxODE4MTg7c3Ryb2tlLXdpZHRoOjAuNTsiIHgxPSI1ODEuNSIgeDI9IjYwNS41IiB5MT0iMzY3LjI4MTMiIHkyPSIzNjcuMjgxMyIvPjwvZz48ZyBjbGFzcz0icGFydGljaXBhbnQgcGFydGljaXBhbnQtaGVhZCIgZGF0YS1wYXJ0aWNpcGFudD0iQWRtaW4iPjxyZWN0IGZpbGw9IiNFMkUyRjAiIGhlaWdodD0iMjguOTg0NCIgcng9IjIuNSIgcnk9IjIuNSIgc3R5bGU9InN0cm9rZTojMTgxODE4O3N0cm9rZS13aWR0aDowLjU7IiB3aWR0aD0iNDkiIHg9IjY2NiIgeT0iNTAiLz48dGV4dCBmaWxsPSIjMDAwMDAwIiBmb250LWZhbWlseT0ic2Fucy1zZXJpZiIgZm9udC1zaXplPSIxNCIgbGVuZ3RoQWRqdXN0PSJzcGFjaW5nIiB0ZXh0TGVuZ3RoPSIzNSIgeD0iNjczIiB5PSI3MC4yMzQ0Ij5BZG1pbjwvdGV4dD48L2c+PGcgY2xhc3M9InBhcnRpY2lwYW50IHBhcnRpY2lwYW50LXRhaWwiIGRhdGEtcGFydGljaXBhbnQ9IkFkbWluIj48cmVjdCBmaWxsPSIjRTJFMkYwIiBoZWlnaHQ9IjI4Ljk4NDQiIHJ4PSIyLjUiIHJ5PSIyLjUiIHN0eWxlPSJzdHJva2U6IzE4MTgxODtzdHJva2Utd2lkdGg6MC41OyIgd2lkdGg9IjQ5IiB4PSI2NjYiIHk9IjMyMi4yOTY5Ii8+PHRleHQgZmlsbD0iIzAwMDAwMCIgZm9udC1mYW1pbHk9InNhbnMtc2VyaWYiIGZvbnQtc2l6ZT0iMTQiIGxlbmd0aEFkanVzdD0ic3BhY2luZyIgdGV4dExlbmd0aD0iMzUiIHg9IjY3MyIgeT0iMzQyLjUzMTMiPkFkbWluPC90ZXh0PjwvZz48ZyBjbGFzcz0ibWVzc2FnZSIgZGF0YS1wYXJ0aWNpcGFudC0xPSJTaXN3YSIgZGF0YS1wYXJ0aWNpcGFudC0yPSJVSSI+PHBvbHlnb24gZmlsbD0iIzE4MTgxOCIgcG9pbnRzPSIyMjYsMTA1Ljg5ODQsMjM2LDEwOS44OTg0LDIyNiwxMTMuODk4NCwyMzAsMTA5Ljg5ODQiIHN0eWxlPSJzdHJva2U6IzE4MTgxODtzdHJva2Utd2lkdGg6MTsiLz48bGluZSBzdHlsZT0ic3Ryb2tlOiMxODE4MTg7c3Ryb2tlLXdpZHRoOjE7IiB4MT0iMjUuNSIgeDI9IjIzMiIgeTE9IjEwOS44OTg0IiB5Mj0iMTA5Ljg5ODQiLz48dGV4dCBmaWxsPSIjMDAwMDAwIiBmb250LWZhbWlseT0ic2Fucy1zZXJpZiIgZm9udC1zaXplPSIxMyIgbGVuZ3RoQWRqdXN0PSJzcGFjaW5nIiB0ZXh0TGVuZ3RoPSIzMi41IiB4PSIzMi41IiB5PSIxMDYuMjczNCI+TG9naW48L3RleHQ+PC9nPjxnIGNsYXNzPSJtZXNzYWdlIiBkYXRhLXBhcnRpY2lwYW50LTE9IlNpc3dhIiBkYXRhLXBhcnRpY2lwYW50LTI9IlVJIj48cG9seWdvbiBmaWxsPSIjMTgxODE4IiBwb2ludHM9IjIyNiwxMzMuODEyNSwyMzYsMTM3LjgxMjUsMjI2LDE0MS44MTI1LDIzMCwxMzcuODEyNSIgc3R5bGU9InN0cm9rZTojMTgxODE4O3N0cm9rZS13aWR0aDoxOyIvPjxsaW5lIHN0eWxlPSJzdHJva2U6IzE4MTgxODtzdHJva2Utd2lkdGg6MTsiIHgxPSIyNS41IiB4Mj0iMjMyIiB5MT0iMTM3LjgxMjUiIHkyPSIxMzcuODEyNSIvPjx0ZXh0IGZpbGw9IiMwMDAwMDAiIGZvbnQtZmFtaWx5PSJzYW5zLXNlcmlmIiBmb250LXNpemU9IjEzIiBsZW5ndGhBZGp1c3Q9InNwYWNpbmciIHRleHRMZW5ndGg9IjE4OC41IiB4PSIzMi41IiB5PSIxMzQuMTg3NSI+UGlsaWggbWVudSBVcGxvYWQgQnVrdGkgQmF5YXI8L3RleHQ+PC9nPjxnIGNsYXNzPSJtZXNzYWdlIiBkYXRhLXBhcnRpY2lwYW50LTE9IlNpc3dhIiBkYXRhLXBhcnRpY2lwYW50LTI9IlVJIj48cG9seWdvbiBmaWxsPSIjMTgxODE4IiBwb2ludHM9IjIyNiwxNjEuNzI2NiwyMzYsMTY1LjcyNjYsMjI2LDE2OS43MjY2LDIzMCwxNjUuNzI2NiIgc3R5bGU9InN0cm9rZTojMTgxODE4O3N0cm9rZS13aWR0aDoxOyIvPjxsaW5lIHN0eWxlPSJzdHJva2U6IzE4MTgxODtzdHJva2Utd2lkdGg6MTsiIHgxPSIyNS41IiB4Mj0iMjMyIiB5MT0iMTY1LjcyNjYiIHkyPSIxNjUuNzI2NiIvPjx0ZXh0IGZpbGw9IiMwMDAwMDAiIGZvbnQtZmFtaWx5PSJzYW5zLXNlcmlmIiBmb250LXNpemU9IjEzIiBsZW5ndGhBZGp1c3Q9InNwYWNpbmciIHRleHRMZW5ndGg9IjE2OSIgeD0iMzIuNSIgeT0iMTYyLjEwMTYiPlVwbG9hZCBmaWxlIGJ1a3RpIHRyYW5zZmVyPC90ZXh0PjwvZz48ZyBjbGFzcz0ibWVzc2FnZSIgZGF0YS1wYXJ0aWNpcGFudC0xPSJVSSIgZGF0YS1wYXJ0aWNpcGFudC0yPSJDb250cm9sbGVyIj48cG9seWdvbiBmaWxsPSIjMTgxODE4IiBwb2ludHM9IjQyNS41LDE4OS42NDA2LDQzNS41LDE5My42NDA2LDQyNS41LDE5Ny42NDA2LDQyOS41LDE5My42NDA2IiBzdHlsZT0ic3Ryb2tlOiMxODE4MTg7c3Ryb2tlLXdpZHRoOjE7Ii8+PGxpbmUgc3R5bGU9InN0cm9rZTojMTgxODE4O3N0cm9rZS13aWR0aDoxOyIgeDE9IjIzOCIgeDI9IjQzMS41IiB5MT0iMTkzLjY0MDYiIHkyPSIxOTMuNjQwNiIvPjx0ZXh0IGZpbGw9IiMwMDAwMDAiIGZvbnQtZmFtaWx5PSJzYW5zLXNlcmlmIiBmb250LXNpemU9IjEzIiBsZW5ndGhBZGp1c3Q9InNwYWNpbmciIHRleHRMZW5ndGg9IjExMC41IiB4PSIyNDUiIHk9IjE5MC4wMTU2Ij51cGxvYWRCdWt0aShmaWxlKTwvdGV4dD48L2c+PGcgY2xhc3M9Im1lc3NhZ2UiIGRhdGEtcGFydGljaXBhbnQtMT0iQ29udHJvbGxlciIgZGF0YS1wYXJ0aWNpcGFudC0yPSJFbnRpdHkiPjxwb2x5Z29uIGZpbGw9IiMxODE4MTgiIHBvaW50cz0iNTgxLjUsMjE3LjU1NDcsNTkxLjUsMjIxLjU1NDcsNTgxLjUsMjI1LjU1NDcsNTg1LjUsMjIxLjU1NDciIHN0eWxlPSJzdHJva2U6IzE4MTgxODtzdHJva2Utd2lkdGg6MTsiLz48bGluZSBzdHlsZT0ic3Ryb2tlOiMxODE4MTg7c3Ryb2tlLXdpZHRoOjE7IiB4MT0iNDM3LjUiIHgyPSI1ODcuNSIgeTE9IjIyMS41NTQ3IiB5Mj0iMjIxLjU1NDciLz48dGV4dCBmaWxsPSIjMDAwMDAwIiBmb250LWZhbWlseT0ic2Fucy1zZXJpZiIgZm9udC1zaXplPSIxMyIgbGVuZ3RoQWRqdXN0PSJzcGFjaW5nIiB0ZXh0TGVuZ3RoPSIxMTAuNSIgeD0iNDQ0LjUiIHk9IjIxNy45Mjk3Ij5zaW1wYW5CdWt0aShmaWxlKTwvdGV4dD48L2c+PGcgY2xhc3M9Im1lc3NhZ2UiIGRhdGEtcGFydGljaXBhbnQtMT0iRW50aXR5IiBkYXRhLXBhcnRpY2lwYW50LTI9IkNvbnRyb2xsZXIiPjxwb2x5Z29uIGZpbGw9IiMxODE4MTgiIHBvaW50cz0iNDQ4LjUsMjQ1LjQ2ODgsNDM4LjUsMjQ5LjQ2ODgsNDQ4LjUsMjUzLjQ2ODgsNDQ0LjUsMjQ5LjQ2ODgiIHN0eWxlPSJzdHJva2U6IzE4MTgxODtzdHJva2Utd2lkdGg6MTsiLz48bGluZSBzdHlsZT0ic3Ryb2tlOiMxODE4MTg7c3Ryb2tlLXdpZHRoOjE7c3Ryb2tlLWRhc2hhcnJheToyLjAsMi4wOyIgeDE9IjQ0Mi41IiB4Mj0iNTkyLjUiIHkxPSIyNDkuNDY4OCIgeTI9IjI0OS40Njg4Ii8+PHRleHQgZmlsbD0iIzAwMDAwMCIgZm9udC1mYW1pbHk9InNhbnMtc2VyaWYiIGZvbnQtc2l6ZT0iMTMiIGxlbmd0aEFkanVzdD0ic3BhY2luZyIgdGV4dExlbmd0aD0iMTEwLjUiIHg9IjQ1NC41IiB5PSIyNDUuODQzOCI+a29uZmlybWFzaSBzaW1wYW48L3RleHQ+PC9nPjxnIGNsYXNzPSJtZXNzYWdlIiBkYXRhLXBhcnRpY2lwYW50LTE9IkNvbnRyb2xsZXIiIGRhdGEtcGFydGljaXBhbnQtMj0iVUkiPjxwb2x5Z29uIGZpbGw9IiMxODE4MTgiIHBvaW50cz0iMjQ5LDI3My4zODI4LDIzOSwyNzcuMzgyOCwyNDksMjgxLjM4MjgsMjQ1LDI3Ny4zODI4IiBzdHlsZT0ic3Ryb2tlOiMxODE4MTg7c3Ryb2tlLXdpZHRoOjE7Ii8+PGxpbmUgc3R5bGU9InN0cm9rZTojMTgxODE4O3N0cm9rZS13aWR0aDoxOyIgeDE9IjI0MyIgeDI9IjQzNi41IiB5MT0iMjc3LjM4MjgiIHkyPSIyNzcuMzgyOCIvPjx0ZXh0IGZpbGw9IiMwMDAwMDAiIGZvbnQtZmFtaWx5PSJzYW5zLXNlcmlmIiBmb250LXNpemU9IjEzIiBsZW5ndGhBZGp1c3Q9InNwYWNpbmciIHRleHRMZW5ndGg9IjE3NS41IiB4PSIyNTUiIHk9IjI3My43NTc4Ij50YW1waWxrYW4gbm90aWZpa2FzaSBzdWtzZXM8L3RleHQ+PC9nPjxnIGNsYXNzPSJtZXNzYWdlIiBkYXRhLXBhcnRpY2lwYW50LTE9IkNvbnRyb2xsZXIiIGRhdGEtcGFydGljaXBhbnQtMj0iQWRtaW4iPjxwb2x5Z29uIGZpbGw9IiMxODE4MTgiIHBvaW50cz0iNjc4LjUsMzAxLjI5NjksNjg4LjUsMzA1LjI5NjksNjc4LjUsMzA5LjI5NjksNjgyLjUsMzA1LjI5NjkiIHN0eWxlPSJzdHJva2U6IzE4MTgxODtzdHJva2Utd2lkdGg6MTsiLz48bGluZSBzdHlsZT0ic3Ryb2tlOiMxODE4MTg7c3Ryb2tlLXdpZHRoOjE7IiB4MT0iNDM3LjUiIHgyPSI2ODQuNSIgeTE9IjMwNS4yOTY5IiB5Mj0iMzA1LjI5NjkiLz48dGV4dCBmaWxsPSIjMDAwMDAwIiBmb250LWZhbWlseT0ic2Fucy1zZXJpZiIgZm9udC1zaXplPSIxMyIgbGVuZ3RoQWRqdXN0PSJzcGFjaW5nIiB0ZXh0TGVuZ3RoPSIxMTAuNSIgeD0iNDQ0LjUiIHk9IjMwMS42NzE5Ij5raXJpbU5vdGlmaWthc2koKTwvdGV4dD48L2c+PCEtLVNSQz1bUFQzRllpOG00MFJtVXZ2WXc0YUZsYTBGbVllVTExNTEtVzFKYy11RUlJT2JWbjNWVmlVcVIyTHhKRVFOQnItMlotRzN0MmEtS1ZLLXl1M1gxS3J0UmhsOVVYcFdhNHFZRUUwQkdtQ09lSmtoWC1TS2w4TmNrQTFZWmxFa3JSRFJicWZwZVlJWGZ4UjBjdFJ6RW13dm01RVBBYktnbTZ1bERxMEI1X3pETkV0VG9EOEZFQ3FQX2ZVaHgwOTZpWGh3ZWY5UzY0VWY4dERIUXBfSFVOdDZ2ZHJhZ3B4NldrVUUwWUV2MlZhSkJnRFQ3TWF5Wm5HU0hiZUVMUDZiUEs4dGFKTjhtM3hISUFSbVJBQUU1TS0gLTFhVm9PSDlDV1RwclpzLXNsbTAwXS0tPjwvZz48L3N2Zz4=;" vertex="1" parent="1">
            <mxGeometry x="270" y="-888" width="721" height="402" as="geometry" />
          </mxCell>
        </UserObject>
        <UserObject label="" plantUmlData="{&#xa;  &quot;data&quot;: &quot;@startuml\nactor Siswa\nboundary \&quot;UI:Cetak Bukti Pembayaran\&quot; as UI\ncontrol \&quot;C:BuktiPembayaranController\&quot; as Controller\nentity \&quot;E:Pembayaran\&quot; as Entity\n\nSiswa -&gt; UI : Login\nSiswa -&gt; UI : Pilih menu Cetak Bukti Pembayaran\nUI -&gt; Controller : mintaBuktiPembayaran()\nController -&gt; Entity : getDataPembayaran()\nEntity --&gt; Controller : dataPembayaran\nController --&gt; UI : tampilkanBuktiPDF()\n@enduml\n&quot;,&#xa;  &quot;format&quot;: &quot;svg&quot;&#xa;}" id="f9MgHtHTdjxqu1ZTsrYx-5">
          <mxCell style="shape=image;noLabel=1;verticalAlign=top;aspect=fixed;imageAspect=0;image=data:image/svg+xml,PHN2ZyB4bWxucz0iaHR0cDovL3d3dy53My5vcmcvMjAwMC9zdmciIHhtbG5zOnhsaW5rPSJodHRwOi8vd3d3LnczLm9yZy8xOTk5L3hsaW5rIiBjb250ZW50U3R5bGVUeXBlPSJ0ZXh0L2NzcyIgZGF0YS1kaWFncmFtLXR5cGU9IlNFUVVFTkNFIiBoZWlnaHQ9IjM0NnB4IiBwcmVzZXJ2ZUFzcGVjdFJhdGlvPSJub25lIiBzdHlsZT0id2lkdGg6NjYwcHg7aGVpZ2h0OjM0NnB4O2JhY2tncm91bmQ6I0ZGRkZGRjsiIHZlcnNpb249IjEuMSIgdmlld0JveD0iMCAwIDY2MCAzNDYiIHdpZHRoPSI2NjBweCIgem9vbUFuZFBhbj0ibWFnbmlmeSI+PGRlZnMvPjxnPjxnPjx0aXRsZT5TaXN3YTwvdGl0bGU+PHJlY3QgZmlsbD0iIzAwMDAwMCIgZmlsbC1vcGFjaXR5PSIwLjAwMDAwIiBoZWlnaHQ9IjE4Ny40ODQ0IiB3aWR0aD0iOCIgeD0iMjEuNSIgeT0iNzkuOTg0NCIvPjxsaW5lIHN0eWxlPSJzdHJva2U6IzE4MTgxODtzdHJva2Utd2lkdGg6MC41O3N0cm9rZS1kYXNoYXJyYXk6NS4wLDUuMDsiIHgxPSIyNSIgeDI9IjI1IiB5MT0iNzkuOTg0NCIgeTI9IjI2Ny40Njg4Ii8+PC9nPjxnPjx0aXRsZT5VSTpDZXRhayBCdWt0aSBQZW1iYXlhcmFuPC90aXRsZT48cmVjdCBmaWxsPSIjMDAwMDAwIiBmaWxsLW9wYWNpdHk9IjAuMDAwMDAiIGhlaWdodD0iMTg3LjQ4NDQiIHdpZHRoPSI4IiB4PSIyNjAiIHk9Ijc5Ljk4NDQiLz48bGluZSBzdHlsZT0ic3Ryb2tlOiMxODE4MTg7c3Ryb2tlLXdpZHRoOjAuNTtzdHJva2UtZGFzaGFycmF5OjUuMCw1LjA7IiB4MT0iMjYzLjUiIHgyPSIyNjMuNSIgeTE9Ijc5Ljk4NDQiIHkyPSIyNjcuNDY4OCIvPjwvZz48Zz48dGl0bGU+QzpCdWt0aVBlbWJheWFyYW5Db250cm9sbGVyPC90aXRsZT48cmVjdCBmaWxsPSIjMDAwMDAwIiBmaWxsLW9wYWNpdHk9IjAuMDAwMDAiIGhlaWdodD0iMTg3LjQ4NDQiIHdpZHRoPSI4IiB4PSI0NTgiIHk9Ijc5Ljk4NDQiLz48bGluZSBzdHlsZT0ic3Ryb2tlOiMxODE4MTg7c3Ryb2tlLXdpZHRoOjAuNTtzdHJva2UtZGFzaGFycmF5OjUuMCw1LjA7IiB4MT0iNDYxLjUiIHgyPSI0NjEuNSIgeTE9Ijc5Ljk4NDQiIHkyPSIyNjcuNDY4OCIvPjwvZz48Zz48dGl0bGU+RTpQZW1iYXlhcmFuPC90aXRsZT48cmVjdCBmaWxsPSIjMDAwMDAwIiBmaWxsLW9wYWNpdHk9IjAuMDAwMDAiIGhlaWdodD0iMTg3LjQ4NDQiIHdpZHRoPSI4IiB4PSI2MTAuNSIgeT0iNzkuOTg0NCIvPjxsaW5lIHN0eWxlPSJzdHJva2U6IzE4MTgxODtzdHJva2Utd2lkdGg6MC41O3N0cm9rZS1kYXNoYXJyYXk6NS4wLDUuMDsiIHgxPSI2MTQuNSIgeDI9IjYxNC41IiB5MT0iNzkuOTg0NCIgeTI9IjI2Ny40Njg4Ii8+PC9nPjxnIGNsYXNzPSJwYXJ0aWNpcGFudCBwYXJ0aWNpcGFudC1oZWFkIiBkYXRhLXBhcnRpY2lwYW50PSJTaXN3YSI+PHRleHQgZmlsbD0iIzAwMDAwMCIgZm9udC1mYW1pbHk9InNhbnMtc2VyaWYiIGZvbnQtc2l6ZT0iMTQiIGxlbmd0aEFkanVzdD0ic3BhY2luZyIgdGV4dExlbmd0aD0iMzUiIHg9IjUiIHk9Ijc4LjIzNDQiPlNpc3dhPC90ZXh0PjxlbGxpcHNlIGN4PSIyNS41IiBjeT0iMTMuNSIgZmlsbD0iI0UyRTJGMCIgcng9IjgiIHJ5PSI4IiBzdHlsZT0ic3Ryb2tlOiMxODE4MTg7c3Ryb2tlLXdpZHRoOjAuNTsiLz48cGF0aCBkPSJNMjUuNSwyMS41IEwyNS41LDQ4LjUgTTEyLjUsMjkuNSBMMzguNSwyOS41IE0yNS41LDQ4LjUgTDEyLjUsNjMuNSBNMjUuNSw0OC41IEwzOC41LDYzLjUiIGZpbGw9Im5vbmUiIHN0eWxlPSJzdHJva2U6IzE4MTgxODtzdHJva2Utd2lkdGg6MC41OyIvPjwvZz48ZyBjbGFzcz0icGFydGljaXBhbnQgcGFydGljaXBhbnQtdGFpbCIgZGF0YS1wYXJ0aWNpcGFudD0iU2lzd2EiPjx0ZXh0IGZpbGw9IiMwMDAwMDAiIGZvbnQtZmFtaWx5PSJzYW5zLXNlcmlmIiBmb250LXNpemU9IjE0IiBsZW5ndGhBZGp1c3Q9InNwYWNpbmciIHRleHRMZW5ndGg9IjM1IiB4PSI1IiB5PSIyNzkuNzAzMSI+U2lzd2E8L3RleHQ+PGVsbGlwc2UgY3g9IjI1LjUiIGN5PSIyODkuOTUzMSIgZmlsbD0iI0UyRTJGMCIgcng9IjgiIHJ5PSI4IiBzdHlsZT0ic3Ryb2tlOiMxODE4MTg7c3Ryb2tlLXdpZHRoOjAuNTsiLz48cGF0aCBkPSJNMjUuNSwyOTcuOTUzMSBMMjUuNSwzMjQuOTUzMSBNMTIuNSwzMDUuOTUzMSBMMzguNSwzMDUuOTUzMSBNMjUuNSwzMjQuOTUzMSBMMTIuNSwzMzkuOTUzMSBNMjUuNSwzMjQuOTUzMSBMMzguNSwzMzkuOTUzMSIgZmlsbD0ibm9uZSIgc3R5bGU9InN0cm9rZTojMTgxODE4O3N0cm9rZS13aWR0aDowLjU7Ii8+PC9nPjxnIGNsYXNzPSJwYXJ0aWNpcGFudCBwYXJ0aWNpcGFudC1oZWFkIiBkYXRhLXBhcnRpY2lwYW50PSJVSSI+PHRleHQgZmlsbD0iIzAwMDAwMCIgZm9udC1mYW1pbHk9InNhbnMtc2VyaWYiIGZvbnQtc2l6ZT0iMTQiIGxlbmd0aEFkanVzdD0ic3BhY2luZyIgdGV4dExlbmd0aD0iMTc1IiB4PSIxNzMuNSIgeT0iNzguMjM0NCI+VUk6Q2V0YWsgQnVrdGkgUGVtYmF5YXJhbjwvdGV4dD48cGF0aCBkPSJNMjQzLjUsMzcgTDI0My41LDYxIE0yNDMuNSw0OSBMMjYwLjUsNDkiIGZpbGw9Im5vbmUiIHN0eWxlPSJzdHJva2U6IzE4MTgxODtzdHJva2Utd2lkdGg6MC41OyIvPjxlbGxpcHNlIGN4PSIyNzIuNSIgY3k9IjQ5IiBmaWxsPSIjRTJFMkYwIiByeD0iMTIiIHJ5PSIxMiIgc3R5bGU9InN0cm9rZTojMTgxODE4O3N0cm9rZS13aWR0aDowLjU7Ii8+PC9nPjxnIGNsYXNzPSJwYXJ0aWNpcGFudCBwYXJ0aWNpcGFudC10YWlsIiBkYXRhLXBhcnRpY2lwYW50PSJVSSI+PHRleHQgZmlsbD0iIzAwMDAwMCIgZm9udC1mYW1pbHk9InNhbnMtc2VyaWYiIGZvbnQtc2l6ZT0iMTQiIGxlbmd0aEFkanVzdD0ic3BhY2luZyIgdGV4dExlbmd0aD0iMTc1IiB4PSIxNzMuNSIgeT0iMjc5LjcwMzEiPlVJOkNldGFrIEJ1a3RpIFBlbWJheWFyYW48L3RleHQ+PHBhdGggZD0iTTI0My41LDI4NS40NTMxIEwyNDMuNSwzMDkuNDUzMSBNMjQzLjUsMjk3LjQ1MzEgTDI2MC41LDI5Ny40NTMxIiBmaWxsPSJub25lIiBzdHlsZT0ic3Ryb2tlOiMxODE4MTg7c3Ryb2tlLXdpZHRoOjAuNTsiLz48ZWxsaXBzZSBjeD0iMjcyLjUiIGN5PSIyOTcuNDUzMSIgZmlsbD0iI0UyRTJGMCIgcng9IjEyIiByeT0iMTIiIHN0eWxlPSJzdHJva2U6IzE4MTgxODtzdHJva2Utd2lkdGg6MC41OyIvPjwvZz48ZyBjbGFzcz0icGFydGljaXBhbnQgcGFydGljaXBhbnQtaGVhZCIgZGF0YS1wYXJ0aWNpcGFudD0iQ29udHJvbGxlciI+PHRleHQgZmlsbD0iIzAwMDAwMCIgZm9udC1mYW1pbHk9InNhbnMtc2VyaWYiIGZvbnQtc2l6ZT0iMTQiIGxlbmd0aEFkanVzdD0ic3BhY2luZyIgdGV4dExlbmd0aD0iMTg5IiB4PSIzNjQuNSIgeT0iNzguMjM0NCI+QzpCdWt0aVBlbWJheWFyYW5Db250cm9sbGVyPC90ZXh0PjxlbGxpcHNlIGN4PSI0NjIiIGN5PSI0OSIgZmlsbD0iI0UyRTJGMCIgcng9IjEyIiByeT0iMTIiIHN0eWxlPSJzdHJva2U6IzE4MTgxODtzdHJva2Utd2lkdGg6MC41OyIvPjxwb2x5Z29uIGZpbGw9IiMxODE4MTgiIHBvaW50cz0iNDU4LDM3LDQ2NCwzMiw0NjIsMzcsNDY0LDQyLDQ1OCwzNyIgc3R5bGU9InN0cm9rZTojMTgxODE4O3N0cm9rZS13aWR0aDoxOyIvPjwvZz48ZyBjbGFzcz0icGFydGljaXBhbnQgcGFydGljaXBhbnQtdGFpbCIgZGF0YS1wYXJ0aWNpcGFudD0iQ29udHJvbGxlciI+PHRleHQgZmlsbD0iIzAwMDAwMCIgZm9udC1mYW1pbHk9InNhbnMtc2VyaWYiIGZvbnQtc2l6ZT0iMTQiIGxlbmd0aEFkanVzdD0ic3BhY2luZyIgdGV4dExlbmd0aD0iMTg5IiB4PSIzNjQuNSIgeT0iMjc5LjcwMzEiPkM6QnVrdGlQZW1iYXlhcmFuQ29udHJvbGxlcjwvdGV4dD48ZWxsaXBzZSBjeD0iNDYyIiBjeT0iMjk3LjQ1MzEiIGZpbGw9IiNFMkUyRjAiIHJ4PSIxMiIgcnk9IjEyIiBzdHlsZT0ic3Ryb2tlOiMxODE4MTg7c3Ryb2tlLXdpZHRoOjAuNTsiLz48cG9seWdvbiBmaWxsPSIjMTgxODE4IiBwb2ludHM9IjQ1OCwyODUuNDUzMSw0NjQsMjgwLjQ1MzEsNDYyLDI4NS40NTMxLDQ2NCwyOTAuNDUzMSw0NTgsMjg1LjQ1MzEiIHN0eWxlPSJzdHJva2U6IzE4MTgxODtzdHJva2Utd2lkdGg6MTsiLz48L2c+PGcgY2xhc3M9InBhcnRpY2lwYW50IHBhcnRpY2lwYW50LWhlYWQiIGRhdGEtcGFydGljaXBhbnQ9IkVudGl0eSI+PHRleHQgZmlsbD0iIzAwMDAwMCIgZm9udC1mYW1pbHk9InNhbnMtc2VyaWYiIGZvbnQtc2l6ZT0iMTQiIGxlbmd0aEFkanVzdD0ic3BhY2luZyIgdGV4dExlbmd0aD0iODQiIHg9IjU2OS41IiB5PSI3OC4yMzQ0Ij5FOlBlbWJheWFyYW48L3RleHQ+PGVsbGlwc2UgY3g9IjYxNC41IiBjeT0iNDkiIGZpbGw9IiNFMkUyRjAiIHJ4PSIxMiIgcnk9IjEyIiBzdHlsZT0ic3Ryb2tlOiMxODE4MTg7c3Ryb2tlLXdpZHRoOjAuNTsiLz48bGluZSBzdHlsZT0ic3Ryb2tlOiMxODE4MTg7c3Ryb2tlLXdpZHRoOjAuNTsiIHgxPSI2MDIuNSIgeDI9IjYyNi41IiB5MT0iNjMiIHkyPSI2MyIvPjwvZz48ZyBjbGFzcz0icGFydGljaXBhbnQgcGFydGljaXBhbnQtdGFpbCIgZGF0YS1wYXJ0aWNpcGFudD0iRW50aXR5Ij48dGV4dCBmaWxsPSIjMDAwMDAwIiBmb250LWZhbWlseT0ic2Fucy1zZXJpZiIgZm9udC1zaXplPSIxNCIgbGVuZ3RoQWRqdXN0PSJzcGFjaW5nIiB0ZXh0TGVuZ3RoPSI4NCIgeD0iNTY5LjUiIHk9IjI3OS43MDMxIj5FOlBlbWJheWFyYW48L3RleHQ+PGVsbGlwc2UgY3g9IjYxNC41IiBjeT0iMjk3LjQ1MzEiIGZpbGw9IiNFMkUyRjAiIHJ4PSIxMiIgcnk9IjEyIiBzdHlsZT0ic3Ryb2tlOiMxODE4MTg7c3Ryb2tlLXdpZHRoOjAuNTsiLz48bGluZSBzdHlsZT0ic3Ryb2tlOiMxODE4MTg7c3Ryb2tlLXdpZHRoOjAuNTsiIHgxPSI2MDIuNSIgeDI9IjYyNi41IiB5MT0iMzExLjQ1MzEiIHkyPSIzMTEuNDUzMSIvPjwvZz48ZyBjbGFzcz0ibWVzc2FnZSIgZGF0YS1wYXJ0aWNpcGFudC0xPSJTaXN3YSIgZGF0YS1wYXJ0aWNpcGFudC0yPSJVSSI+PHBvbHlnb24gZmlsbD0iIzE4MTgxOCIgcG9pbnRzPSIyNTIsMTA1Ljg5ODQsMjYyLDEwOS44OTg0LDI1MiwxMTMuODk4NCwyNTYsMTA5Ljg5ODQiIHN0eWxlPSJzdHJva2U6IzE4MTgxODtzdHJva2Utd2lkdGg6MTsiLz48bGluZSBzdHlsZT0ic3Ryb2tlOiMxODE4MTg7c3Ryb2tlLXdpZHRoOjE7IiB4MT0iMjUuNSIgeDI9IjI1OCIgeTE9IjEwOS44OTg0IiB5Mj0iMTA5Ljg5ODQiLz48dGV4dCBmaWxsPSIjMDAwMDAwIiBmb250LWZhbWlseT0ic2Fucy1zZXJpZiIgZm9udC1zaXplPSIxMyIgbGVuZ3RoQWRqdXN0PSJzcGFjaW5nIiB0ZXh0TGVuZ3RoPSIzMi41IiB4PSIzMi41IiB5PSIxMDYuMjczNCI+TG9naW48L3RleHQ+PC9nPjxnIGNsYXNzPSJtZXNzYWdlIiBkYXRhLXBhcnRpY2lwYW50LTE9IlNpc3dhIiBkYXRhLXBhcnRpY2lwYW50LTI9IlVJIj48cG9seWdvbiBmaWxsPSIjMTgxODE4IiBwb2ludHM9IjI1MiwxMzMuODEyNSwyNjIsMTM3LjgxMjUsMjUyLDE0MS44MTI1LDI1NiwxMzcuODEyNSIgc3R5bGU9InN0cm9rZTojMTgxODE4O3N0cm9rZS13aWR0aDoxOyIvPjxsaW5lIHN0eWxlPSJzdHJva2U6IzE4MTgxODtzdHJva2Utd2lkdGg6MTsiIHgxPSIyNS41IiB4Mj0iMjU4IiB5MT0iMTM3LjgxMjUiIHkyPSIxMzcuODEyNSIvPjx0ZXh0IGZpbGw9IiMwMDAwMDAiIGZvbnQtZmFtaWx5PSJzYW5zLXNlcmlmIiBmb250LXNpemU9IjEzIiBsZW5ndGhBZGp1c3Q9InNwYWNpbmciIHRleHRMZW5ndGg9IjIxNC41IiB4PSIzMi41IiB5PSIxMzQuMTg3NSI+UGlsaWggbWVudSBDZXRhayBCdWt0aSBQZW1iYXlhcmFuPC90ZXh0PjwvZz48ZyBjbGFzcz0ibWVzc2FnZSIgZGF0YS1wYXJ0aWNpcGFudC0xPSJVSSIgZGF0YS1wYXJ0aWNpcGFudC0yPSJDb250cm9sbGVyIj48cG9seWdvbiBmaWxsPSIjMTgxODE4IiBwb2ludHM9IjQ1MCwxNjEuNzI2Niw0NjAsMTY1LjcyNjYsNDUwLDE2OS43MjY2LDQ1NCwxNjUuNzI2NiIgc3R5bGU9InN0cm9rZTojMTgxODE4O3N0cm9rZS13aWR0aDoxOyIvPjxsaW5lIHN0eWxlPSJzdHJva2U6IzE4MTgxODtzdHJva2Utd2lkdGg6MTsiIHgxPSIyNjQiIHgyPSI0NTYiIHkxPSIxNjUuNzI2NiIgeTI9IjE2NS43MjY2Ii8+PHRleHQgZmlsbD0iIzAwMDAwMCIgZm9udC1mYW1pbHk9InNhbnMtc2VyaWYiIGZvbnQtc2l6ZT0iMTMiIGxlbmd0aEFkanVzdD0ic3BhY2luZyIgdGV4dExlbmd0aD0iMTQzIiB4PSIyNzEiIHk9IjE2Mi4xMDE2Ij5taW50YUJ1a3RpUGVtYmF5YXJhbigpPC90ZXh0PjwvZz48ZyBjbGFzcz0ibWVzc2FnZSIgZGF0YS1wYXJ0aWNpcGFudC0xPSJDb250cm9sbGVyIiBkYXRhLXBhcnRpY2lwYW50LTI9IkVudGl0eSI+PHBvbHlnb24gZmlsbD0iIzE4MTgxOCIgcG9pbnRzPSI2MDIuNSwxODkuNjQwNiw2MTIuNSwxOTMuNjQwNiw2MDIuNSwxOTcuNjQwNiw2MDYuNSwxOTMuNjQwNiIgc3R5bGU9InN0cm9rZTojMTgxODE4O3N0cm9rZS13aWR0aDoxOyIvPjxsaW5lIHN0eWxlPSJzdHJva2U6IzE4MTgxODtzdHJva2Utd2lkdGg6MTsiIHgxPSI0NjIiIHgyPSI2MDguNSIgeTE9IjE5My42NDA2IiB5Mj0iMTkzLjY0MDYiLz48dGV4dCBmaWxsPSIjMDAwMDAwIiBmb250LWZhbWlseT0ic2Fucy1zZXJpZiIgZm9udC1zaXplPSIxMyIgbGVuZ3RoQWRqdXN0PSJzcGFjaW5nIiB0ZXh0TGVuZ3RoPSIxMjMuNSIgeD0iNDY5IiB5PSIxOTAuMDE1NiI+Z2V0RGF0YVBlbWJheWFyYW4oKTwvdGV4dD48L2c+PGcgY2xhc3M9Im1lc3NhZ2UiIGRhdGEtcGFydGljaXBhbnQtMT0iRW50aXR5IiBkYXRhLXBhcnRpY2lwYW50LTI9IkNvbnRyb2xsZXIiPjxwb2x5Z29uIGZpbGw9IiMxODE4MTgiIHBvaW50cz0iNDczLDIxNy41NTQ3LDQ2MywyMjEuNTU0Nyw0NzMsMjI1LjU1NDcsNDY5LDIyMS41NTQ3IiBzdHlsZT0ic3Ryb2tlOiMxODE4MTg7c3Ryb2tlLXdpZHRoOjE7Ii8+PGxpbmUgc3R5bGU9InN0cm9rZTojMTgxODE4O3N0cm9rZS13aWR0aDoxO3N0cm9rZS1kYXNoYXJyYXk6Mi4wLDIuMDsiIHgxPSI0NjciIHgyPSI2MTMuNSIgeTE9IjIyMS41NTQ3IiB5Mj0iMjIxLjU1NDciLz48dGV4dCBmaWxsPSIjMDAwMDAwIiBmb250LWZhbWlseT0ic2Fucy1zZXJpZiIgZm9udC1zaXplPSIxMyIgbGVuZ3RoQWRqdXN0PSJzcGFjaW5nIiB0ZXh0TGVuZ3RoPSI5MSIgeD0iNDc5IiB5PSIyMTcuOTI5NyI+ZGF0YVBlbWJheWFyYW48L3RleHQ+PC9nPjxnIGNsYXNzPSJtZXNzYWdlIiBkYXRhLXBhcnRpY2lwYW50LTE9IkNvbnRyb2xsZXIiIGRhdGEtcGFydGljaXBhbnQtMj0iVUkiPjxwb2x5Z29uIGZpbGw9IiMxODE4MTgiIHBvaW50cz0iMjc1LDI0NS40Njg4LDI2NSwyNDkuNDY4OCwyNzUsMjUzLjQ2ODgsMjcxLDI0OS40Njg4IiBzdHlsZT0ic3Ryb2tlOiMxODE4MTg7c3Ryb2tlLXdpZHRoOjE7Ii8+PGxpbmUgc3R5bGU9InN0cm9rZTojMTgxODE4O3N0cm9rZS13aWR0aDoxO3N0cm9rZS1kYXNoYXJyYXk6Mi4wLDIuMDsiIHgxPSIyNjkiIHgyPSI0NjEiIHkxPSIyNDkuNDY4OCIgeTI9IjI0OS40Njg4Ii8+PHRleHQgZmlsbD0iIzAwMDAwMCIgZm9udC1mYW1pbHk9InNhbnMtc2VyaWYiIGZvbnQtc2l6ZT0iMTMiIGxlbmd0aEFkanVzdD0ic3BhY2luZyIgdGV4dExlbmd0aD0iMTIzLjUiIHg9IjI4MSIgeT0iMjQ1Ljg0MzgiPnRhbXBpbGthbkJ1a3RpUERGKCk8L3RleHQ+PC9nPjwhLS1TUkM9W1JPdkQyZUQwMzRSdFN1aFdJWFRVbTRLTkxHazVCZUpZMFE4RURaV19QT21LUnp6WFJCNEVOSVJWb3ZVN0ZMaTdUdmZWQTNneGMwN1QyYWJ4QktoOUVDNXZjUFlXYVJoMzVIc1ExNzI2ellmd1F6WFAxS2JQMTZHZG9ZckhxV0xzN3VLcUpFcEJ3b0JnZ3FDV0hCMjBfRUdWRzA0dEV2QTlUV3FmVWUyTVBlN19WaTlaN2p3Xy1ZRERYWjZvSjNGbm1fWUJwUzdKZS1HQTZHX2U5eXBadms0MDdYZ19uZXB3SU1mMmltYkticEh4MG0wMF0tLT48L2c+PC9zdmc+;" vertex="1" parent="1">
            <mxGeometry x="110" y="-440" width="660" height="346" as="geometry" />
          </mxCell>
        </UserObject>
        <UserObject label="" plantUmlData="{&#xa;  &quot;data&quot;: &quot;@startuml\nactor Admin\nboundary \&quot;UI:Validasi Pembayaran\&quot; as UI\ncontrol \&quot;C:ValidasiPembayaranController\&quot; as Controller\nentity \&quot;E:BuktiPembayaran\&quot; as Entity\n\nAdmin -&gt; UI : Login\nAdmin -&gt; UI : Klik menu Validasi Pembayaran\nUI -&gt; Controller : tampilkanDaftarBukti()\nController -&gt; Entity : getBuktiPembayaran()\nEntity --&gt; Controller : daftarBukti\nController --&gt; UI : tampilkanDaftar()\n\nAdmin -&gt; UI : Pilih salah satu data\nUI -&gt; Controller : cekBuktiTransfer(id)\n\nalt Valid\n    Admin -&gt; UI : Setujui pembayaran\n    UI -&gt; Controller : setujuiPembayaran(id)\nelse Tidak valid\n    Admin -&gt; UI : Tolak dan beri keterangan\n    UI -&gt; Controller : tolakPembayaran(id, alasan)\nend\n\nController -&gt; Entity : updateStatusPembayaran()\n@enduml\n&quot;,&#xa;  &quot;format&quot;: &quot;svg&quot;&#xa;}" id="f9MgHtHTdjxqu1ZTsrYx-6">
          <mxCell style="shape=image;noLabel=1;verticalAlign=top;aspect=fixed;imageAspect=0;image=data:image/svg+xml,PHN2ZyB4bWxucz0iaHR0cDovL3d3dy53My5vcmcvMjAwMC9zdmciIHhtbG5zOnhsaW5rPSJodHRwOi8vd3d3LnczLm9yZy8xOTk5L3hsaW5rIiBjb250ZW50U3R5bGVUeXBlPSJ0ZXh0L2NzcyIgZGF0YS1kaWFncmFtLXR5cGU9IlNFUVVFTkNFIiBoZWlnaHQ9IjU4NnB4IiBwcmVzZXJ2ZUFzcGVjdFJhdGlvPSJub25lIiBzdHlsZT0id2lkdGg6Njk2cHg7aGVpZ2h0OjU4NnB4O2JhY2tncm91bmQ6I0ZGRkZGRjsiIHZlcnNpb249IjEuMSIgdmlld0JveD0iMCAwIDY5NiA1ODYiIHdpZHRoPSI2OTZweCIgem9vbUFuZFBhbj0ibWFnbmlmeSI+PGRlZnMvPjxnPjxyZWN0IGZpbGw9Im5vbmUiIGhlaWdodD0iMTQxLjM0MzgiIHN0eWxlPSJzdHJva2U6IzAwMDAwMDtzdHJva2Utd2lkdGg6MS41OyIgd2lkdGg9IjU2MC41IiB4PSIxMCIgeT0iMzIwLjI5NjkiLz48Zz48dGl0bGU+QWRtaW48L3RpdGxlPjxyZWN0IGZpbGw9IiMwMDAwMDAiIGZpbGwtb3BhY2l0eT0iMC4wMDAwMCIgaGVpZ2h0PSI0MjYuNTcwMyIgd2lkdGg9IjgiIHg9IjM2LjUiIHk9Ijc5Ljk4NDQiLz48bGluZSBzdHlsZT0ic3Ryb2tlOiMxODE4MTg7c3Ryb2tlLXdpZHRoOjAuNTtzdHJva2UtZGFzaGFycmF5OjUuMCw1LjA7IiB4MT0iNDAiIHgyPSI0MCIgeTE9Ijc5Ljk4NDQiIHkyPSI1MDYuNTU0NyIvPjwvZz48Zz48dGl0bGU+VUk6VmFsaWRhc2kgUGVtYmF5YXJhbjwvdGl0bGU+PHJlY3QgZmlsbD0iIzAwMDAwMCIgZmlsbC1vcGFjaXR5PSIwLjAwMDAwIiBoZWlnaHQ9IjQyNi41NzAzIiB3aWR0aD0iOCIgeD0iMjQ5IiB5PSI3OS45ODQ0Ii8+PGxpbmUgc3R5bGU9InN0cm9rZTojMTgxODE4O3N0cm9rZS13aWR0aDowLjU7c3Ryb2tlLWRhc2hhcnJheTo1LjAsNS4wOyIgeDE9IjI1MyIgeDI9IjI1MyIgeTE9Ijc5Ljk4NDQiIHkyPSI1MDYuNTU0NyIvPjwvZz48Zz48dGl0bGU+QzpWYWxpZGFzaVBlbWJheWFyYW5Db250cm9sbGVyPC90aXRsZT48cmVjdCBmaWxsPSIjMDAwMDAwIiBmaWxsLW9wYWNpdHk9IjAuMDAwMDAiIGhlaWdodD0iNDI2LjU3MDMiIHdpZHRoPSI4IiB4PSI0NDguNSIgeT0iNzkuOTg0NCIvPjxsaW5lIHN0eWxlPSJzdHJva2U6IzE4MTgxODtzdHJva2Utd2lkdGg6MC41O3N0cm9rZS1kYXNoYXJyYXk6NS4wLDUuMDsiIHgxPSI0NTIuNSIgeDI9IjQ1Mi41IiB5MT0iNzkuOTg0NCIgeTI9IjUwNi41NTQ3Ii8+PC9nPjxnPjx0aXRsZT5FOkJ1a3RpUGVtYmF5YXJhbjwvdGl0bGU+PHJlY3QgZmlsbD0iIzAwMDAwMCIgZmlsbC1vcGFjaXR5PSIwLjAwMDAwIiBoZWlnaHQ9IjQyNi41NzAzIiB3aWR0aD0iOCIgeD0iNjI5IiB5PSI3OS45ODQ0Ii8+PGxpbmUgc3R5bGU9InN0cm9rZTojMTgxODE4O3N0cm9rZS13aWR0aDowLjU7c3Ryb2tlLWRhc2hhcnJheTo1LjAsNS4wOyIgeDE9IjYzMi41IiB4Mj0iNjMyLjUiIHkxPSI3OS45ODQ0IiB5Mj0iNTA2LjU1NDciLz48L2c+PGcgY2xhc3M9InBhcnRpY2lwYW50IHBhcnRpY2lwYW50LWhlYWQiIGRhdGEtcGFydGljaXBhbnQ9IkFkbWluIj48dGV4dCBmaWxsPSIjMDAwMDAwIiBmb250LWZhbWlseT0ic2Fucy1zZXJpZiIgZm9udC1zaXplPSIxNCIgbGVuZ3RoQWRqdXN0PSJzcGFjaW5nIiB0ZXh0TGVuZ3RoPSIzNSIgeD0iMjAiIHk9Ijc4LjIzNDQiPkFkbWluPC90ZXh0PjxlbGxpcHNlIGN4PSI0MC41IiBjeT0iMTMuNSIgZmlsbD0iI0UyRTJGMCIgcng9IjgiIHJ5PSI4IiBzdHlsZT0ic3Ryb2tlOiMxODE4MTg7c3Ryb2tlLXdpZHRoOjAuNTsiLz48cGF0aCBkPSJNNDAuNSwyMS41IEw0MC41LDQ4LjUgTTI3LjUsMjkuNSBMNTMuNSwyOS41IE00MC41LDQ4LjUgTDI3LjUsNjMuNSBNNDAuNSw0OC41IEw1My41LDYzLjUiIGZpbGw9Im5vbmUiIHN0eWxlPSJzdHJva2U6IzE4MTgxODtzdHJva2Utd2lkdGg6MC41OyIvPjwvZz48ZyBjbGFzcz0icGFydGljaXBhbnQgcGFydGljaXBhbnQtdGFpbCIgZGF0YS1wYXJ0aWNpcGFudD0iQWRtaW4iPjx0ZXh0IGZpbGw9IiMwMDAwMDAiIGZvbnQtZmFtaWx5PSJzYW5zLXNlcmlmIiBmb250LXNpemU9IjE0IiBsZW5ndGhBZGp1c3Q9InNwYWNpbmciIHRleHRMZW5ndGg9IjM1IiB4PSIyMCIgeT0iNTE4Ljc4OTEiPkFkbWluPC90ZXh0PjxlbGxpcHNlIGN4PSI0MC41IiBjeT0iNTI5LjAzOTEiIGZpbGw9IiNFMkUyRjAiIHJ4PSI4IiByeT0iOCIgc3R5bGU9InN0cm9rZTojMTgxODE4O3N0cm9rZS13aWR0aDowLjU7Ii8+PHBhdGggZD0iTTQwLjUsNTM3LjAzOTEgTDQwLjUsNTY0LjAzOTEgTTI3LjUsNTQ1LjAzOTEgTDUzLjUsNTQ1LjAzOTEgTTQwLjUsNTY0LjAzOTEgTDI3LjUsNTc5LjAzOTEgTTQwLjUsNTY0LjAzOTEgTDUzLjUsNTc5LjAzOTEiIGZpbGw9Im5vbmUiIHN0eWxlPSJzdHJva2U6IzE4MTgxODtzdHJva2Utd2lkdGg6MC41OyIvPjwvZz48ZyBjbGFzcz0icGFydGljaXBhbnQgcGFydGljaXBhbnQtaGVhZCIgZGF0YS1wYXJ0aWNpcGFudD0iVUkiPjx0ZXh0IGZpbGw9IiMwMDAwMDAiIGZvbnQtZmFtaWx5PSJzYW5zLXNlcmlmIiBmb250LXNpemU9IjE0IiBsZW5ndGhBZGp1c3Q9InNwYWNpbmciIHRleHRMZW5ndGg9IjE1NCIgeD0iMTczIiB5PSI3OC4yMzQ0Ij5VSTpWYWxpZGFzaSBQZW1iYXlhcmFuPC90ZXh0PjxwYXRoIGQ9Ik0yMzIuNSwzNyBMMjMyLjUsNjEgTTIzMi41LDQ5IEwyNDkuNSw0OSIgZmlsbD0ibm9uZSIgc3R5bGU9InN0cm9rZTojMTgxODE4O3N0cm9rZS13aWR0aDowLjU7Ii8+PGVsbGlwc2UgY3g9IjI2MS41IiBjeT0iNDkiIGZpbGw9IiNFMkUyRjAiIHJ4PSIxMiIgcnk9IjEyIiBzdHlsZT0ic3Ryb2tlOiMxODE4MTg7c3Ryb2tlLXdpZHRoOjAuNTsiLz48L2c+PGcgY2xhc3M9InBhcnRpY2lwYW50IHBhcnRpY2lwYW50LXRhaWwiIGRhdGEtcGFydGljaXBhbnQ9IlVJIj48dGV4dCBmaWxsPSIjMDAwMDAwIiBmb250LWZhbWlseT0ic2Fucy1zZXJpZiIgZm9udC1zaXplPSIxNCIgbGVuZ3RoQWRqdXN0PSJzcGFjaW5nIiB0ZXh0TGVuZ3RoPSIxNTQiIHg9IjE3MyIgeT0iNTE4Ljc4OTEiPlVJOlZhbGlkYXNpIFBlbWJheWFyYW48L3RleHQ+PHBhdGggZD0iTTIzMi41LDUyNC41MzkxIEwyMzIuNSw1NDguNTM5MSBNMjMyLjUsNTM2LjUzOTEgTDI0OS41LDUzNi41MzkxIiBmaWxsPSJub25lIiBzdHlsZT0ic3Ryb2tlOiMxODE4MTg7c3Ryb2tlLXdpZHRoOjAuNTsiLz48ZWxsaXBzZSBjeD0iMjYxLjUiIGN5PSI1MzYuNTM5MSIgZmlsbD0iI0UyRTJGMCIgcng9IjEyIiByeT0iMTIiIHN0eWxlPSJzdHJva2U6IzE4MTgxODtzdHJva2Utd2lkdGg6MC41OyIvPjwvZz48ZyBjbGFzcz0icGFydGljaXBhbnQgcGFydGljaXBhbnQtaGVhZCIgZGF0YS1wYXJ0aWNpcGFudD0iQ29udHJvbGxlciI+PHRleHQgZmlsbD0iIzAwMDAwMCIgZm9udC1mYW1pbHk9InNhbnMtc2VyaWYiIGZvbnQtc2l6ZT0iMTQiIGxlbmd0aEFkanVzdD0ic3BhY2luZyIgdGV4dExlbmd0aD0iMjEwIiB4PSIzNDQuNSIgeT0iNzguMjM0NCI+QzpWYWxpZGFzaVBlbWJheWFyYW5Db250cm9sbGVyPC90ZXh0PjxlbGxpcHNlIGN4PSI0NTIuNSIgY3k9IjQ5IiBmaWxsPSIjRTJFMkYwIiByeD0iMTIiIHJ5PSIxMiIgc3R5bGU9InN0cm9rZTojMTgxODE4O3N0cm9rZS13aWR0aDowLjU7Ii8+PHBvbHlnb24gZmlsbD0iIzE4MTgxOCIgcG9pbnRzPSI0NDguNSwzNyw0NTQuNSwzMiw0NTIuNSwzNyw0NTQuNSw0Miw0NDguNSwzNyIgc3R5bGU9InN0cm9rZTojMTgxODE4O3N0cm9rZS13aWR0aDoxOyIvPjwvZz48ZyBjbGFzcz0icGFydGljaXBhbnQgcGFydGljaXBhbnQtdGFpbCIgZGF0YS1wYXJ0aWNpcGFudD0iQ29udHJvbGxlciI+PHRleHQgZmlsbD0iIzAwMDAwMCIgZm9udC1mYW1pbHk9InNhbnMtc2VyaWYiIGZvbnQtc2l6ZT0iMTQiIGxlbmd0aEFkanVzdD0ic3BhY2luZyIgdGV4dExlbmd0aD0iMjEwIiB4PSIzNDQuNSIgeT0iNTE4Ljc4OTEiPkM6VmFsaWRhc2lQZW1iYXlhcmFuQ29udHJvbGxlcjwvdGV4dD48ZWxsaXBzZSBjeD0iNDUyLjUiIGN5PSI1MzYuNTM5MSIgZmlsbD0iI0UyRTJGMCIgcng9IjEyIiByeT0iMTIiIHN0eWxlPSJzdHJva2U6IzE4MTgxODtzdHJva2Utd2lkdGg6MC41OyIvPjxwb2x5Z29uIGZpbGw9IiMxODE4MTgiIHBvaW50cz0iNDQ4LjUsNTI0LjUzOTEsNDU0LjUsNTE5LjUzOTEsNDUyLjUsNTI0LjUzOTEsNDU0LjUsNTI5LjUzOTEsNDQ4LjUsNTI0LjUzOTEiIHN0eWxlPSJzdHJva2U6IzE4MTgxODtzdHJva2Utd2lkdGg6MTsiLz48L2c+PGcgY2xhc3M9InBhcnRpY2lwYW50IHBhcnRpY2lwYW50LWhlYWQiIGRhdGEtcGFydGljaXBhbnQ9IkVudGl0eSI+PHRleHQgZmlsbD0iIzAwMDAwMCIgZm9udC1mYW1pbHk9InNhbnMtc2VyaWYiIGZvbnQtc2l6ZT0iMTQiIGxlbmd0aEFkanVzdD0ic3BhY2luZyIgdGV4dExlbmd0aD0iMTE5IiB4PSI1NzAuNSIgeT0iNzguMjM0NCI+RTpCdWt0aVBlbWJheWFyYW48L3RleHQ+PGVsbGlwc2UgY3g9IjYzMyIgY3k9IjQ5IiBmaWxsPSIjRTJFMkYwIiByeD0iMTIiIHJ5PSIxMiIgc3R5bGU9InN0cm9rZTojMTgxODE4O3N0cm9rZS13aWR0aDowLjU7Ii8+PGxpbmUgc3R5bGU9InN0cm9rZTojMTgxODE4O3N0cm9rZS13aWR0aDowLjU7IiB4MT0iNjIxIiB4Mj0iNjQ1IiB5MT0iNjMiIHkyPSI2MyIvPjwvZz48ZyBjbGFzcz0icGFydGljaXBhbnQgcGFydGljaXBhbnQtdGFpbCIgZGF0YS1wYXJ0aWNpcGFudD0iRW50aXR5Ij48dGV4dCBmaWxsPSIjMDAwMDAwIiBmb250LWZhbWlseT0ic2Fucy1zZXJpZiIgZm9udC1zaXplPSIxNCIgbGVuZ3RoQWRqdXN0PSJzcGFjaW5nIiB0ZXh0TGVuZ3RoPSIxMTkiIHg9IjU3MC41IiB5PSI1MTguNzg5MSI+RTpCdWt0aVBlbWJheWFyYW48L3RleHQ+PGVsbGlwc2UgY3g9IjYzMyIgY3k9IjUzNi41MzkxIiBmaWxsPSIjRTJFMkYwIiByeD0iMTIiIHJ5PSIxMiIgc3R5bGU9InN0cm9rZTojMTgxODE4O3N0cm9rZS13aWR0aDowLjU7Ii8+PGxpbmUgc3R5bGU9InN0cm9rZTojMTgxODE4O3N0cm9rZS13aWR0aDowLjU7IiB4MT0iNjIxIiB4Mj0iNjQ1IiB5MT0iNTUwLjUzOTEiIHkyPSI1NTAuNTM5MSIvPjwvZz48ZyBjbGFzcz0ibWVzc2FnZSIgZGF0YS1wYXJ0aWNpcGFudC0xPSJBZG1pbiIgZGF0YS1wYXJ0aWNpcGFudC0yPSJVSSI+PHBvbHlnb24gZmlsbD0iIzE4MTgxOCIgcG9pbnRzPSIyNDEsMTA1Ljg5ODQsMjUxLDEwOS44OTg0LDI0MSwxMTMuODk4NCwyNDUsMTA5Ljg5ODQiIHN0eWxlPSJzdHJva2U6IzE4MTgxODtzdHJva2Utd2lkdGg6MTsiLz48bGluZSBzdHlsZT0ic3Ryb2tlOiMxODE4MTg7c3Ryb2tlLXdpZHRoOjE7IiB4MT0iNDAuNSIgeDI9IjI0NyIgeTE9IjEwOS44OTg0IiB5Mj0iMTA5Ljg5ODQiLz48dGV4dCBmaWxsPSIjMDAwMDAwIiBmb250LWZhbWlseT0ic2Fucy1zZXJpZiIgZm9udC1zaXplPSIxMyIgbGVuZ3RoQWRqdXN0PSJzcGFjaW5nIiB0ZXh0TGVuZ3RoPSIzMi41IiB4PSI0Ny41IiB5PSIxMDYuMjczNCI+TG9naW48L3RleHQ+PC9nPjxnIGNsYXNzPSJtZXNzYWdlIiBkYXRhLXBhcnRpY2lwYW50LTE9IkFkbWluIiBkYXRhLXBhcnRpY2lwYW50LTI9IlVJIj48cG9seWdvbiBmaWxsPSIjMTgxODE4IiBwb2ludHM9IjI0MSwxMzMuODEyNSwyNTEsMTM3LjgxMjUsMjQxLDE0MS44MTI1LDI0NSwxMzcuODEyNSIgc3R5bGU9InN0cm9rZTojMTgxODE4O3N0cm9rZS13aWR0aDoxOyIvPjxsaW5lIHN0eWxlPSJzdHJva2U6IzE4MTgxODtzdHJva2Utd2lkdGg6MTsiIHgxPSI0MC41IiB4Mj0iMjQ3IiB5MT0iMTM3LjgxMjUiIHkyPSIxMzcuODEyNSIvPjx0ZXh0IGZpbGw9IiMwMDAwMDAiIGZvbnQtZmFtaWx5PSJzYW5zLXNlcmlmIiBmb250LXNpemU9IjEzIiBsZW5ndGhBZGp1c3Q9InNwYWNpbmciIHRleHRMZW5ndGg9IjE4OC41IiB4PSI0Ny41IiB5PSIxMzQuMTg3NSI+S2xpayBtZW51IFZhbGlkYXNpIFBlbWJheWFyYW48L3RleHQ+PC9nPjxnIGNsYXNzPSJtZXNzYWdlIiBkYXRhLXBhcnRpY2lwYW50LTE9IlVJIiBkYXRhLXBhcnRpY2lwYW50LTI9IkNvbnRyb2xsZXIiPjxwb2x5Z29uIGZpbGw9IiMxODE4MTgiIHBvaW50cz0iNDQwLjUsMTYxLjcyNjYsNDUwLjUsMTY1LjcyNjYsNDQwLjUsMTY5LjcyNjYsNDQ0LjUsMTY1LjcyNjYiIHN0eWxlPSJzdHJva2U6IzE4MTgxODtzdHJva2Utd2lkdGg6MTsiLz48bGluZSBzdHlsZT0ic3Ryb2tlOiMxODE4MTg7c3Ryb2tlLXdpZHRoOjE7IiB4MT0iMjUzIiB4Mj0iNDQ2LjUiIHkxPSIxNjUuNzI2NiIgeTI9IjE2NS43MjY2Ii8+PHRleHQgZmlsbD0iIzAwMDAwMCIgZm9udC1mYW1pbHk9InNhbnMtc2VyaWYiIGZvbnQtc2l6ZT0iMTMiIGxlbmd0aEFkanVzdD0ic3BhY2luZyIgdGV4dExlbmd0aD0iMTQzIiB4PSIyNjAiIHk9IjE2Mi4xMDE2Ij50YW1waWxrYW5EYWZ0YXJCdWt0aSgpPC90ZXh0PjwvZz48ZyBjbGFzcz0ibWVzc2FnZSIgZGF0YS1wYXJ0aWNpcGFudC0xPSJDb250cm9sbGVyIiBkYXRhLXBhcnRpY2lwYW50LTI9IkVudGl0eSI+PHBvbHlnb24gZmlsbD0iIzE4MTgxOCIgcG9pbnRzPSI2MjEsMTg5LjY0MDYsNjMxLDE5My42NDA2LDYyMSwxOTcuNjQwNiw2MjUsMTkzLjY0MDYiIHN0eWxlPSJzdHJva2U6IzE4MTgxODtzdHJva2Utd2lkdGg6MTsiLz48bGluZSBzdHlsZT0ic3Ryb2tlOiMxODE4MTg7c3Ryb2tlLXdpZHRoOjE7IiB4MT0iNDUyLjUiIHgyPSI2MjciIHkxPSIxOTMuNjQwNiIgeTI9IjE5My42NDA2Ii8+PHRleHQgZmlsbD0iIzAwMDAwMCIgZm9udC1mYW1pbHk9InNhbnMtc2VyaWYiIGZvbnQtc2l6ZT0iMTMiIGxlbmd0aEFkanVzdD0ic3BhY2luZyIgdGV4dExlbmd0aD0iMTMwIiB4PSI0NTkuNSIgeT0iMTkwLjAxNTYiPmdldEJ1a3RpUGVtYmF5YXJhbigpPC90ZXh0PjwvZz48ZyBjbGFzcz0ibWVzc2FnZSIgZGF0YS1wYXJ0aWNpcGFudC0xPSJFbnRpdHkiIGRhdGEtcGFydGljaXBhbnQtMj0iQ29udHJvbGxlciI+PHBvbHlnb24gZmlsbD0iIzE4MTgxOCIgcG9pbnRzPSI0NjMuNSwyMTcuNTU0Nyw0NTMuNSwyMjEuNTU0Nyw0NjMuNSwyMjUuNTU0Nyw0NTkuNSwyMjEuNTU0NyIgc3R5bGU9InN0cm9rZTojMTgxODE4O3N0cm9rZS13aWR0aDoxOyIvPjxsaW5lIHN0eWxlPSJzdHJva2U6IzE4MTgxODtzdHJva2Utd2lkdGg6MTtzdHJva2UtZGFzaGFycmF5OjIuMCwyLjA7IiB4MT0iNDU3LjUiIHgyPSI2MzIiIHkxPSIyMjEuNTU0NyIgeTI9IjIyMS41NTQ3Ii8+PHRleHQgZmlsbD0iIzAwMDAwMCIgZm9udC1mYW1pbHk9InNhbnMtc2VyaWYiIGZvbnQtc2l6ZT0iMTMiIGxlbmd0aEFkanVzdD0ic3BhY2luZyIgdGV4dExlbmd0aD0iNzEuNSIgeD0iNDY5LjUiIHk9IjIxNy45Mjk3Ij5kYWZ0YXJCdWt0aTwvdGV4dD48L2c+PGcgY2xhc3M9Im1lc3NhZ2UiIGRhdGEtcGFydGljaXBhbnQtMT0iQ29udHJvbGxlciIgZGF0YS1wYXJ0aWNpcGFudC0yPSJVSSI+PHBvbHlnb24gZmlsbD0iIzE4MTgxOCIgcG9pbnRzPSIyNjQsMjQ1LjQ2ODgsMjU0LDI0OS40Njg4LDI2NCwyNTMuNDY4OCwyNjAsMjQ5LjQ2ODgiIHN0eWxlPSJzdHJva2U6IzE4MTgxODtzdHJva2Utd2lkdGg6MTsiLz48bGluZSBzdHlsZT0ic3Ryb2tlOiMxODE4MTg7c3Ryb2tlLXdpZHRoOjE7c3Ryb2tlLWRhc2hhcnJheToyLjAsMi4wOyIgeDE9IjI1OCIgeDI9IjQ1MS41IiB5MT0iMjQ5LjQ2ODgiIHkyPSIyNDkuNDY4OCIvPjx0ZXh0IGZpbGw9IiMwMDAwMDAiIGZvbnQtZmFtaWx5PSJzYW5zLXNlcmlmIiBmb250LXNpemU9IjEzIiBsZW5ndGhBZGp1c3Q9InNwYWNpbmciIHRleHRMZW5ndGg9IjExMC41IiB4PSIyNzAiIHk9IjI0NS44NDM4Ij50YW1waWxrYW5EYWZ0YXIoKTwvdGV4dD48L2c+PGcgY2xhc3M9Im1lc3NhZ2UiIGRhdGEtcGFydGljaXBhbnQtMT0iQWRtaW4iIGRhdGEtcGFydGljaXBhbnQtMj0iVUkiPjxwb2x5Z29uIGZpbGw9IiMxODE4MTgiIHBvaW50cz0iMjQxLDI3My4zODI4LDI1MSwyNzcuMzgyOCwyNDEsMjgxLjM4MjgsMjQ1LDI3Ny4zODI4IiBzdHlsZT0ic3Ryb2tlOiMxODE4MTg7c3Ryb2tlLXdpZHRoOjE7Ii8+PGxpbmUgc3R5bGU9InN0cm9rZTojMTgxODE4O3N0cm9rZS13aWR0aDoxOyIgeDE9IjQwLjUiIHgyPSIyNDciIHkxPSIyNzcuMzgyOCIgeTI9IjI3Ny4zODI4Ii8+PHRleHQgZmlsbD0iIzAwMDAwMCIgZm9udC1mYW1pbHk9InNhbnMtc2VyaWYiIGZvbnQtc2l6ZT0iMTMiIGxlbmd0aEFkanVzdD0ic3BhY2luZyIgdGV4dExlbmd0aD0iMTM2LjUiIHg9IjQ3LjUiIHk9IjI3My43NTc4Ij5QaWxpaCBzYWxhaCBzYXR1IGRhdGE8L3RleHQ+PC9nPjxnIGNsYXNzPSJtZXNzYWdlIiBkYXRhLXBhcnRpY2lwYW50LTE9IlVJIiBkYXRhLXBhcnRpY2lwYW50LTI9IkNvbnRyb2xsZXIiPjxwb2x5Z29uIGZpbGw9IiMxODE4MTgiIHBvaW50cz0iNDQwLjUsMzAxLjI5NjksNDUwLjUsMzA1LjI5NjksNDQwLjUsMzA5LjI5NjksNDQ0LjUsMzA1LjI5NjkiIHN0eWxlPSJzdHJva2U6IzE4MTgxODtzdHJva2Utd2lkdGg6MTsiLz48bGluZSBzdHlsZT0ic3Ryb2tlOiMxODE4MTg7c3Ryb2tlLXdpZHRoOjE7IiB4MT0iMjUzIiB4Mj0iNDQ2LjUiIHkxPSIzMDUuMjk2OSIgeTI9IjMwNS4yOTY5Ii8+PHRleHQgZmlsbD0iIzAwMDAwMCIgZm9udC1mYW1pbHk9InNhbnMtc2VyaWYiIGZvbnQtc2l6ZT0iMTMiIGxlbmd0aEFkanVzdD0ic3BhY2luZyIgdGV4dExlbmd0aD0iMTMwIiB4PSIyNjAiIHk9IjMwMS42NzE5Ij5jZWtCdWt0aVRyYW5zZmVyKGlkKTwvdGV4dD48L2c+PHBhdGggZD0iTTEwLDMyMC4yOTY5IEw3NC41LDMyMC4yOTY5IEw3NC41LDMyNi4yMTA5IEw2NC41LDMzNi4yMTA5IEwxMCwzMzYuMjEwOSBMMTAsMzIwLjI5NjkiIGZpbGw9IiNFRUVFRUUiIHN0eWxlPSJzdHJva2U6IzAwMDAwMDtzdHJva2Utd2lkdGg6MS41OyIvPjxyZWN0IGZpbGw9Im5vbmUiIGhlaWdodD0iMTQxLjM0MzgiIHN0eWxlPSJzdHJva2U6IzAwMDAwMDtzdHJva2Utd2lkdGg6MS41OyIgd2lkdGg9IjU2MC41IiB4PSIxMCIgeT0iMzIwLjI5NjkiLz48dGV4dCBmaWxsPSIjMDAwMDAwIiBmb250LWZhbWlseT0ic2Fucy1zZXJpZiIgZm9udC1zaXplPSIxMyIgZm9udC13ZWlnaHQ9ImJvbGQiIGxlbmd0aEFkanVzdD0ic3BhY2luZyIgdGV4dExlbmd0aD0iMTkuNSIgeD0iMjUiIHk9IjMzMy41ODU5Ij5hbHQ8L3RleHQ+PHRleHQgZmlsbD0iIzAwMDAwMCIgZm9udC1mYW1pbHk9InNhbnMtc2VyaWYiIGZvbnQtc2l6ZT0iMTEiIGZvbnQtd2VpZ2h0PSJib2xkIiBsZW5ndGhBZGp1c3Q9InNwYWNpbmciIHRleHRMZW5ndGg9IjM4LjUiIHg9Ijg5LjUiIHk9IjMzMi42OTUzIj5bVmFsaWRdPC90ZXh0PjxnIGNsYXNzPSJtZXNzYWdlIiBkYXRhLXBhcnRpY2lwYW50LTE9IkFkbWluIiBkYXRhLXBhcnRpY2lwYW50LTI9IlVJIj48cG9seWdvbiBmaWxsPSIjMTgxODE4IiBwb2ludHM9IjI0MSwzNTIuMTI1LDI1MSwzNTYuMTI1LDI0MSwzNjAuMTI1LDI0NSwzNTYuMTI1IiBzdHlsZT0ic3Ryb2tlOiMxODE4MTg7c3Ryb2tlLXdpZHRoOjE7Ii8+PGxpbmUgc3R5bGU9InN0cm9rZTojMTgxODE4O3N0cm9rZS13aWR0aDoxOyIgeDE9IjQwLjUiIHgyPSIyNDciIHkxPSIzNTYuMTI1IiB5Mj0iMzU2LjEyNSIvPjx0ZXh0IGZpbGw9IiMwMDAwMDAiIGZvbnQtZmFtaWx5PSJzYW5zLXNlcmlmIiBmb250LXNpemU9IjEzIiBsZW5ndGhBZGp1c3Q9InNwYWNpbmciIHRleHRMZW5ndGg9IjExNyIgeD0iNDcuNSIgeT0iMzUyLjUiPlNldHVqdWkgcGVtYmF5YXJhbjwvdGV4dD48L2c+PGcgY2xhc3M9Im1lc3NhZ2UiIGRhdGEtcGFydGljaXBhbnQtMT0iVUkiIGRhdGEtcGFydGljaXBhbnQtMj0iQ29udHJvbGxlciI+PHBvbHlnb24gZmlsbD0iIzE4MTgxOCIgcG9pbnRzPSI0NDAuNSwzODAuMDM5MSw0NTAuNSwzODQuMDM5MSw0NDAuNSwzODguMDM5MSw0NDQuNSwzODQuMDM5MSIgc3R5bGU9InN0cm9rZTojMTgxODE4O3N0cm9rZS13aWR0aDoxOyIvPjxsaW5lIHN0eWxlPSJzdHJva2U6IzE4MTgxODtzdHJva2Utd2lkdGg6MTsiIHgxPSIyNTMiIHgyPSI0NDYuNSIgeTE9IjM4NC4wMzkxIiB5Mj0iMzg0LjAzOTEiLz48dGV4dCBmaWxsPSIjMDAwMDAwIiBmb250LWZhbWlseT0ic2Fucy1zZXJpZiIgZm9udC1zaXplPSIxMyIgbGVuZ3RoQWRqdXN0PSJzcGFjaW5nIiB0ZXh0TGVuZ3RoPSIxMzYuNSIgeD0iMjYwIiB5PSIzODAuNDE0MSI+c2V0dWp1aVBlbWJheWFyYW4oaWQpPC90ZXh0PjwvZz48bGluZSBzdHlsZT0ic3Ryb2tlOiMwMDAwMDA7c3Ryb2tlLXdpZHRoOjE7c3Ryb2tlLWRhc2hhcnJheToyLjAsMi4wOyIgeDE9IjEwIiB4Mj0iNTcwLjUiIHkxPSIzOTMuMDM5MSIgeTI9IjM5My4wMzkxIi8+PHRleHQgZmlsbD0iIzAwMDAwMCIgZm9udC1mYW1pbHk9InNhbnMtc2VyaWYiIGZvbnQtc2l6ZT0iMTEiIGZvbnQtd2VpZ2h0PSJib2xkIiBsZW5ndGhBZGp1c3Q9InNwYWNpbmciIHRleHRMZW5ndGg9IjcxLjUiIHg9IjE1IiB5PSI0MDMuNDM3NSI+W1RpZGFrIHZhbGlkXTwvdGV4dD48ZyBjbGFzcz0ibWVzc2FnZSIgZGF0YS1wYXJ0aWNpcGFudC0xPSJBZG1pbiIgZGF0YS1wYXJ0aWNpcGFudC0yPSJVSSI+PHBvbHlnb24gZmlsbD0iIzE4MTgxOCIgcG9pbnRzPSIyNDEsNDIxLjcyNjYsMjUxLDQyNS43MjY2LDI0MSw0MjkuNzI2NiwyNDUsNDI1LjcyNjYiIHN0eWxlPSJzdHJva2U6IzE4MTgxODtzdHJva2Utd2lkdGg6MTsiLz48bGluZSBzdHlsZT0ic3Ryb2tlOiMxODE4MTg7c3Ryb2tlLXdpZHRoOjE7IiB4MT0iNDAuNSIgeDI9IjI0NyIgeTE9IjQyNS43MjY2IiB5Mj0iNDI1LjcyNjYiLz48dGV4dCBmaWxsPSIjMDAwMDAwIiBmb250LWZhbWlseT0ic2Fucy1zZXJpZiIgZm9udC1zaXplPSIxMyIgbGVuZ3RoQWRqdXN0PSJzcGFjaW5nIiB0ZXh0TGVuZ3RoPSIxNjIuNSIgeD0iNDcuNSIgeT0iNDIyLjEwMTYiPlRvbGFrIGRhbiBiZXJpIGtldGVyYW5nYW48L3RleHQ+PC9nPjxnIGNsYXNzPSJtZXNzYWdlIiBkYXRhLXBhcnRpY2lwYW50LTE9IlVJIiBkYXRhLXBhcnRpY2lwYW50LTI9IkNvbnRyb2xsZXIiPjxwb2x5Z29uIGZpbGw9IiMxODE4MTgiIHBvaW50cz0iNDQwLjUsNDQ5LjY0MDYsNDUwLjUsNDUzLjY0MDYsNDQwLjUsNDU3LjY0MDYsNDQ0LjUsNDUzLjY0MDYiIHN0eWxlPSJzdHJva2U6IzE4MTgxODtzdHJva2Utd2lkdGg6MTsiLz48bGluZSBzdHlsZT0ic3Ryb2tlOiMxODE4MTg7c3Ryb2tlLXdpZHRoOjE7IiB4MT0iMjUzIiB4Mj0iNDQ2LjUiIHkxPSI0NTMuNjQwNiIgeTI9IjQ1My42NDA2Ii8+PHRleHQgZmlsbD0iIzAwMDAwMCIgZm9udC1mYW1pbHk9InNhbnMtc2VyaWYiIGZvbnQtc2l6ZT0iMTMiIGxlbmd0aEFkanVzdD0ic3BhY2luZyIgdGV4dExlbmd0aD0iMTc1LjUiIHg9IjI2MCIgeT0iNDUwLjAxNTYiPnRvbGFrUGVtYmF5YXJhbihpZCwgYWxhc2FuKTwvdGV4dD48L2c+PGcgY2xhc3M9Im1lc3NhZ2UiIGRhdGEtcGFydGljaXBhbnQtMT0iQ29udHJvbGxlciIgZGF0YS1wYXJ0aWNpcGFudC0yPSJFbnRpdHkiPjxwb2x5Z29uIGZpbGw9IiMxODE4MTgiIHBvaW50cz0iNjIxLDQ4NC41NTQ3LDYzMSw0ODguNTU0Nyw2MjEsNDkyLjU1NDcsNjI1LDQ4OC41NTQ3IiBzdHlsZT0ic3Ryb2tlOiMxODE4MTg7c3Ryb2tlLXdpZHRoOjE7Ii8+PGxpbmUgc3R5bGU9InN0cm9rZTojMTgxODE4O3N0cm9rZS13aWR0aDoxOyIgeDE9IjQ1Mi41IiB4Mj0iNjI3IiB5MT0iNDg4LjU1NDciIHkyPSI0ODguNTU0NyIvPjx0ZXh0IGZpbGw9IiMwMDAwMDAiIGZvbnQtZmFtaWx5PSJzYW5zLXNlcmlmIiBmb250LXNpemU9IjEzIiBsZW5ndGhBZGp1c3Q9InNwYWNpbmciIHRleHRMZW5ndGg9IjE1NiIgeD0iNDU5LjUiIHk9IjQ4NC45Mjk3Ij51cGRhdGVTdGF0dXNQZW1iYXlhcmFuKCk8L3RleHQ+PC9nPjwhLS1TUkM9W1RQN0ZSZUNtM0NSbFVHZ0JLb1VqQnkxWHFqUnJLNnM3SWdNeDYtQW9aMTFHdWFwZ3N5XzBEbHU4U2EwQV9scHhGWmpPU0VGWE1UVjZnUm85SmdFX0d0OHpmSHplWlNQV3U0bnJaZFZxdzFCMDBEVUpBWGg3bGg2RzdGdkxlLVdtNTJ0dk5adlU1SmFzQkYxWi1YOGhEV2xraVF5Z3JLVTFfUENPR0dobEpJZDF2bF9VaEFjVzlYVFg5UUNJWUdYN01zYldoNWpaQXRJbFU2RnFsVmxrR0txcXFaN3VZeGVhTmtHSnhNenJscUpoYUpaWl9NTFRNMGpmQ1NwUE1GQzkwSXJzTnV2MlA1bVJlZzJnanlhYUtCWUh0bmFqQ0JHeVI0NjFkM2R3R1hvX2VlNXNONHVkTWM2N0dKY1BrOEVKM0dJUEJCWTJ4bXNCaEI1SXJVV1c5cy1XOFlSZkJoVVRrNmtPLUpvMnAxeEdZUF9KUWtqSE9ZanhlR2xCWGlCcU9OdTBdLS0+PC9nPjwvc3ZnPg==;" vertex="1" parent="1">
            <mxGeometry x="-680" y="-510" width="696" height="586" as="geometry" />
          </mxCell>
        </UserObject>
        <UserObject label="" plantUmlData="{&#xa;  &quot;data&quot;: &quot;@startuml\nactor Admin\nboundary \&quot;UI:Upload Pembayaran Lunas\&quot; as UI\ncontrol \&quot;C:StatusPembayaranController\&quot; as Controller\nentity \&quot;E:Pembayaran\&quot; as Entity\n\nAdmin -&gt; UI : Login\nAdmin -&gt; UI : Pilih data siswa yang sudah divalidasi\nAdmin -&gt; UI : Klik Upload Pembayaran Lunas\nUI -&gt; Controller : uploadStatusLunas(siswaId)\nController -&gt; Entity : updateStatusLunas(siswaId)\nEntity --&gt; Controller : konfirmasi update\nController --&gt; UI : tampilkan notifikasi berhasil\n@enduml\n&quot;,&#xa;  &quot;format&quot;: &quot;svg&quot;&#xa;}" id="f9MgHtHTdjxqu1ZTsrYx-7">
          <mxCell style="shape=image;noLabel=1;verticalAlign=top;aspect=fixed;imageAspect=0;image=data:image/svg+xml,PHN2ZyB4bWxucz0iaHR0cDovL3d3dy53My5vcmcvMjAwMC9zdmciIHhtbG5zOnhsaW5rPSJodHRwOi8vd3d3LnczLm9yZy8xOTk5L3hsaW5rIiBjb250ZW50U3R5bGVUeXBlPSJ0ZXh0L2NzcyIgZGF0YS1kaWFncmFtLXR5cGU9IlNFUVVFTkNFIiBoZWlnaHQ9IjM3NHB4IiBwcmVzZXJ2ZUFzcGVjdFJhdGlvPSJub25lIiBzdHlsZT0id2lkdGg6NzQ4cHg7aGVpZ2h0OjM3NHB4O2JhY2tncm91bmQ6I0ZGRkZGRjsiIHZlcnNpb249IjEuMSIgdmlld0JveD0iMCAwIDc0OCAzNzQiIHdpZHRoPSI3NDhweCIgem9vbUFuZFBhbj0ibWFnbmlmeSI+PGRlZnMvPjxnPjxnPjx0aXRsZT5BZG1pbjwvdGl0bGU+PHJlY3QgZmlsbD0iIzAwMDAwMCIgZmlsbC1vcGFjaXR5PSIwLjAwMDAwIiBoZWlnaHQ9IjIxNS4zOTg0IiB3aWR0aD0iOCIgeD0iMjEuNSIgeT0iNzkuOTg0NCIvPjxsaW5lIHN0eWxlPSJzdHJva2U6IzE4MTgxODtzdHJva2Utd2lkdGg6MC41O3N0cm9rZS1kYXNoYXJyYXk6NS4wLDUuMDsiIHgxPSIyNSIgeDI9IjI1IiB5MT0iNzkuOTg0NCIgeTI9IjI5NS4zODI4Ii8+PC9nPjxnPjx0aXRsZT5VSTpVcGxvYWQgUGVtYmF5YXJhbiBMdW5hczwvdGl0bGU+PHJlY3QgZmlsbD0iIzAwMDAwMCIgZmlsbC1vcGFjaXR5PSIwLjAwMDAwIiBoZWlnaHQ9IjIxNS4zOTg0IiB3aWR0aD0iOCIgeD0iMjkyLjUiIHk9Ijc5Ljk4NDQiLz48bGluZSBzdHlsZT0ic3Ryb2tlOiMxODE4MTg7c3Ryb2tlLXdpZHRoOjAuNTtzdHJva2UtZGFzaGFycmF5OjUuMCw1LjA7IiB4MT0iMjk2LjUiIHgyPSIyOTYuNSIgeTE9Ijc5Ljk4NDQiIHkyPSIyOTUuMzgyOCIvPjwvZz48Zz48dGl0bGU+QzpTdGF0dXNQZW1iYXlhcmFuQ29udHJvbGxlcjwvdGl0bGU+PHJlY3QgZmlsbD0iIzAwMDAwMCIgZmlsbC1vcGFjaXR5PSIwLjAwMDAwIiBoZWlnaHQ9IjIxNS4zOTg0IiB3aWR0aD0iOCIgeD0iNTA1IiB5PSI3OS45ODQ0Ii8+PGxpbmUgc3R5bGU9InN0cm9rZTojMTgxODE4O3N0cm9rZS13aWR0aDowLjU7c3Ryb2tlLWRhc2hhcnJheTo1LjAsNS4wOyIgeDE9IjUwOSIgeDI9IjUwOSIgeTE9Ijc5Ljk4NDQiIHkyPSIyOTUuMzgyOCIvPjwvZz48Zz48dGl0bGU+RTpQZW1iYXlhcmFuPC90aXRsZT48cmVjdCBmaWxsPSIjMDAwMDAwIiBmaWxsLW9wYWNpdHk9IjAuMDAwMDAiIGhlaWdodD0iMjE1LjM5ODQiIHdpZHRoPSI4IiB4PSI2OTgiIHk9Ijc5Ljk4NDQiLz48bGluZSBzdHlsZT0ic3Ryb2tlOiMxODE4MTg7c3Ryb2tlLXdpZHRoOjAuNTtzdHJva2UtZGFzaGFycmF5OjUuMCw1LjA7IiB4MT0iNzAyIiB4Mj0iNzAyIiB5MT0iNzkuOTg0NCIgeTI9IjI5NS4zODI4Ii8+PC9nPjxnIGNsYXNzPSJwYXJ0aWNpcGFudCBwYXJ0aWNpcGFudC1oZWFkIiBkYXRhLXBhcnRpY2lwYW50PSJBZG1pbiI+PHRleHQgZmlsbD0iIzAwMDAwMCIgZm9udC1mYW1pbHk9InNhbnMtc2VyaWYiIGZvbnQtc2l6ZT0iMTQiIGxlbmd0aEFkanVzdD0ic3BhY2luZyIgdGV4dExlbmd0aD0iMzUiIHg9IjUiIHk9Ijc4LjIzNDQiPkFkbWluPC90ZXh0PjxlbGxpcHNlIGN4PSIyNS41IiBjeT0iMTMuNSIgZmlsbD0iI0UyRTJGMCIgcng9IjgiIHJ5PSI4IiBzdHlsZT0ic3Ryb2tlOiMxODE4MTg7c3Ryb2tlLXdpZHRoOjAuNTsiLz48cGF0aCBkPSJNMjUuNSwyMS41IEwyNS41LDQ4LjUgTTEyLjUsMjkuNSBMMzguNSwyOS41IE0yNS41LDQ4LjUgTDEyLjUsNjMuNSBNMjUuNSw0OC41IEwzOC41LDYzLjUiIGZpbGw9Im5vbmUiIHN0eWxlPSJzdHJva2U6IzE4MTgxODtzdHJva2Utd2lkdGg6MC41OyIvPjwvZz48ZyBjbGFzcz0icGFydGljaXBhbnQgcGFydGljaXBhbnQtdGFpbCIgZGF0YS1wYXJ0aWNpcGFudD0iQWRtaW4iPjx0ZXh0IGZpbGw9IiMwMDAwMDAiIGZvbnQtZmFtaWx5PSJzYW5zLXNlcmlmIiBmb250LXNpemU9IjE0IiBsZW5ndGhBZGp1c3Q9InNwYWNpbmciIHRleHRMZW5ndGg9IjM1IiB4PSI1IiB5PSIzMDcuNjE3MiI+QWRtaW48L3RleHQ+PGVsbGlwc2UgY3g9IjI1LjUiIGN5PSIzMTcuODY3MiIgZmlsbD0iI0UyRTJGMCIgcng9IjgiIHJ5PSI4IiBzdHlsZT0ic3Ryb2tlOiMxODE4MTg7c3Ryb2tlLXdpZHRoOjAuNTsiLz48cGF0aCBkPSJNMjUuNSwzMjUuODY3MiBMMjUuNSwzNTIuODY3MiBNMTIuNSwzMzMuODY3MiBMMzguNSwzMzMuODY3MiBNMjUuNSwzNTIuODY3MiBMMTIuNSwzNjcuODY3MiBNMjUuNSwzNTIuODY3MiBMMzguNSwzNjcuODY3MiIgZmlsbD0ibm9uZSIgc3R5bGU9InN0cm9rZTojMTgxODE4O3N0cm9rZS13aWR0aDowLjU7Ii8+PC9nPjxnIGNsYXNzPSJwYXJ0aWNpcGFudCBwYXJ0aWNpcGFudC1oZWFkIiBkYXRhLXBhcnRpY2lwYW50PSJVSSI+PHRleHQgZmlsbD0iIzAwMDAwMCIgZm9udC1mYW1pbHk9InNhbnMtc2VyaWYiIGZvbnQtc2l6ZT0iMTQiIGxlbmd0aEFkanVzdD0ic3BhY2luZyIgdGV4dExlbmd0aD0iMTgyIiB4PSIyMDIuNSIgeT0iNzguMjM0NCI+VUk6VXBsb2FkIFBlbWJheWFyYW4gTHVuYXM8L3RleHQ+PHBhdGggZD0iTTI3NiwzNyBMMjc2LDYxIE0yNzYsNDkgTDI5Myw0OSIgZmlsbD0ibm9uZSIgc3R5bGU9InN0cm9rZTojMTgxODE4O3N0cm9rZS13aWR0aDowLjU7Ii8+PGVsbGlwc2UgY3g9IjMwNSIgY3k9IjQ5IiBmaWxsPSIjRTJFMkYwIiByeD0iMTIiIHJ5PSIxMiIgc3R5bGU9InN0cm9rZTojMTgxODE4O3N0cm9rZS13aWR0aDowLjU7Ii8+PC9nPjxnIGNsYXNzPSJwYXJ0aWNpcGFudCBwYXJ0aWNpcGFudC10YWlsIiBkYXRhLXBhcnRpY2lwYW50PSJVSSI+PHRleHQgZmlsbD0iIzAwMDAwMCIgZm9udC1mYW1pbHk9InNhbnMtc2VyaWYiIGZvbnQtc2l6ZT0iMTQiIGxlbmd0aEFkanVzdD0ic3BhY2luZyIgdGV4dExlbmd0aD0iMTgyIiB4PSIyMDIuNSIgeT0iMzA3LjYxNzIiPlVJOlVwbG9hZCBQZW1iYXlhcmFuIEx1bmFzPC90ZXh0PjxwYXRoIGQ9Ik0yNzYsMzEzLjM2NzIgTDI3NiwzMzcuMzY3MiBNMjc2LDMyNS4zNjcyIEwyOTMsMzI1LjM2NzIiIGZpbGw9Im5vbmUiIHN0eWxlPSJzdHJva2U6IzE4MTgxODtzdHJva2Utd2lkdGg6MC41OyIvPjxlbGxpcHNlIGN4PSIzMDUiIGN5PSIzMjUuMzY3MiIgZmlsbD0iI0UyRTJGMCIgcng9IjEyIiByeT0iMTIiIHN0eWxlPSJzdHJva2U6IzE4MTgxODtzdHJva2Utd2lkdGg6MC41OyIvPjwvZz48ZyBjbGFzcz0icGFydGljaXBhbnQgcGFydGljaXBhbnQtaGVhZCIgZGF0YS1wYXJ0aWNpcGFudD0iQ29udHJvbGxlciI+PHRleHQgZmlsbD0iIzAwMDAwMCIgZm9udC1mYW1pbHk9InNhbnMtc2VyaWYiIGZvbnQtc2l6ZT0iMTQiIGxlbmd0aEFkanVzdD0ic3BhY2luZyIgdGV4dExlbmd0aD0iMTk2IiB4PSI0MDgiIHk9Ijc4LjIzNDQiPkM6U3RhdHVzUGVtYmF5YXJhbkNvbnRyb2xsZXI8L3RleHQ+PGVsbGlwc2UgY3g9IjUwOSIgY3k9IjQ5IiBmaWxsPSIjRTJFMkYwIiByeD0iMTIiIHJ5PSIxMiIgc3R5bGU9InN0cm9rZTojMTgxODE4O3N0cm9rZS13aWR0aDowLjU7Ii8+PHBvbHlnb24gZmlsbD0iIzE4MTgxOCIgcG9pbnRzPSI1MDUsMzcsNTExLDMyLDUwOSwzNyw1MTEsNDIsNTA1LDM3IiBzdHlsZT0ic3Ryb2tlOiMxODE4MTg7c3Ryb2tlLXdpZHRoOjE7Ii8+PC9nPjxnIGNsYXNzPSJwYXJ0aWNpcGFudCBwYXJ0aWNpcGFudC10YWlsIiBkYXRhLXBhcnRpY2lwYW50PSJDb250cm9sbGVyIj48dGV4dCBmaWxsPSIjMDAwMDAwIiBmb250LWZhbWlseT0ic2Fucy1zZXJpZiIgZm9udC1zaXplPSIxNCIgbGVuZ3RoQWRqdXN0PSJzcGFjaW5nIiB0ZXh0TGVuZ3RoPSIxOTYiIHg9IjQwOCIgeT0iMzA3LjYxNzIiPkM6U3RhdHVzUGVtYmF5YXJhbkNvbnRyb2xsZXI8L3RleHQ+PGVsbGlwc2UgY3g9IjUwOSIgY3k9IjMyNS4zNjcyIiBmaWxsPSIjRTJFMkYwIiByeD0iMTIiIHJ5PSIxMiIgc3R5bGU9InN0cm9rZTojMTgxODE4O3N0cm9rZS13aWR0aDowLjU7Ii8+PHBvbHlnb24gZmlsbD0iIzE4MTgxOCIgcG9pbnRzPSI1MDUsMzEzLjM2NzIsNTExLDMwOC4zNjcyLDUwOSwzMTMuMzY3Miw1MTEsMzE4LjM2NzIsNTA1LDMxMy4zNjcyIiBzdHlsZT0ic3Ryb2tlOiMxODE4MTg7c3Ryb2tlLXdpZHRoOjE7Ii8+PC9nPjxnIGNsYXNzPSJwYXJ0aWNpcGFudCBwYXJ0aWNpcGFudC1oZWFkIiBkYXRhLXBhcnRpY2lwYW50PSJFbnRpdHkiPjx0ZXh0IGZpbGw9IiMwMDAwMDAiIGZvbnQtZmFtaWx5PSJzYW5zLXNlcmlmIiBmb250LXNpemU9IjE0IiBsZW5ndGhBZGp1c3Q9InNwYWNpbmciIHRleHRMZW5ndGg9Ijg0IiB4PSI2NTciIHk9Ijc4LjIzNDQiPkU6UGVtYmF5YXJhbjwvdGV4dD48ZWxsaXBzZSBjeD0iNzAyIiBjeT0iNDkiIGZpbGw9IiNFMkUyRjAiIHJ4PSIxMiIgcnk9IjEyIiBzdHlsZT0ic3Ryb2tlOiMxODE4MTg7c3Ryb2tlLXdpZHRoOjAuNTsiLz48bGluZSBzdHlsZT0ic3Ryb2tlOiMxODE4MTg7c3Ryb2tlLXdpZHRoOjAuNTsiIHgxPSI2OTAiIHgyPSI3MTQiIHkxPSI2MyIgeTI9IjYzIi8+PC9nPjxnIGNsYXNzPSJwYXJ0aWNpcGFudCBwYXJ0aWNpcGFudC10YWlsIiBkYXRhLXBhcnRpY2lwYW50PSJFbnRpdHkiPjx0ZXh0IGZpbGw9IiMwMDAwMDAiIGZvbnQtZmFtaWx5PSJzYW5zLXNlcmlmIiBmb250LXNpemU9IjE0IiBsZW5ndGhBZGp1c3Q9InNwYWNpbmciIHRleHRMZW5ndGg9Ijg0IiB4PSI2NTciIHk9IjMwNy42MTcyIj5FOlBlbWJheWFyYW48L3RleHQ+PGVsbGlwc2UgY3g9IjcwMiIgY3k9IjMyNS4zNjcyIiBmaWxsPSIjRTJFMkYwIiByeD0iMTIiIHJ5PSIxMiIgc3R5bGU9InN0cm9rZTojMTgxODE4O3N0cm9rZS13aWR0aDowLjU7Ii8+PGxpbmUgc3R5bGU9InN0cm9rZTojMTgxODE4O3N0cm9rZS13aWR0aDowLjU7IiB4MT0iNjkwIiB4Mj0iNzE0IiB5MT0iMzM5LjM2NzIiIHkyPSIzMzkuMzY3MiIvPjwvZz48ZyBjbGFzcz0ibWVzc2FnZSIgZGF0YS1wYXJ0aWNpcGFudC0xPSJBZG1pbiIgZGF0YS1wYXJ0aWNpcGFudC0yPSJVSSI+PHBvbHlnb24gZmlsbD0iIzE4MTgxOCIgcG9pbnRzPSIyODQuNSwxMDUuODk4NCwyOTQuNSwxMDkuODk4NCwyODQuNSwxMTMuODk4NCwyODguNSwxMDkuODk4NCIgc3R5bGU9InN0cm9rZTojMTgxODE4O3N0cm9rZS13aWR0aDoxOyIvPjxsaW5lIHN0eWxlPSJzdHJva2U6IzE4MTgxODtzdHJva2Utd2lkdGg6MTsiIHgxPSIyNS41IiB4Mj0iMjkwLjUiIHkxPSIxMDkuODk4NCIgeTI9IjEwOS44OTg0Ii8+PHRleHQgZmlsbD0iIzAwMDAwMCIgZm9udC1mYW1pbHk9InNhbnMtc2VyaWYiIGZvbnQtc2l6ZT0iMTMiIGxlbmd0aEFkanVzdD0ic3BhY2luZyIgdGV4dExlbmd0aD0iMzIuNSIgeD0iMzIuNSIgeT0iMTA2LjI3MzQiPkxvZ2luPC90ZXh0PjwvZz48ZyBjbGFzcz0ibWVzc2FnZSIgZGF0YS1wYXJ0aWNpcGFudC0xPSJBZG1pbiIgZGF0YS1wYXJ0aWNpcGFudC0yPSJVSSI+PHBvbHlnb24gZmlsbD0iIzE4MTgxOCIgcG9pbnRzPSIyODQuNSwxMzMuODEyNSwyOTQuNSwxMzcuODEyNSwyODQuNSwxNDEuODEyNSwyODguNSwxMzcuODEyNSIgc3R5bGU9InN0cm9rZTojMTgxODE4O3N0cm9rZS13aWR0aDoxOyIvPjxsaW5lIHN0eWxlPSJzdHJva2U6IzE4MTgxODtzdHJva2Utd2lkdGg6MTsiIHgxPSIyNS41IiB4Mj0iMjkwLjUiIHkxPSIxMzcuODEyNSIgeTI9IjEzNy44MTI1Ii8+PHRleHQgZmlsbD0iIzAwMDAwMCIgZm9udC1mYW1pbHk9InNhbnMtc2VyaWYiIGZvbnQtc2l6ZT0iMTMiIGxlbmd0aEFkanVzdD0ic3BhY2luZyIgdGV4dExlbmd0aD0iMjQ3IiB4PSIzMi41IiB5PSIxMzQuMTg3NSI+UGlsaWggZGF0YSBzaXN3YSB5YW5nIHN1ZGFoIGRpdmFsaWRhc2k8L3RleHQ+PC9nPjxnIGNsYXNzPSJtZXNzYWdlIiBkYXRhLXBhcnRpY2lwYW50LTE9IkFkbWluIiBkYXRhLXBhcnRpY2lwYW50LTI9IlVJIj48cG9seWdvbiBmaWxsPSIjMTgxODE4IiBwb2ludHM9IjI4NC41LDE2MS43MjY2LDI5NC41LDE2NS43MjY2LDI4NC41LDE2OS43MjY2LDI4OC41LDE2NS43MjY2IiBzdHlsZT0ic3Ryb2tlOiMxODE4MTg7c3Ryb2tlLXdpZHRoOjE7Ii8+PGxpbmUgc3R5bGU9InN0cm9rZTojMTgxODE4O3N0cm9rZS13aWR0aDoxOyIgeDE9IjI1LjUiIHgyPSIyOTAuNSIgeTE9IjE2NS43MjY2IiB5Mj0iMTY1LjcyNjYiLz48dGV4dCBmaWxsPSIjMDAwMDAwIiBmb250LWZhbWlseT0ic2Fucy1zZXJpZiIgZm9udC1zaXplPSIxMyIgbGVuZ3RoQWRqdXN0PSJzcGFjaW5nIiB0ZXh0TGVuZ3RoPSIxODIiIHg9IjMyLjUiIHk9IjE2Mi4xMDE2Ij5LbGlrIFVwbG9hZCBQZW1iYXlhcmFuIEx1bmFzPC90ZXh0PjwvZz48ZyBjbGFzcz0ibWVzc2FnZSIgZGF0YS1wYXJ0aWNpcGFudC0xPSJVSSIgZGF0YS1wYXJ0aWNpcGFudC0yPSJDb250cm9sbGVyIj48cG9seWdvbiBmaWxsPSIjMTgxODE4IiBwb2ludHM9IjQ5NywxODkuNjQwNiw1MDcsMTkzLjY0MDYsNDk3LDE5Ny42NDA2LDUwMSwxOTMuNjQwNiIgc3R5bGU9InN0cm9rZTojMTgxODE4O3N0cm9rZS13aWR0aDoxOyIvPjxsaW5lIHN0eWxlPSJzdHJva2U6IzE4MTgxODtzdHJva2Utd2lkdGg6MTsiIHgxPSIyOTYuNSIgeDI9IjUwMyIgeTE9IjE5My42NDA2IiB5Mj0iMTkzLjY0MDYiLz48dGV4dCBmaWxsPSIjMDAwMDAwIiBmb250LWZhbWlseT0ic2Fucy1zZXJpZiIgZm9udC1zaXplPSIxMyIgbGVuZ3RoQWRqdXN0PSJzcGFjaW5nIiB0ZXh0TGVuZ3RoPSIxNjkiIHg9IjMwMy41IiB5PSIxOTAuMDE1NiI+dXBsb2FkU3RhdHVzTHVuYXMoc2lzd2FJZCk8L3RleHQ+PC9nPjxnIGNsYXNzPSJtZXNzYWdlIiBkYXRhLXBhcnRpY2lwYW50LTE9IkNvbnRyb2xsZXIiIGRhdGEtcGFydGljaXBhbnQtMj0iRW50aXR5Ij48cG9seWdvbiBmaWxsPSIjMTgxODE4IiBwb2ludHM9IjY5MCwyMTcuNTU0Nyw3MDAsMjIxLjU1NDcsNjkwLDIyNS41NTQ3LDY5NCwyMjEuNTU0NyIgc3R5bGU9InN0cm9rZTojMTgxODE4O3N0cm9rZS13aWR0aDoxOyIvPjxsaW5lIHN0eWxlPSJzdHJva2U6IzE4MTgxODtzdHJva2Utd2lkdGg6MTsiIHgxPSI1MDkiIHgyPSI2OTYiIHkxPSIyMjEuNTU0NyIgeTI9IjIyMS41NTQ3Ii8+PHRleHQgZmlsbD0iIzAwMDAwMCIgZm9udC1mYW1pbHk9InNhbnMtc2VyaWYiIGZvbnQtc2l6ZT0iMTMiIGxlbmd0aEFkanVzdD0ic3BhY2luZyIgdGV4dExlbmd0aD0iMTY5IiB4PSI1MTYiIHk9IjIxNy45Mjk3Ij51cGRhdGVTdGF0dXNMdW5hcyhzaXN3YUlkKTwvdGV4dD48L2c+PGcgY2xhc3M9Im1lc3NhZ2UiIGRhdGEtcGFydGljaXBhbnQtMT0iRW50aXR5IiBkYXRhLXBhcnRpY2lwYW50LTI9IkNvbnRyb2xsZXIiPjxwb2x5Z29uIGZpbGw9IiMxODE4MTgiIHBvaW50cz0iNTIwLDI0NS40Njg4LDUxMCwyNDkuNDY4OCw1MjAsMjUzLjQ2ODgsNTE2LDI0OS40Njg4IiBzdHlsZT0ic3Ryb2tlOiMxODE4MTg7c3Ryb2tlLXdpZHRoOjE7Ii8+PGxpbmUgc3R5bGU9InN0cm9rZTojMTgxODE4O3N0cm9rZS13aWR0aDoxO3N0cm9rZS1kYXNoYXJyYXk6Mi4wLDIuMDsiIHgxPSI1MTQiIHgyPSI3MDEiIHkxPSIyNDkuNDY4OCIgeTI9IjI0OS40Njg4Ii8+PHRleHQgZmlsbD0iIzAwMDAwMCIgZm9udC1mYW1pbHk9InNhbnMtc2VyaWYiIGZvbnQtc2l6ZT0iMTMiIGxlbmd0aEFkanVzdD0ic3BhY2luZyIgdGV4dExlbmd0aD0iMTEwLjUiIHg9IjUyNiIgeT0iMjQ1Ljg0MzgiPmtvbmZpcm1hc2kgdXBkYXRlPC90ZXh0PjwvZz48ZyBjbGFzcz0ibWVzc2FnZSIgZGF0YS1wYXJ0aWNpcGFudC0xPSJDb250cm9sbGVyIiBkYXRhLXBhcnRpY2lwYW50LTI9IlVJIj48cG9seWdvbiBmaWxsPSIjMTgxODE4IiBwb2ludHM9IjMwNy41LDI3My4zODI4LDI5Ny41LDI3Ny4zODI4LDMwNy41LDI4MS4zODI4LDMwMy41LDI3Ny4zODI4IiBzdHlsZT0ic3Ryb2tlOiMxODE4MTg7c3Ryb2tlLXdpZHRoOjE7Ii8+PGxpbmUgc3R5bGU9InN0cm9rZTojMTgxODE4O3N0cm9rZS13aWR0aDoxO3N0cm9rZS1kYXNoYXJyYXk6Mi4wLDIuMDsiIHgxPSIzMDEuNSIgeDI9IjUwOCIgeTE9IjI3Ny4zODI4IiB5Mj0iMjc3LjM4MjgiLz48dGV4dCBmaWxsPSIjMDAwMDAwIiBmb250LWZhbWlseT0ic2Fucy1zZXJpZiIgZm9udC1zaXplPSIxMyIgbGVuZ3RoQWRqdXN0PSJzcGFjaW5nIiB0ZXh0TGVuZ3RoPSIxODguNSIgeD0iMzEzLjUiIHk9IjI3My43NTc4Ij50YW1waWxrYW4gbm90aWZpa2FzaSBiZXJoYXNpbDwvdGV4dD48L2c+PCEtLVNSQz1bVE9fMVJpOG0zOFJsVUdnaDl0UlcxTmYwR2VYM0RHdjhnMF9XYVcxTUt3VEFkNHJ6VXFwQXI4NnNLbkp4LSAtdEZVOU9HT01pN09qRTVwMVJaMTVOUnJFdGUwcmV1a2c3MzJJQ283MzlaZ1cwSmo4cXYxdk9PRjVJeC1ZR2VFSXRXUmN2djVta3lWOHJaOFQ3bi10Z1gyeENsM01FQTF3bXRrVzVnRThJaE1odE1aa0pmMVhPNThMN3dIZllHaHYyb0hRdEk1dGdvY0VXanpFY2ZYdHlFQ2FlZWpyV2dkbWl3dHJNV0xUZExzMF9wWXpGS3g1cUlna0otSjNvUHpWa0lGbDI1dWcyc3BfSkJ4MXpybU00YXR3aWoxdzRCekctIC1TXzZjaHh5M10tLT48L2c+PC9zdmc+;" vertex="1" parent="1">
            <mxGeometry x="102" y="-40" width="748" height="374" as="geometry" />
          </mxCell>
        </UserObject>
        <UserObject label="" plantUmlData="{&#xa;  &quot;data&quot;: &quot;@startuml\nactor Admin\nboundary \&quot;UI:Manajemen Data Siswa\&quot; as UI\ncontrol \&quot;C:SiswaController\&quot; as Controller\nentity \&quot;E:Siswa\&quot; as Entity\n\nAdmin -&gt; UI : Login\nAdmin -&gt; UI : Pilih menu Data Siswa\nUI -&gt; Controller : getDaftarSiswa()\nController -&gt; Entity : fetchAll()\nEntity --&gt; Controller : daftarSiswa\nController --&gt; UI : tampilkanDaftarSiswa()\n\nAdmin -&gt; UI : Tambah/Edit/Hapus data siswa\nUI -&gt; Controller : updateDataSiswa(data)\nController -&gt; Entity : simpanPerubahan(data)\nEntity --&gt; Controller : konfirmasi simpan\nController --&gt; UI : tampilkan notifikasi berhasil\n@enduml\n&quot;,&#xa;  &quot;format&quot;: &quot;svg&quot;&#xa;}" id="f9MgHtHTdjxqu1ZTsrYx-8">
          <mxCell style="shape=image;noLabel=1;verticalAlign=top;aspect=fixed;imageAspect=0;image=data:image/svg+xml,PHN2ZyB4bWxucz0iaHR0cDovL3d3dy53My5vcmcvMjAwMC9zdmciIHhtbG5zOnhsaW5rPSJodHRwOi8vd3d3LnczLm9yZy8xOTk5L3hsaW5rIiBjb250ZW50U3R5bGVUeXBlPSJ0ZXh0L2NzcyIgZGF0YS1kaWFncmFtLXR5cGU9IlNFUVVFTkNFIiBoZWlnaHQ9IjQ4NnB4IiBwcmVzZXJ2ZUFzcGVjdFJhdGlvPSJub25lIiBzdHlsZT0id2lkdGg6NjMzcHg7aGVpZ2h0OjQ4NnB4O2JhY2tncm91bmQ6I0ZGRkZGRjsiIHZlcnNpb249IjEuMSIgdmlld0JveD0iMCAwIDYzMyA0ODYiIHdpZHRoPSI2MzNweCIgem9vbUFuZFBhbj0ibWFnbmlmeSI+PGRlZnMvPjxnPjxnPjx0aXRsZT5BZG1pbjwvdGl0bGU+PHJlY3QgZmlsbD0iIzAwMDAwMCIgZmlsbC1vcGFjaXR5PSIwLjAwMDAwIiBoZWlnaHQ9IjMyNy4wNTQ3IiB3aWR0aD0iOCIgeD0iMjEuNSIgeT0iNzkuOTg0NCIvPjxsaW5lIHN0eWxlPSJzdHJva2U6IzE4MTgxODtzdHJva2Utd2lkdGg6MC41O3N0cm9rZS1kYXNoYXJyYXk6NS4wLDUuMDsiIHgxPSIyNSIgeDI9IjI1IiB5MT0iNzkuOTg0NCIgeTI9IjQwNy4wMzkxIi8+PC9nPjxnPjx0aXRsZT5VSTpNYW5hamVtZW4gRGF0YSBTaXN3YTwvdGl0bGU+PHJlY3QgZmlsbD0iIzAwMDAwMCIgZmlsbC1vcGFjaXR5PSIwLjAwMDAwIiBoZWlnaHQ9IjMyNy4wNTQ3IiB3aWR0aD0iOCIgeD0iMjI3LjUiIHk9Ijc5Ljk4NDQiLz48bGluZSBzdHlsZT0ic3Ryb2tlOiMxODE4MTg7c3Ryb2tlLXdpZHRoOjAuNTtzdHJva2UtZGFzaGFycmF5OjUuMCw1LjA7IiB4MT0iMjMxIiB4Mj0iMjMxIiB5MT0iNzkuOTg0NCIgeTI9IjQwNy4wMzkxIi8+PC9nPjxnPjx0aXRsZT5DOlNpc3dhQ29udHJvbGxlcjwvdGl0bGU+PHJlY3QgZmlsbD0iIzAwMDAwMCIgZmlsbC1vcGFjaXR5PSIwLjAwMDAwIiBoZWlnaHQ9IjMyNy4wNTQ3IiB3aWR0aD0iOCIgeD0iNDQwIiB5PSI3OS45ODQ0Ii8+PGxpbmUgc3R5bGU9InN0cm9rZTojMTgxODE4O3N0cm9rZS13aWR0aDowLjU7c3Ryb2tlLWRhc2hhcnJheTo1LjAsNS4wOyIgeDE9IjQ0My41IiB4Mj0iNDQzLjUiIHkxPSI3OS45ODQ0IiB5Mj0iNDA3LjAzOTEiLz48L2c+PGc+PHRpdGxlPkU6U2lzd2E8L3RpdGxlPjxyZWN0IGZpbGw9IiMwMDAwMDAiIGZpbGwtb3BhY2l0eT0iMC4wMDAwMCIgaGVpZ2h0PSIzMjcuMDU0NyIgd2lkdGg9IjgiIHg9IjYwMC41IiB5PSI3OS45ODQ0Ii8+PGxpbmUgc3R5bGU9InN0cm9rZTojMTgxODE4O3N0cm9rZS13aWR0aDowLjU7c3Ryb2tlLWRhc2hhcnJheTo1LjAsNS4wOyIgeDE9IjYwNCIgeDI9IjYwNCIgeTE9Ijc5Ljk4NDQiIHkyPSI0MDcuMDM5MSIvPjwvZz48ZyBjbGFzcz0icGFydGljaXBhbnQgcGFydGljaXBhbnQtaGVhZCIgZGF0YS1wYXJ0aWNpcGFudD0iQWRtaW4iPjx0ZXh0IGZpbGw9IiMwMDAwMDAiIGZvbnQtZmFtaWx5PSJzYW5zLXNlcmlmIiBmb250LXNpemU9IjE0IiBsZW5ndGhBZGp1c3Q9InNwYWNpbmciIHRleHRMZW5ndGg9IjM1IiB4PSI1IiB5PSI3OC4yMzQ0Ij5BZG1pbjwvdGV4dD48ZWxsaXBzZSBjeD0iMjUuNSIgY3k9IjEzLjUiIGZpbGw9IiNFMkUyRjAiIHJ4PSI4IiByeT0iOCIgc3R5bGU9InN0cm9rZTojMTgxODE4O3N0cm9rZS13aWR0aDowLjU7Ii8+PHBhdGggZD0iTTI1LjUsMjEuNSBMMjUuNSw0OC41IE0xMi41LDI5LjUgTDM4LjUsMjkuNSBNMjUuNSw0OC41IEwxMi41LDYzLjUgTTI1LjUsNDguNSBMMzguNSw2My41IiBmaWxsPSJub25lIiBzdHlsZT0ic3Ryb2tlOiMxODE4MTg7c3Ryb2tlLXdpZHRoOjAuNTsiLz48L2c+PGcgY2xhc3M9InBhcnRpY2lwYW50IHBhcnRpY2lwYW50LXRhaWwiIGRhdGEtcGFydGljaXBhbnQ9IkFkbWluIj48dGV4dCBmaWxsPSIjMDAwMDAwIiBmb250LWZhbWlseT0ic2Fucy1zZXJpZiIgZm9udC1zaXplPSIxNCIgbGVuZ3RoQWRqdXN0PSJzcGFjaW5nIiB0ZXh0TGVuZ3RoPSIzNSIgeD0iNSIgeT0iNDE5LjI3MzQiPkFkbWluPC90ZXh0PjxlbGxpcHNlIGN4PSIyNS41IiBjeT0iNDI5LjUyMzQiIGZpbGw9IiNFMkUyRjAiIHJ4PSI4IiByeT0iOCIgc3R5bGU9InN0cm9rZTojMTgxODE4O3N0cm9rZS13aWR0aDowLjU7Ii8+PHBhdGggZD0iTTI1LjUsNDM3LjUyMzQgTDI1LjUsNDY0LjUyMzQgTTEyLjUsNDQ1LjUyMzQgTDM4LjUsNDQ1LjUyMzQgTTI1LjUsNDY0LjUyMzQgTDEyLjUsNDc5LjUyMzQgTTI1LjUsNDY0LjUyMzQgTDM4LjUsNDc5LjUyMzQiIGZpbGw9Im5vbmUiIHN0eWxlPSJzdHJva2U6IzE4MTgxODtzdHJva2Utd2lkdGg6MC41OyIvPjwvZz48ZyBjbGFzcz0icGFydGljaXBhbnQgcGFydGljaXBhbnQtaGVhZCIgZGF0YS1wYXJ0aWNpcGFudD0iVUkiPjx0ZXh0IGZpbGw9IiMwMDAwMDAiIGZvbnQtZmFtaWx5PSJzYW5zLXNlcmlmIiBmb250LXNpemU9IjE0IiBsZW5ndGhBZGp1c3Q9InNwYWNpbmciIHRleHRMZW5ndGg9IjE2MSIgeD0iMTQ4IiB5PSI3OC4yMzQ0Ij5VSTpNYW5hamVtZW4gRGF0YSBTaXN3YTwvdGV4dD48cGF0aCBkPSJNMjExLDM3IEwyMTEsNjEgTTIxMSw0OSBMMjI4LDQ5IiBmaWxsPSJub25lIiBzdHlsZT0ic3Ryb2tlOiMxODE4MTg7c3Ryb2tlLXdpZHRoOjAuNTsiLz48ZWxsaXBzZSBjeD0iMjQwIiBjeT0iNDkiIGZpbGw9IiNFMkUyRjAiIHJ4PSIxMiIgcnk9IjEyIiBzdHlsZT0ic3Ryb2tlOiMxODE4MTg7c3Ryb2tlLXdpZHRoOjAuNTsiLz48L2c+PGcgY2xhc3M9InBhcnRpY2lwYW50IHBhcnRpY2lwYW50LXRhaWwiIGRhdGEtcGFydGljaXBhbnQ9IlVJIj48dGV4dCBmaWxsPSIjMDAwMDAwIiBmb250LWZhbWlseT0ic2Fucy1zZXJpZiIgZm9udC1zaXplPSIxNCIgbGVuZ3RoQWRqdXN0PSJzcGFjaW5nIiB0ZXh0TGVuZ3RoPSIxNjEiIHg9IjE0OCIgeT0iNDE5LjI3MzQiPlVJOk1hbmFqZW1lbiBEYXRhIFNpc3dhPC90ZXh0PjxwYXRoIGQ9Ik0yMTEsNDI1LjAyMzQgTDIxMSw0NDkuMDIzNCBNMjExLDQzNy4wMjM0IEwyMjgsNDM3LjAyMzQiIGZpbGw9Im5vbmUiIHN0eWxlPSJzdHJva2U6IzE4MTgxODtzdHJva2Utd2lkdGg6MC41OyIvPjxlbGxpcHNlIGN4PSIyNDAiIGN5PSI0MzcuMDIzNCIgZmlsbD0iI0UyRTJGMCIgcng9IjEyIiByeT0iMTIiIHN0eWxlPSJzdHJva2U6IzE4MTgxODtzdHJva2Utd2lkdGg6MC41OyIvPjwvZz48ZyBjbGFzcz0icGFydGljaXBhbnQgcGFydGljaXBhbnQtaGVhZCIgZGF0YS1wYXJ0aWNpcGFudD0iQ29udHJvbGxlciI+PHRleHQgZmlsbD0iIzAwMDAwMCIgZm9udC1mYW1pbHk9InNhbnMtc2VyaWYiIGZvbnQtc2l6ZT0iMTQiIGxlbmd0aEFkanVzdD0ic3BhY2luZyIgdGV4dExlbmd0aD0iMTE5IiB4PSIzODEuNSIgeT0iNzguMjM0NCI+QzpTaXN3YUNvbnRyb2xsZXI8L3RleHQ+PGVsbGlwc2UgY3g9IjQ0NCIgY3k9IjQ5IiBmaWxsPSIjRTJFMkYwIiByeD0iMTIiIHJ5PSIxMiIgc3R5bGU9InN0cm9rZTojMTgxODE4O3N0cm9rZS13aWR0aDowLjU7Ii8+PHBvbHlnb24gZmlsbD0iIzE4MTgxOCIgcG9pbnRzPSI0NDAsMzcsNDQ2LDMyLDQ0NCwzNyw0NDYsNDIsNDQwLDM3IiBzdHlsZT0ic3Ryb2tlOiMxODE4MTg7c3Ryb2tlLXdpZHRoOjE7Ii8+PC9nPjxnIGNsYXNzPSJwYXJ0aWNpcGFudCBwYXJ0aWNpcGFudC10YWlsIiBkYXRhLXBhcnRpY2lwYW50PSJDb250cm9sbGVyIj48dGV4dCBmaWxsPSIjMDAwMDAwIiBmb250LWZhbWlseT0ic2Fucy1zZXJpZiIgZm9udC1zaXplPSIxNCIgbGVuZ3RoQWRqdXN0PSJzcGFjaW5nIiB0ZXh0TGVuZ3RoPSIxMTkiIHg9IjM4MS41IiB5PSI0MTkuMjczNCI+QzpTaXN3YUNvbnRyb2xsZXI8L3RleHQ+PGVsbGlwc2UgY3g9IjQ0NCIgY3k9IjQzNy4wMjM0IiBmaWxsPSIjRTJFMkYwIiByeD0iMTIiIHJ5PSIxMiIgc3R5bGU9InN0cm9rZTojMTgxODE4O3N0cm9rZS13aWR0aDowLjU7Ii8+PHBvbHlnb24gZmlsbD0iIzE4MTgxOCIgcG9pbnRzPSI0NDAsNDI1LjAyMzQsNDQ2LDQyMC4wMjM0LDQ0NCw0MjUuMDIzNCw0NDYsNDMwLjAyMzQsNDQwLDQyNS4wMjM0IiBzdHlsZT0ic3Ryb2tlOiMxODE4MTg7c3Ryb2tlLXdpZHRoOjE7Ii8+PC9nPjxnIGNsYXNzPSJwYXJ0aWNpcGFudCBwYXJ0aWNpcGFudC1oZWFkIiBkYXRhLXBhcnRpY2lwYW50PSJFbnRpdHkiPjx0ZXh0IGZpbGw9IiMwMDAwMDAiIGZvbnQtZmFtaWx5PSJzYW5zLXNlcmlmIiBmb250LXNpemU9IjE0IiBsZW5ndGhBZGp1c3Q9InNwYWNpbmciIHRleHRMZW5ndGg9IjQ5IiB4PSI1NzciIHk9Ijc4LjIzNDQiPkU6U2lzd2E8L3RleHQ+PGVsbGlwc2UgY3g9IjYwNC41IiBjeT0iNDkiIGZpbGw9IiNFMkUyRjAiIHJ4PSIxMiIgcnk9IjEyIiBzdHlsZT0ic3Ryb2tlOiMxODE4MTg7c3Ryb2tlLXdpZHRoOjAuNTsiLz48bGluZSBzdHlsZT0ic3Ryb2tlOiMxODE4MTg7c3Ryb2tlLXdpZHRoOjAuNTsiIHgxPSI1OTIuNSIgeDI9IjYxNi41IiB5MT0iNjMiIHkyPSI2MyIvPjwvZz48ZyBjbGFzcz0icGFydGljaXBhbnQgcGFydGljaXBhbnQtdGFpbCIgZGF0YS1wYXJ0aWNpcGFudD0iRW50aXR5Ij48dGV4dCBmaWxsPSIjMDAwMDAwIiBmb250LWZhbWlseT0ic2Fucy1zZXJpZiIgZm9udC1zaXplPSIxNCIgbGVuZ3RoQWRqdXN0PSJzcGFjaW5nIiB0ZXh0TGVuZ3RoPSI0OSIgeD0iNTc3IiB5PSI0MTkuMjczNCI+RTpTaXN3YTwvdGV4dD48ZWxsaXBzZSBjeD0iNjA0LjUiIGN5PSI0MzcuMDIzNCIgZmlsbD0iI0UyRTJGMCIgcng9IjEyIiByeT0iMTIiIHN0eWxlPSJzdHJva2U6IzE4MTgxODtzdHJva2Utd2lkdGg6MC41OyIvPjxsaW5lIHN0eWxlPSJzdHJva2U6IzE4MTgxODtzdHJva2Utd2lkdGg6MC41OyIgeDE9IjU5Mi41IiB4Mj0iNjE2LjUiIHkxPSI0NTEuMDIzNCIgeTI9IjQ1MS4wMjM0Ii8+PC9nPjxnIGNsYXNzPSJtZXNzYWdlIiBkYXRhLXBhcnRpY2lwYW50LTE9IkFkbWluIiBkYXRhLXBhcnRpY2lwYW50LTI9IlVJIj48cG9seWdvbiBmaWxsPSIjMTgxODE4IiBwb2ludHM9IjIxOS41LDEwNS44OTg0LDIyOS41LDEwOS44OTg0LDIxOS41LDExMy44OTg0LDIyMy41LDEwOS44OTg0IiBzdHlsZT0ic3Ryb2tlOiMxODE4MTg7c3Ryb2tlLXdpZHRoOjE7Ii8+PGxpbmUgc3R5bGU9InN0cm9rZTojMTgxODE4O3N0cm9rZS13aWR0aDoxOyIgeDE9IjI1LjUiIHgyPSIyMjUuNSIgeTE9IjEwOS44OTg0IiB5Mj0iMTA5Ljg5ODQiLz48dGV4dCBmaWxsPSIjMDAwMDAwIiBmb250LWZhbWlseT0ic2Fucy1zZXJpZiIgZm9udC1zaXplPSIxMyIgbGVuZ3RoQWRqdXN0PSJzcGFjaW5nIiB0ZXh0TGVuZ3RoPSIzMi41IiB4PSIzMi41IiB5PSIxMDYuMjczNCI+TG9naW48L3RleHQ+PC9nPjxnIGNsYXNzPSJtZXNzYWdlIiBkYXRhLXBhcnRpY2lwYW50LTE9IkFkbWluIiBkYXRhLXBhcnRpY2lwYW50LTI9IlVJIj48cG9seWdvbiBmaWxsPSIjMTgxODE4IiBwb2ludHM9IjIxOS41LDEzMy44MTI1LDIyOS41LDEzNy44MTI1LDIxOS41LDE0MS44MTI1LDIyMy41LDEzNy44MTI1IiBzdHlsZT0ic3Ryb2tlOiMxODE4MTg7c3Ryb2tlLXdpZHRoOjE7Ii8+PGxpbmUgc3R5bGU9InN0cm9rZTojMTgxODE4O3N0cm9rZS13aWR0aDoxOyIgeDE9IjI1LjUiIHgyPSIyMjUuNSIgeTE9IjEzNy44MTI1IiB5Mj0iMTM3LjgxMjUiLz48dGV4dCBmaWxsPSIjMDAwMDAwIiBmb250LWZhbWlseT0ic2Fucy1zZXJpZiIgZm9udC1zaXplPSIxMyIgbGVuZ3RoQWRqdXN0PSJzcGFjaW5nIiB0ZXh0TGVuZ3RoPSIxMzYuNSIgeD0iMzIuNSIgeT0iMTM0LjE4NzUiPlBpbGloIG1lbnUgRGF0YSBTaXN3YTwvdGV4dD48L2c+PGcgY2xhc3M9Im1lc3NhZ2UiIGRhdGEtcGFydGljaXBhbnQtMT0iVUkiIGRhdGEtcGFydGljaXBhbnQtMj0iQ29udHJvbGxlciI+PHBvbHlnb24gZmlsbD0iIzE4MTgxOCIgcG9pbnRzPSI0MzIsMTYxLjcyNjYsNDQyLDE2NS43MjY2LDQzMiwxNjkuNzI2Niw0MzYsMTY1LjcyNjYiIHN0eWxlPSJzdHJva2U6IzE4MTgxODtzdHJva2Utd2lkdGg6MTsiLz48bGluZSBzdHlsZT0ic3Ryb2tlOiMxODE4MTg7c3Ryb2tlLXdpZHRoOjE7IiB4MT0iMjMxLjUiIHgyPSI0MzgiIHkxPSIxNjUuNzI2NiIgeTI9IjE2NS43MjY2Ii8+PHRleHQgZmlsbD0iIzAwMDAwMCIgZm9udC1mYW1pbHk9InNhbnMtc2VyaWYiIGZvbnQtc2l6ZT0iMTMiIGxlbmd0aEFkanVzdD0ic3BhY2luZyIgdGV4dExlbmd0aD0iMTA0IiB4PSIyMzguNSIgeT0iMTYyLjEwMTYiPmdldERhZnRhclNpc3dhKCk8L3RleHQ+PC9nPjxnIGNsYXNzPSJtZXNzYWdlIiBkYXRhLXBhcnRpY2lwYW50LTE9IkNvbnRyb2xsZXIiIGRhdGEtcGFydGljaXBhbnQtMj0iRW50aXR5Ij48cG9seWdvbiBmaWxsPSIjMTgxODE4IiBwb2ludHM9IjU5Mi41LDE4OS42NDA2LDYwMi41LDE5My42NDA2LDU5Mi41LDE5Ny42NDA2LDU5Ni41LDE5My42NDA2IiBzdHlsZT0ic3Ryb2tlOiMxODE4MTg7c3Ryb2tlLXdpZHRoOjE7Ii8+PGxpbmUgc3R5bGU9InN0cm9rZTojMTgxODE4O3N0cm9rZS13aWR0aDoxOyIgeDE9IjQ0NCIgeDI9IjU5OC41IiB5MT0iMTkzLjY0MDYiIHkyPSIxOTMuNjQwNiIvPjx0ZXh0IGZpbGw9IiMwMDAwMDAiIGZvbnQtZmFtaWx5PSJzYW5zLXNlcmlmIiBmb250LXNpemU9IjEzIiBsZW5ndGhBZGp1c3Q9InNwYWNpbmciIHRleHRMZW5ndGg9IjY1IiB4PSI0NTEiIHk9IjE5MC4wMTU2Ij5mZXRjaEFsbCgpPC90ZXh0PjwvZz48ZyBjbGFzcz0ibWVzc2FnZSIgZGF0YS1wYXJ0aWNpcGFudC0xPSJFbnRpdHkiIGRhdGEtcGFydGljaXBhbnQtMj0iQ29udHJvbGxlciI+PHBvbHlnb24gZmlsbD0iIzE4MTgxOCIgcG9pbnRzPSI0NTUsMjE3LjU1NDcsNDQ1LDIyMS41NTQ3LDQ1NSwyMjUuNTU0Nyw0NTEsMjIxLjU1NDciIHN0eWxlPSJzdHJva2U6IzE4MTgxODtzdHJva2Utd2lkdGg6MTsiLz48bGluZSBzdHlsZT0ic3Ryb2tlOiMxODE4MTg7c3Ryb2tlLXdpZHRoOjE7c3Ryb2tlLWRhc2hhcnJheToyLjAsMi4wOyIgeDE9IjQ0OSIgeDI9IjYwMy41IiB5MT0iMjIxLjU1NDciIHkyPSIyMjEuNTU0NyIvPjx0ZXh0IGZpbGw9IiMwMDAwMDAiIGZvbnQtZmFtaWx5PSJzYW5zLXNlcmlmIiBmb250LXNpemU9IjEzIiBsZW5ndGhBZGp1c3Q9InNwYWNpbmciIHRleHRMZW5ndGg9IjcxLjUiIHg9IjQ2MSIgeT0iMjE3LjkyOTciPmRhZnRhclNpc3dhPC90ZXh0PjwvZz48ZyBjbGFzcz0ibWVzc2FnZSIgZGF0YS1wYXJ0aWNpcGFudC0xPSJDb250cm9sbGVyIiBkYXRhLXBhcnRpY2lwYW50LTI9IlVJIj48cG9seWdvbiBmaWxsPSIjMTgxODE4IiBwb2ludHM9IjI0Mi41LDI0NS40Njg4LDIzMi41LDI0OS40Njg4LDI0Mi41LDI1My40Njg4LDIzOC41LDI0OS40Njg4IiBzdHlsZT0ic3Ryb2tlOiMxODE4MTg7c3Ryb2tlLXdpZHRoOjE7Ii8+PGxpbmUgc3R5bGU9InN0cm9rZTojMTgxODE4O3N0cm9rZS13aWR0aDoxO3N0cm9rZS1kYXNoYXJyYXk6Mi4wLDIuMDsiIHgxPSIyMzYuNSIgeDI9IjQ0MyIgeTE9IjI0OS40Njg4IiB5Mj0iMjQ5LjQ2ODgiLz48dGV4dCBmaWxsPSIjMDAwMDAwIiBmb250LWZhbWlseT0ic2Fucy1zZXJpZiIgZm9udC1zaXplPSIxMyIgbGVuZ3RoQWRqdXN0PSJzcGFjaW5nIiB0ZXh0TGVuZ3RoPSIxNDMiIHg9IjI0OC41IiB5PSIyNDUuODQzOCI+dGFtcGlsa2FuRGFmdGFyU2lzd2EoKTwvdGV4dD48L2c+PGcgY2xhc3M9Im1lc3NhZ2UiIGRhdGEtcGFydGljaXBhbnQtMT0iQWRtaW4iIGRhdGEtcGFydGljaXBhbnQtMj0iVUkiPjxwb2x5Z29uIGZpbGw9IiMxODE4MTgiIHBvaW50cz0iMjE5LjUsMjczLjM4MjgsMjI5LjUsMjc3LjM4MjgsMjE5LjUsMjgxLjM4MjgsMjIzLjUsMjc3LjM4MjgiIHN0eWxlPSJzdHJva2U6IzE4MTgxODtzdHJva2Utd2lkdGg6MTsiLz48bGluZSBzdHlsZT0ic3Ryb2tlOiMxODE4MTg7c3Ryb2tlLXdpZHRoOjE7IiB4MT0iMjUuNSIgeDI9IjIyNS41IiB5MT0iMjc3LjM4MjgiIHkyPSIyNzcuMzgyOCIvPjx0ZXh0IGZpbGw9IiMwMDAwMDAiIGZvbnQtZmFtaWx5PSJzYW5zLXNlcmlmIiBmb250LXNpemU9IjEzIiBsZW5ndGhBZGp1c3Q9InNwYWNpbmciIHRleHRMZW5ndGg9IjE4MiIgeD0iMzIuNSIgeT0iMjczLjc1NzgiPlRhbWJhaC9FZGl0L0hhcHVzIGRhdGEgc2lzd2E8L3RleHQ+PC9nPjxnIGNsYXNzPSJtZXNzYWdlIiBkYXRhLXBhcnRpY2lwYW50LTE9IlVJIiBkYXRhLXBhcnRpY2lwYW50LTI9IkNvbnRyb2xsZXIiPjxwb2x5Z29uIGZpbGw9IiMxODE4MTgiIHBvaW50cz0iNDMyLDMwMS4yOTY5LDQ0MiwzMDUuMjk2OSw0MzIsMzA5LjI5NjksNDM2LDMwNS4yOTY5IiBzdHlsZT0ic3Ryb2tlOiMxODE4MTg7c3Ryb2tlLXdpZHRoOjE7Ii8+PGxpbmUgc3R5bGU9InN0cm9rZTojMTgxODE4O3N0cm9rZS13aWR0aDoxOyIgeDE9IjIzMS41IiB4Mj0iNDM4IiB5MT0iMzA1LjI5NjkiIHkyPSIzMDUuMjk2OSIvPjx0ZXh0IGZpbGw9IiMwMDAwMDAiIGZvbnQtZmFtaWx5PSJzYW5zLXNlcmlmIiBmb250LXNpemU9IjEzIiBsZW5ndGhBZGp1c3Q9InNwYWNpbmciIHRleHRMZW5ndGg9IjEzNi41IiB4PSIyMzguNSIgeT0iMzAxLjY3MTkiPnVwZGF0ZURhdGFTaXN3YShkYXRhKTwvdGV4dD48L2c+PGcgY2xhc3M9Im1lc3NhZ2UiIGRhdGEtcGFydGljaXBhbnQtMT0iQ29udHJvbGxlciIgZGF0YS1wYXJ0aWNpcGFudC0yPSJFbnRpdHkiPjxwb2x5Z29uIGZpbGw9IiMxODE4MTgiIHBvaW50cz0iNTkyLjUsMzI5LjIxMDksNjAyLjUsMzMzLjIxMDksNTkyLjUsMzM3LjIxMDksNTk2LjUsMzMzLjIxMDkiIHN0eWxlPSJzdHJva2U6IzE4MTgxODtzdHJva2Utd2lkdGg6MTsiLz48bGluZSBzdHlsZT0ic3Ryb2tlOiMxODE4MTg7c3Ryb2tlLXdpZHRoOjE7IiB4MT0iNDQ0IiB4Mj0iNTk4LjUiIHkxPSIzMzMuMjEwOSIgeTI9IjMzMy4yMTA5Ii8+PHRleHQgZmlsbD0iIzAwMDAwMCIgZm9udC1mYW1pbHk9InNhbnMtc2VyaWYiIGZvbnQtc2l6ZT0iMTMiIGxlbmd0aEFkanVzdD0ic3BhY2luZyIgdGV4dExlbmd0aD0iMTM2LjUiIHg9IjQ1MSIgeT0iMzI5LjU4NTkiPnNpbXBhblBlcnViYWhhbihkYXRhKTwvdGV4dD48L2c+PGcgY2xhc3M9Im1lc3NhZ2UiIGRhdGEtcGFydGljaXBhbnQtMT0iRW50aXR5IiBkYXRhLXBhcnRpY2lwYW50LTI9IkNvbnRyb2xsZXIiPjxwb2x5Z29uIGZpbGw9IiMxODE4MTgiIHBvaW50cz0iNDU1LDM1Ny4xMjUsNDQ1LDM2MS4xMjUsNDU1LDM2NS4xMjUsNDUxLDM2MS4xMjUiIHN0eWxlPSJzdHJva2U6IzE4MTgxODtzdHJva2Utd2lkdGg6MTsiLz48bGluZSBzdHlsZT0ic3Ryb2tlOiMxODE4MTg7c3Ryb2tlLXdpZHRoOjE7c3Ryb2tlLWRhc2hhcnJheToyLjAsMi4wOyIgeDE9IjQ0OSIgeDI9IjYwMy41IiB5MT0iMzYxLjEyNSIgeTI9IjM2MS4xMjUiLz48dGV4dCBmaWxsPSIjMDAwMDAwIiBmb250LWZhbWlseT0ic2Fucy1zZXJpZiIgZm9udC1zaXplPSIxMyIgbGVuZ3RoQWRqdXN0PSJzcGFjaW5nIiB0ZXh0TGVuZ3RoPSIxMTAuNSIgeD0iNDYxIiB5PSIzNTcuNSI+a29uZmlybWFzaSBzaW1wYW48L3RleHQ+PC9nPjxnIGNsYXNzPSJtZXNzYWdlIiBkYXRhLXBhcnRpY2lwYW50LTE9IkNvbnRyb2xsZXIiIGRhdGEtcGFydGljaXBhbnQtMj0iVUkiPjxwb2x5Z29uIGZpbGw9IiMxODE4MTgiIHBvaW50cz0iMjQyLjUsMzg1LjAzOTEsMjMyLjUsMzg5LjAzOTEsMjQyLjUsMzkzLjAzOTEsMjM4LjUsMzg5LjAzOTEiIHN0eWxlPSJzdHJva2U6IzE4MTgxODtzdHJva2Utd2lkdGg6MTsiLz48bGluZSBzdHlsZT0ic3Ryb2tlOiMxODE4MTg7c3Ryb2tlLXdpZHRoOjE7c3Ryb2tlLWRhc2hhcnJheToyLjAsMi4wOyIgeDE9IjIzNi41IiB4Mj0iNDQzIiB5MT0iMzg5LjAzOTEiIHkyPSIzODkuMDM5MSIvPjx0ZXh0IGZpbGw9IiMwMDAwMDAiIGZvbnQtZmFtaWx5PSJzYW5zLXNlcmlmIiBmb250LXNpemU9IjEzIiBsZW5ndGhBZGp1c3Q9InNwYWNpbmciIHRleHRMZW5ndGg9IjE4OC41IiB4PSIyNDguNSIgeT0iMzg1LjQxNDEiPnRhbXBpbGthbiBub3RpZmlrYXNpIGJlcmhhc2lsPC90ZXh0PjwvZz48IS0tU1JDPVtWT185UWlDbTQ4UmxVZWgxZl9PR1NsVVg0MTkzMG9xNHNacDBzOVJaZ1JLT1FLSmZzdFV5NUNTMXpvSGN2akVfT0NLLW1BNnN2NUpmYXdpbl80MXNGVVZsd0YxQk0tdFdYOHBtR1Y0UkN5MDhyeEVnbEVGVzNNSjdWRG1WZnpkZUMxQkJnQkhaT1g0aXlhTVc2N1RBWlFRbVVuNTVvRTdEdG9KMlVkU1hHb3I4WGRHTkdpYjlXQ0w0bTlsYzRwUUNPSUlVZGpOVExUWjlLUlg2U3pLVVoxNVl0a3FVZlVmNVB3Tm9idWRIemNHd1Q2bDNYLUlWUTRqaXpxTERsN181RmFOSGJHOW5ncTNndlF3N2FmRldHNi1zWTZIeFQxU1RhZFlXYy02akdmcnQzR01CYVVRRl96UzJ2dmFRd1dRLXJBNkxyX20yXS0tPjwvZz48L3N2Zz4=;" vertex="1" parent="1">
            <mxGeometry x="159.5" y="360" width="633" height="486" as="geometry" />
          </mxCell>
        </UserObject>
        <UserObject label="" plantUmlData="{&#xa;  &quot;data&quot;: &quot;@startuml\nactor Admin\nboundary \&quot;UI:Laporan\&quot; as UI\ncontrol \&quot;C:LaporanController\&quot; as Controller\nentity \&quot;E:TransaksiPembayaran\&quot; as Entity\n\nAdmin -&gt; UI : Login\nAdmin -&gt; UI : Pilih menu Laporan\nAdmin -&gt; UI : Pilih periode dan filter\nUI -&gt; Controller : mintaLaporan(filter)\nController -&gt; Entity : ambilData(filter)\nEntity --&gt; Controller : dataPembayaran\nController -&gt; Controller : generateLaporan(data)\nController --&gt; UI : tampilkanUnduhanLaporan()\n@enduml\n&quot;,&#xa;  &quot;format&quot;: &quot;svg&quot;&#xa;}" id="f9MgHtHTdjxqu1ZTsrYx-9">
          <mxCell style="shape=image;noLabel=1;verticalAlign=top;aspect=fixed;imageAspect=0;image=data:image/svg+xml,PHN2ZyB4bWxucz0iaHR0cDovL3d3dy53My5vcmcvMjAwMC9zdmciIHhtbG5zOnhsaW5rPSJodHRwOi8vd3d3LnczLm9yZy8xOTk5L3hsaW5rIiBjb250ZW50U3R5bGVUeXBlPSJ0ZXh0L2NzcyIgZGF0YS1kaWFncmFtLXR5cGU9IlNFUVVFTkNFIiBoZWlnaHQ9IjQxNXB4IiBwcmVzZXJ2ZUFzcGVjdFJhdGlvPSJub25lIiBzdHlsZT0id2lkdGg6NjI1cHg7aGVpZ2h0OjQxNXB4O2JhY2tncm91bmQ6I0ZGRkZGRjsiIHZlcnNpb249IjEuMSIgdmlld0JveD0iMCAwIDYyNSA0MTUiIHdpZHRoPSI2MjVweCIgem9vbUFuZFBhbj0ibWFnbmlmeSI+PGRlZnMvPjxnPjxnPjx0aXRsZT5BZG1pbjwvdGl0bGU+PHJlY3QgZmlsbD0iIzAwMDAwMCIgZmlsbC1vcGFjaXR5PSIwLjAwMDAwIiBoZWlnaHQ9IjI1Ni4zMTI1IiB3aWR0aD0iOCIgeD0iMjEuNSIgeT0iNzkuOTg0NCIvPjxsaW5lIHN0eWxlPSJzdHJva2U6IzE4MTgxODtzdHJva2Utd2lkdGg6MC41O3N0cm9rZS1kYXNoYXJyYXk6NS4wLDUuMDsiIHgxPSIyNSIgeDI9IjI1IiB5MT0iNzkuOTg0NCIgeTI9IjMzNi4yOTY5Ii8+PC9nPjxnPjx0aXRsZT5VSTpMYXBvcmFuPC90aXRsZT48cmVjdCBmaWxsPSIjMDAwMDAwIiBmaWxsLW9wYWNpdHk9IjAuMDAwMDAiIGhlaWdodD0iMjU2LjMxMjUiIHdpZHRoPSI4IiB4PSIyMDEuNSIgeT0iNzkuOTg0NCIvPjxsaW5lIHN0eWxlPSJzdHJva2U6IzE4MTgxODtzdHJva2Utd2lkdGg6MC41O3N0cm9rZS1kYXNoYXJyYXk6NS4wLDUuMDsiIHgxPSIyMDUuNSIgeDI9IjIwNS41IiB5MT0iNzkuOTg0NCIgeTI9IjMzNi4yOTY5Ii8+PC9nPjxnPjx0aXRsZT5DOkxhcG9yYW5Db250cm9sbGVyPC90aXRsZT48cmVjdCBmaWxsPSIjMDAwMDAwIiBmaWxsLW9wYWNpdHk9IjAuMDAwMDAiIGhlaWdodD0iMjU2LjMxMjUiIHdpZHRoPSI4IiB4PSIzODgiIHk9Ijc5Ljk4NDQiLz48bGluZSBzdHlsZT0ic3Ryb2tlOiMxODE4MTg7c3Ryb2tlLXdpZHRoOjAuNTtzdHJva2UtZGFzaGFycmF5OjUuMCw1LjA7IiB4MT0iMzkxLjUiIHgyPSIzOTEuNSIgeTE9Ijc5Ljk4NDQiIHkyPSIzMzYuMjk2OSIvPjwvZz48Zz48dGl0bGU+RTpUcmFuc2Frc2lQZW1iYXlhcmFuPC90aXRsZT48cmVjdCBmaWxsPSIjMDAwMDAwIiBmaWxsLW9wYWNpdHk9IjAuMDAwMDAiIGhlaWdodD0iMjU2LjMxMjUiIHdpZHRoPSI4IiB4PSI1NDQiIHk9Ijc5Ljk4NDQiLz48bGluZSBzdHlsZT0ic3Ryb2tlOiMxODE4MTg7c3Ryb2tlLXdpZHRoOjAuNTtzdHJva2UtZGFzaGFycmF5OjUuMCw1LjA7IiB4MT0iNTQ3LjUiIHgyPSI1NDcuNSIgeTE9Ijc5Ljk4NDQiIHkyPSIzMzYuMjk2OSIvPjwvZz48ZyBjbGFzcz0icGFydGljaXBhbnQgcGFydGljaXBhbnQtaGVhZCIgZGF0YS1wYXJ0aWNpcGFudD0iQWRtaW4iPjx0ZXh0IGZpbGw9IiMwMDAwMDAiIGZvbnQtZmFtaWx5PSJzYW5zLXNlcmlmIiBmb250LXNpemU9IjE0IiBsZW5ndGhBZGp1c3Q9InNwYWNpbmciIHRleHRMZW5ndGg9IjM1IiB4PSI1IiB5PSI3OC4yMzQ0Ij5BZG1pbjwvdGV4dD48ZWxsaXBzZSBjeD0iMjUuNSIgY3k9IjEzLjUiIGZpbGw9IiNFMkUyRjAiIHJ4PSI4IiByeT0iOCIgc3R5bGU9InN0cm9rZTojMTgxODE4O3N0cm9rZS13aWR0aDowLjU7Ii8+PHBhdGggZD0iTTI1LjUsMjEuNSBMMjUuNSw0OC41IE0xMi41LDI5LjUgTDM4LjUsMjkuNSBNMjUuNSw0OC41IEwxMi41LDYzLjUgTTI1LjUsNDguNSBMMzguNSw2My41IiBmaWxsPSJub25lIiBzdHlsZT0ic3Ryb2tlOiMxODE4MTg7c3Ryb2tlLXdpZHRoOjAuNTsiLz48L2c+PGcgY2xhc3M9InBhcnRpY2lwYW50IHBhcnRpY2lwYW50LXRhaWwiIGRhdGEtcGFydGljaXBhbnQ9IkFkbWluIj48dGV4dCBmaWxsPSIjMDAwMDAwIiBmb250LWZhbWlseT0ic2Fucy1zZXJpZiIgZm9udC1zaXplPSIxNCIgbGVuZ3RoQWRqdXN0PSJzcGFjaW5nIiB0ZXh0TGVuZ3RoPSIzNSIgeD0iNSIgeT0iMzQ4LjUzMTMiPkFkbWluPC90ZXh0PjxlbGxpcHNlIGN4PSIyNS41IiBjeT0iMzU4Ljc4MTMiIGZpbGw9IiNFMkUyRjAiIHJ4PSI4IiByeT0iOCIgc3R5bGU9InN0cm9rZTojMTgxODE4O3N0cm9rZS13aWR0aDowLjU7Ii8+PHBhdGggZD0iTTI1LjUsMzY2Ljc4MTMgTDI1LjUsMzkzLjc4MTMgTTEyLjUsMzc0Ljc4MTMgTDM4LjUsMzc0Ljc4MTMgTTI1LjUsMzkzLjc4MTMgTDEyLjUsNDA4Ljc4MTMgTTI1LjUsMzkzLjc4MTMgTDM4LjUsNDA4Ljc4MTMiIGZpbGw9Im5vbmUiIHN0eWxlPSJzdHJva2U6IzE4MTgxODtzdHJva2Utd2lkdGg6MC41OyIvPjwvZz48ZyBjbGFzcz0icGFydGljaXBhbnQgcGFydGljaXBhbnQtaGVhZCIgZGF0YS1wYXJ0aWNpcGFudD0iVUkiPjx0ZXh0IGZpbGw9IiMwMDAwMDAiIGZvbnQtZmFtaWx5PSJzYW5zLXNlcmlmIiBmb250LXNpemU9IjE0IiBsZW5ndGhBZGp1c3Q9InNwYWNpbmciIHRleHRMZW5ndGg9IjcwIiB4PSIxNjcuNSIgeT0iNzguMjM0NCI+VUk6TGFwb3JhbjwvdGV4dD48cGF0aCBkPSJNMTg1LDM3IEwxODUsNjEgTTE4NSw0OSBMMjAyLDQ5IiBmaWxsPSJub25lIiBzdHlsZT0ic3Ryb2tlOiMxODE4MTg7c3Ryb2tlLXdpZHRoOjAuNTsiLz48ZWxsaXBzZSBjeD0iMjE0IiBjeT0iNDkiIGZpbGw9IiNFMkUyRjAiIHJ4PSIxMiIgcnk9IjEyIiBzdHlsZT0ic3Ryb2tlOiMxODE4MTg7c3Ryb2tlLXdpZHRoOjAuNTsiLz48L2c+PGcgY2xhc3M9InBhcnRpY2lwYW50IHBhcnRpY2lwYW50LXRhaWwiIGRhdGEtcGFydGljaXBhbnQ9IlVJIj48dGV4dCBmaWxsPSIjMDAwMDAwIiBmb250LWZhbWlseT0ic2Fucy1zZXJpZiIgZm9udC1zaXplPSIxNCIgbGVuZ3RoQWRqdXN0PSJzcGFjaW5nIiB0ZXh0TGVuZ3RoPSI3MCIgeD0iMTY3LjUiIHk9IjM0OC41MzEzIj5VSTpMYXBvcmFuPC90ZXh0PjxwYXRoIGQ9Ik0xODUsMzU0LjI4MTMgTDE4NSwzNzguMjgxMyBNMTg1LDM2Ni4yODEzIEwyMDIsMzY2LjI4MTMiIGZpbGw9Im5vbmUiIHN0eWxlPSJzdHJva2U6IzE4MTgxODtzdHJva2Utd2lkdGg6MC41OyIvPjxlbGxpcHNlIGN4PSIyMTQiIGN5PSIzNjYuMjgxMyIgZmlsbD0iI0UyRTJGMCIgcng9IjEyIiByeT0iMTIiIHN0eWxlPSJzdHJva2U6IzE4MTgxODtzdHJva2Utd2lkdGg6MC41OyIvPjwvZz48ZyBjbGFzcz0icGFydGljaXBhbnQgcGFydGljaXBhbnQtaGVhZCIgZGF0YS1wYXJ0aWNpcGFudD0iQ29udHJvbGxlciI+PHRleHQgZmlsbD0iIzAwMDAwMCIgZm9udC1mYW1pbHk9InNhbnMtc2VyaWYiIGZvbnQtc2l6ZT0iMTQiIGxlbmd0aEFkanVzdD0ic3BhY2luZyIgdGV4dExlbmd0aD0iMTMzIiB4PSIzMjIuNSIgeT0iNzguMjM0NCI+QzpMYXBvcmFuQ29udHJvbGxlcjwvdGV4dD48ZWxsaXBzZSBjeD0iMzkyIiBjeT0iNDkiIGZpbGw9IiNFMkUyRjAiIHJ4PSIxMiIgcnk9IjEyIiBzdHlsZT0ic3Ryb2tlOiMxODE4MTg7c3Ryb2tlLXdpZHRoOjAuNTsiLz48cG9seWdvbiBmaWxsPSIjMTgxODE4IiBwb2ludHM9IjM4OCwzNywzOTQsMzIsMzkyLDM3LDM5NCw0MiwzODgsMzciIHN0eWxlPSJzdHJva2U6IzE4MTgxODtzdHJva2Utd2lkdGg6MTsiLz48L2c+PGcgY2xhc3M9InBhcnRpY2lwYW50IHBhcnRpY2lwYW50LXRhaWwiIGRhdGEtcGFydGljaXBhbnQ9IkNvbnRyb2xsZXIiPjx0ZXh0IGZpbGw9IiMwMDAwMDAiIGZvbnQtZmFtaWx5PSJzYW5zLXNlcmlmIiBmb250LXNpemU9IjE0IiBsZW5ndGhBZGp1c3Q9InNwYWNpbmciIHRleHRMZW5ndGg9IjEzMyIgeD0iMzIyLjUiIHk9IjM0OC41MzEzIj5DOkxhcG9yYW5Db250cm9sbGVyPC90ZXh0PjxlbGxpcHNlIGN4PSIzOTIiIGN5PSIzNjYuMjgxMyIgZmlsbD0iI0UyRTJGMCIgcng9IjEyIiByeT0iMTIiIHN0eWxlPSJzdHJva2U6IzE4MTgxODtzdHJva2Utd2lkdGg6MC41OyIvPjxwb2x5Z29uIGZpbGw9IiMxODE4MTgiIHBvaW50cz0iMzg4LDM1NC4yODEzLDM5NCwzNDkuMjgxMywzOTIsMzU0LjI4MTMsMzk0LDM1OS4yODEzLDM4OCwzNTQuMjgxMyIgc3R5bGU9InN0cm9rZTojMTgxODE4O3N0cm9rZS13aWR0aDoxOyIvPjwvZz48ZyBjbGFzcz0icGFydGljaXBhbnQgcGFydGljaXBhbnQtaGVhZCIgZGF0YS1wYXJ0aWNpcGFudD0iRW50aXR5Ij48dGV4dCBmaWxsPSIjMDAwMDAwIiBmb250LWZhbWlseT0ic2Fucy1zZXJpZiIgZm9udC1zaXplPSIxNCIgbGVuZ3RoQWRqdXN0PSJzcGFjaW5nIiB0ZXh0TGVuZ3RoPSIxNDciIHg9IjQ3MS41IiB5PSI3OC4yMzQ0Ij5FOlRyYW5zYWtzaVBlbWJheWFyYW48L3RleHQ+PGVsbGlwc2UgY3g9IjU0OCIgY3k9IjQ5IiBmaWxsPSIjRTJFMkYwIiByeD0iMTIiIHJ5PSIxMiIgc3R5bGU9InN0cm9rZTojMTgxODE4O3N0cm9rZS13aWR0aDowLjU7Ii8+PGxpbmUgc3R5bGU9InN0cm9rZTojMTgxODE4O3N0cm9rZS13aWR0aDowLjU7IiB4MT0iNTM2IiB4Mj0iNTYwIiB5MT0iNjMiIHkyPSI2MyIvPjwvZz48ZyBjbGFzcz0icGFydGljaXBhbnQgcGFydGljaXBhbnQtdGFpbCIgZGF0YS1wYXJ0aWNpcGFudD0iRW50aXR5Ij48dGV4dCBmaWxsPSIjMDAwMDAwIiBmb250LWZhbWlseT0ic2Fucy1zZXJpZiIgZm9udC1zaXplPSIxNCIgbGVuZ3RoQWRqdXN0PSJzcGFjaW5nIiB0ZXh0TGVuZ3RoPSIxNDciIHg9IjQ3MS41IiB5PSIzNDguNTMxMyI+RTpUcmFuc2Frc2lQZW1iYXlhcmFuPC90ZXh0PjxlbGxpcHNlIGN4PSI1NDgiIGN5PSIzNjYuMjgxMyIgZmlsbD0iI0UyRTJGMCIgcng9IjEyIiByeT0iMTIiIHN0eWxlPSJzdHJva2U6IzE4MTgxODtzdHJva2Utd2lkdGg6MC41OyIvPjxsaW5lIHN0eWxlPSJzdHJva2U6IzE4MTgxODtzdHJva2Utd2lkdGg6MC41OyIgeDE9IjUzNiIgeDI9IjU2MCIgeTE9IjM4MC4yODEzIiB5Mj0iMzgwLjI4MTMiLz48L2c+PGcgY2xhc3M9Im1lc3NhZ2UiIGRhdGEtcGFydGljaXBhbnQtMT0iQWRtaW4iIGRhdGEtcGFydGljaXBhbnQtMj0iVUkiPjxwb2x5Z29uIGZpbGw9IiMxODE4MTgiIHBvaW50cz0iMTkzLjUsMTA1Ljg5ODQsMjAzLjUsMTA5Ljg5ODQsMTkzLjUsMTEzLjg5ODQsMTk3LjUsMTA5Ljg5ODQiIHN0eWxlPSJzdHJva2U6IzE4MTgxODtzdHJva2Utd2lkdGg6MTsiLz48bGluZSBzdHlsZT0ic3Ryb2tlOiMxODE4MTg7c3Ryb2tlLXdpZHRoOjE7IiB4MT0iMjUuNSIgeDI9IjE5OS41IiB5MT0iMTA5Ljg5ODQiIHkyPSIxMDkuODk4NCIvPjx0ZXh0IGZpbGw9IiMwMDAwMDAiIGZvbnQtZmFtaWx5PSJzYW5zLXNlcmlmIiBmb250LXNpemU9IjEzIiBsZW5ndGhBZGp1c3Q9InNwYWNpbmciIHRleHRMZW5ndGg9IjMyLjUiIHg9IjMyLjUiIHk9IjEwNi4yNzM0Ij5Mb2dpbjwvdGV4dD48L2c+PGcgY2xhc3M9Im1lc3NhZ2UiIGRhdGEtcGFydGljaXBhbnQtMT0iQWRtaW4iIGRhdGEtcGFydGljaXBhbnQtMj0iVUkiPjxwb2x5Z29uIGZpbGw9IiMxODE4MTgiIHBvaW50cz0iMTkzLjUsMTMzLjgxMjUsMjAzLjUsMTM3LjgxMjUsMTkzLjUsMTQxLjgxMjUsMTk3LjUsMTM3LjgxMjUiIHN0eWxlPSJzdHJva2U6IzE4MTgxODtzdHJva2Utd2lkdGg6MTsiLz48bGluZSBzdHlsZT0ic3Ryb2tlOiMxODE4MTg7c3Ryb2tlLXdpZHRoOjE7IiB4MT0iMjUuNSIgeDI9IjE5OS41IiB5MT0iMTM3LjgxMjUiIHkyPSIxMzcuODEyNSIvPjx0ZXh0IGZpbGw9IiMwMDAwMDAiIGZvbnQtZmFtaWx5PSJzYW5zLXNlcmlmIiBmb250LXNpemU9IjEzIiBsZW5ndGhBZGp1c3Q9InNwYWNpbmciIHRleHRMZW5ndGg9IjExNyIgeD0iMzIuNSIgeT0iMTM0LjE4NzUiPlBpbGloIG1lbnUgTGFwb3JhbjwvdGV4dD48L2c+PGcgY2xhc3M9Im1lc3NhZ2UiIGRhdGEtcGFydGljaXBhbnQtMT0iQWRtaW4iIGRhdGEtcGFydGljaXBhbnQtMj0iVUkiPjxwb2x5Z29uIGZpbGw9IiMxODE4MTgiIHBvaW50cz0iMTkzLjUsMTYxLjcyNjYsMjAzLjUsMTY1LjcyNjYsMTkzLjUsMTY5LjcyNjYsMTk3LjUsMTY1LjcyNjYiIHN0eWxlPSJzdHJva2U6IzE4MTgxODtzdHJva2Utd2lkdGg6MTsiLz48bGluZSBzdHlsZT0ic3Ryb2tlOiMxODE4MTg7c3Ryb2tlLXdpZHRoOjE7IiB4MT0iMjUuNSIgeDI9IjE5OS41IiB5MT0iMTY1LjcyNjYiIHkyPSIxNjUuNzI2NiIvPjx0ZXh0IGZpbGw9IiMwMDAwMDAiIGZvbnQtZmFtaWx5PSJzYW5zLXNlcmlmIiBmb250LXNpemU9IjEzIiBsZW5ndGhBZGp1c3Q9InNwYWNpbmciIHRleHRMZW5ndGg9IjE1NiIgeD0iMzIuNSIgeT0iMTYyLjEwMTYiPlBpbGloIHBlcmlvZGUgZGFuIGZpbHRlcjwvdGV4dD48L2c+PGcgY2xhc3M9Im1lc3NhZ2UiIGRhdGEtcGFydGljaXBhbnQtMT0iVUkiIGRhdGEtcGFydGljaXBhbnQtMj0iQ29udHJvbGxlciI+PHBvbHlnb24gZmlsbD0iIzE4MTgxOCIgcG9pbnRzPSIzODAsMTg5LjY0MDYsMzkwLDE5My42NDA2LDM4MCwxOTcuNjQwNiwzODQsMTkzLjY0MDYiIHN0eWxlPSJzdHJva2U6IzE4MTgxODtzdHJva2Utd2lkdGg6MTsiLz48bGluZSBzdHlsZT0ic3Ryb2tlOiMxODE4MTg7c3Ryb2tlLXdpZHRoOjE7IiB4MT0iMjA1LjUiIHgyPSIzODYiIHkxPSIxOTMuNjQwNiIgeTI9IjE5My42NDA2Ii8+PHRleHQgZmlsbD0iIzAwMDAwMCIgZm9udC1mYW1pbHk9InNhbnMtc2VyaWYiIGZvbnQtc2l6ZT0iMTMiIGxlbmd0aEFkanVzdD0ic3BhY2luZyIgdGV4dExlbmd0aD0iMTMwIiB4PSIyMTIuNSIgeT0iMTkwLjAxNTYiPm1pbnRhTGFwb3JhbihmaWx0ZXIpPC90ZXh0PjwvZz48ZyBjbGFzcz0ibWVzc2FnZSIgZGF0YS1wYXJ0aWNpcGFudC0xPSJDb250cm9sbGVyIiBkYXRhLXBhcnRpY2lwYW50LTI9IkVudGl0eSI+PHBvbHlnb24gZmlsbD0iIzE4MTgxOCIgcG9pbnRzPSI1MzYsMjE3LjU1NDcsNTQ2LDIyMS41NTQ3LDUzNiwyMjUuNTU0Nyw1NDAsMjIxLjU1NDciIHN0eWxlPSJzdHJva2U6IzE4MTgxODtzdHJva2Utd2lkdGg6MTsiLz48bGluZSBzdHlsZT0ic3Ryb2tlOiMxODE4MTg7c3Ryb2tlLXdpZHRoOjE7IiB4MT0iMzkyIiB4Mj0iNTQyIiB5MT0iMjIxLjU1NDciIHkyPSIyMjEuNTU0NyIvPjx0ZXh0IGZpbGw9IiMwMDAwMDAiIGZvbnQtZmFtaWx5PSJzYW5zLXNlcmlmIiBmb250LXNpemU9IjEzIiBsZW5ndGhBZGp1c3Q9InNwYWNpbmciIHRleHRMZW5ndGg9IjExMC41IiB4PSIzOTkiIHk9IjIxNy45Mjk3Ij5hbWJpbERhdGEoZmlsdGVyKTwvdGV4dD48L2c+PGcgY2xhc3M9Im1lc3NhZ2UiIGRhdGEtcGFydGljaXBhbnQtMT0iRW50aXR5IiBkYXRhLXBhcnRpY2lwYW50LTI9IkNvbnRyb2xsZXIiPjxwb2x5Z29uIGZpbGw9IiMxODE4MTgiIHBvaW50cz0iNDAzLDI0NS40Njg4LDM5MywyNDkuNDY4OCw0MDMsMjUzLjQ2ODgsMzk5LDI0OS40Njg4IiBzdHlsZT0ic3Ryb2tlOiMxODE4MTg7c3Ryb2tlLXdpZHRoOjE7Ii8+PGxpbmUgc3R5bGU9InN0cm9rZTojMTgxODE4O3N0cm9rZS13aWR0aDoxO3N0cm9rZS1kYXNoYXJyYXk6Mi4wLDIuMDsiIHgxPSIzOTciIHgyPSI1NDciIHkxPSIyNDkuNDY4OCIgeTI9IjI0OS40Njg4Ii8+PHRleHQgZmlsbD0iIzAwMDAwMCIgZm9udC1mYW1pbHk9InNhbnMtc2VyaWYiIGZvbnQtc2l6ZT0iMTMiIGxlbmd0aEFkanVzdD0ic3BhY2luZyIgdGV4dExlbmd0aD0iOTEiIHg9IjQwOSIgeT0iMjQ1Ljg0MzgiPmRhdGFQZW1iYXlhcmFuPC90ZXh0PjwvZz48ZyBjbGFzcz0ibWVzc2FnZSIgZGF0YS1wYXJ0aWNpcGFudC0xPSJDb250cm9sbGVyIiBkYXRhLXBhcnRpY2lwYW50LTI9IkNvbnRyb2xsZXIiPjxsaW5lIHN0eWxlPSJzdHJva2U6IzE4MTgxODtzdHJva2Utd2lkdGg6MTsiIHgxPSIzOTIiIHgyPSI0MzQiIHkxPSIyNzcuMzgyOCIgeTI9IjI3Ny4zODI4Ii8+PGxpbmUgc3R5bGU9InN0cm9rZTojMTgxODE4O3N0cm9rZS13aWR0aDoxOyIgeDE9IjQzNCIgeDI9IjQzNCIgeTE9IjI3Ny4zODI4IiB5Mj0iMjkwLjM4MjgiLz48bGluZSBzdHlsZT0ic3Ryb2tlOiMxODE4MTg7c3Ryb2tlLXdpZHRoOjE7IiB4MT0iMzkzIiB4Mj0iNDM0IiB5MT0iMjkwLjM4MjgiIHkyPSIyOTAuMzgyOCIvPjxwb2x5Z29uIGZpbGw9IiMxODE4MTgiIHBvaW50cz0iNDAzLDI4Ni4zODI4LDM5MywyOTAuMzgyOCw0MDMsMjk0LjM4MjgsMzk5LDI5MC4zODI4IiBzdHlsZT0ic3Ryb2tlOiMxODE4MTg7c3Ryb2tlLXdpZHRoOjE7Ii8+PHRleHQgZmlsbD0iIzAwMDAwMCIgZm9udC1mYW1pbHk9InNhbnMtc2VyaWYiIGZvbnQtc2l6ZT0iMTMiIGxlbmd0aEFkanVzdD0ic3BhY2luZyIgdGV4dExlbmd0aD0iMTM2LjUiIHg9IjM5OSIgeT0iMjczLjc1NzgiPmdlbmVyYXRlTGFwb3JhbihkYXRhKTwvdGV4dD48L2c+PGcgY2xhc3M9Im1lc3NhZ2UiIGRhdGEtcGFydGljaXBhbnQtMT0iQ29udHJvbGxlciIgZGF0YS1wYXJ0aWNpcGFudC0yPSJVSSI+PHBvbHlnb24gZmlsbD0iIzE4MTgxOCIgcG9pbnRzPSIyMTYuNSwzMTQuMjk2OSwyMDYuNSwzMTguMjk2OSwyMTYuNSwzMjIuMjk2OSwyMTIuNSwzMTguMjk2OSIgc3R5bGU9InN0cm9rZTojMTgxODE4O3N0cm9rZS13aWR0aDoxOyIvPjxsaW5lIHN0eWxlPSJzdHJva2U6IzE4MTgxODtzdHJva2Utd2lkdGg6MTtzdHJva2UtZGFzaGFycmF5OjIuMCwyLjA7IiB4MT0iMjEwLjUiIHgyPSIzOTEiIHkxPSIzMTguMjk2OSIgeTI9IjMxOC4yOTY5Ii8+PHRleHQgZmlsbD0iIzAwMDAwMCIgZm9udC1mYW1pbHk9InNhbnMtc2VyaWYiIGZvbnQtc2l6ZT0iMTMiIGxlbmd0aEFkanVzdD0ic3BhY2luZyIgdGV4dExlbmd0aD0iMTYyLjUiIHg9IjIyMi41IiB5PSIzMTQuNjcxOSI+dGFtcGlsa2FuVW5kdWhhbkxhcG9yYW4oKTwvdGV4dD48L2c+PCEtLVNSQz1bUk8telJpOTAzQ1Z0VW1laDRtb3lHOFBBWTM4V0NKMkcxdDB1NW9wa1ZENzU2Tlp4a2Fja1FMMTdzeF9fWF82Y0FTRlVIblJOZmE0eXZYVEtwUWEtT3ZTb0lXTk9HdERvam9JUUt1M2dLMnc3UUhDZVp5bW9FWDliRFBUWlZKTWtuc1ZGNXVlamxoME83YVYya0o0TlRYLU0wM01TcXpyUWg3U04zbG8wSTNCMGRGaWxxNTdjdjBheTJkbm5LNmpYTHNFTU1pUVFKZDZzc0twT3JscVhaOS1RNk9rbnZWMjlZaF9XVkRnemt0ZzNibF9VXzVSYWRPR29BZktBRnlmcldWQUxPa211RjU0UXlTQzNmSVlzdG0wMF0tLT48L2c+PC9zdmc+;" vertex="1" parent="1">
            <mxGeometry x="930" y="-50" width="625" height="415" as="geometry" />
          </mxCell>
        </UserObject>
        <UserObject label="" plantUmlData="{&#xa;  &quot;data&quot;: &quot;@startuml\n|Wali Murid|\nstart\n:Masukkan username dan password;\n|Sistem|\n:Verifikasi kredensial;\nif (Kredensial valid?) then (Ya)\n  :Akses dashboard;\n  stop\nelse (Tidak)\n  :Tampilkan pesan kesalahan;\n  stop\nendif\n@enduml\n&quot;,&#xa;  &quot;format&quot;: &quot;svg&quot;&#xa;}" id="f9MgHtHTdjxqu1ZTsrYx-15">
          <mxCell style="shape=image;noLabel=1;verticalAlign=top;aspect=fixed;imageAspect=0;image=data:image/svg+xml,PHN2ZyB4bWxucz0iaHR0cDovL3d3dy53My5vcmcvMjAwMC9zdmciIHhtbG5zOnhsaW5rPSJodHRwOi8vd3d3LnczLm9yZy8xOTk5L3hsaW5rIiBjb250ZW50U3R5bGVUeXBlPSJ0ZXh0L2NzcyIgZGF0YS1kaWFncmFtLXR5cGU9IkFDVElWSVRZIiBoZWlnaHQ9IjMwN3B4IiBwcmVzZXJ2ZUFzcGVjdFJhdGlvPSJub25lIiBzdHlsZT0id2lkdGg6NTU2cHg7aGVpZ2h0OjMwN3B4O2JhY2tncm91bmQ6I0ZGRkZGRjsiIHZlcnNpb249IjEuMSIgdmlld0JveD0iMCAwIDU1NiAzMDciIHdpZHRoPSI1NTZweCIgem9vbUFuZFBhbj0ibWFnbmlmeSI+PGRlZnMvPjxnPjxyZWN0IGZpbGw9Im5vbmUiIGhlaWdodD0iMTkuMjY1NiIgc3R5bGU9InN0cm9rZTpub25lO3N0cm9rZS13aWR0aDoxOyIgd2lkdGg9IjUyMy41IiB4PSIxNSIgeT0iMTEiLz48ZWxsaXBzZSBjeD0iMTIxIiBjeT0iNDUuMjY1NiIgZmlsbD0iIzIyMjIyMiIgcng9IjEwIiByeT0iMTAiIHN0eWxlPSJzdHJva2U6IzIyMjIyMjtzdHJva2Utd2lkdGg6MTsiLz48cmVjdCBmaWxsPSIjRjFGMUYxIiBoZWlnaHQ9IjMyLjg0MzgiIHJ4PSIxMi41IiByeT0iMTIuNSIgc3R5bGU9InN0cm9rZTojMTgxODE4O3N0cm9rZS13aWR0aDowLjU7IiB3aWR0aD0iMjAwIiB4PSIyMSIgeT0iNzUuMjY1NiIvPjx0ZXh0IGZpbGw9IiMwMDAwMDAiIGZvbnQtZmFtaWx5PSJzYW5zLXNlcmlmIiBmb250LXNpemU9IjEyIiBsZW5ndGhBZGp1c3Q9InNwYWNpbmciIHRleHRMZW5ndGg9IjE4MCIgeD0iMzEiIHk9Ijk2LjYwOTQiPk1hc3Vra2FuIHVzZXJuYW1lIGRhbiBwYXNzd29yZDwvdGV4dD48bGluZSBzdHlsZT0ic3Ryb2tlOiMwMDAwMDA7c3Ryb2tlLXdpZHRoOjEuNTsiIHgxPSIxNSIgeDI9IjE1IiB5MT0iMTEiIHkyPSIyOTUuNzk2OSIvPjxyZWN0IGZpbGw9IiNGMUYxRjEiIGhlaWdodD0iMzIuODQzOCIgcng9IjEyLjUiIHJ5PSIxMi41IiBzdHlsZT0ic3Ryb2tlOiMxODE4MTg7c3Ryb2tlLXdpZHRoOjAuNTsiIHdpZHRoPSIxNDYiIHg9IjI5MyIgeT0iMTI4LjEwOTQiLz48dGV4dCBmaWxsPSIjMDAwMDAwIiBmb250LWZhbWlseT0ic2Fucy1zZXJpZiIgZm9udC1zaXplPSIxMiIgbGVuZ3RoQWRqdXN0PSJzcGFjaW5nIiB0ZXh0TGVuZ3RoPSIxMjYiIHg9IjMwMyIgeT0iMTQ5LjQ1MzEiPlZlcmlmaWthc2kga3JlZGVuc2lhbDwvdGV4dD48cG9seWdvbiBmaWxsPSIjRjFGMUYxIiBwb2ludHM9IjMxOS4yNSwxODAuOTUzMSw0MTIuNzUsMTgwLjk1MzEsNDI0Ljc1LDE5Mi45NTMxLDQxMi43NSwyMDQuOTUzMSwzMTkuMjUsMjA0Ljk1MzEsMzA3LjI1LDE5Mi45NTMxLDMxOS4yNSwxODAuOTUzMSIgc3R5bGU9InN0cm9rZTojMTgxODE4O3N0cm9rZS13aWR0aDowLjU7Ii8+PHRleHQgZmlsbD0iIzAwMDAwMCIgZm9udC1mYW1pbHk9InNhbnMtc2VyaWYiIGZvbnQtc2l6ZT0iMTEiIGxlbmd0aEFkanVzdD0ic3BhY2luZyIgdGV4dExlbmd0aD0iOTMuNSIgeD0iMzE5LjI1IiB5PSIxOTcuNDY0OCI+S3JlZGVuc2lhbCB2YWxpZD88L3RleHQ+PHRleHQgZmlsbD0iIzAwMDAwMCIgZm9udC1mYW1pbHk9InNhbnMtc2VyaWYiIGZvbnQtc2l6ZT0iMTEiIGxlbmd0aEFkanVzdD0ic3BhY2luZyIgdGV4dExlbmd0aD0iMTEiIHg9IjI5Ni4yNSIgeT0iMTkxLjU3ODEiPllhPC90ZXh0Pjx0ZXh0IGZpbGw9IiMwMDAwMDAiIGZvbnQtZmFtaWx5PSJzYW5zLXNlcmlmIiBmb250LXNpemU9IjExIiBsZW5ndGhBZGp1c3Q9InNwYWNpbmciIHRleHRMZW5ndGg9IjI3LjUiIHg9IjQyNC43NSIgeT0iMTkxLjU3ODEiPlRpZGFrPC90ZXh0PjxyZWN0IGZpbGw9IiNGMUYxRjEiIGhlaWdodD0iMzIuODQzOCIgcng9IjEyLjUiIHJ5PSIxMi41IiBzdHlsZT0ic3Ryb2tlOiMxODE4MTg7c3Ryb2tlLXdpZHRoOjAuNTsiIHdpZHRoPSIxMTAiIHg9IjIzMSIgeT0iMjE0Ljk1MzEiLz48dGV4dCBmaWxsPSIjMDAwMDAwIiBmb250LWZhbWlseT0ic2Fucy1zZXJpZiIgZm9udC1zaXplPSIxMiIgbGVuZ3RoQWRqdXN0PSJzcGFjaW5nIiB0ZXh0TGVuZ3RoPSI5MCIgeD0iMjQxIiB5PSIyMzYuMjk2OSI+QWtzZXMgZGFzaGJvYXJkPC90ZXh0PjxlbGxpcHNlIGN4PSIyODYiIGN5PSIyNzguNzk2OSIgZmlsbD0ibm9uZSIgcng9IjExIiByeT0iMTEiIHN0eWxlPSJzdHJva2U6IzIyMjIyMjtzdHJva2Utd2lkdGg6MTsiLz48ZWxsaXBzZSBjeD0iMjg2IiBjeT0iMjc4Ljc5NjkiIGZpbGw9IiMyMjIyMjIiIHJ4PSI2IiByeT0iNiIgc3R5bGU9InN0cm9rZTojMjIyMjIyO3N0cm9rZS13aWR0aDoxOyIvPjxyZWN0IGZpbGw9IiNGMUYxRjEiIGhlaWdodD0iMzIuODQzOCIgcng9IjEyLjUiIHJ5PSIxMi41IiBzdHlsZT0ic3Ryb2tlOiMxODE4MTg7c3Ryb2tlLXdpZHRoOjAuNTsiIHdpZHRoPSIxNzAiIHg9IjM2MSIgeT0iMjE0Ljk1MzEiLz48dGV4dCBmaWxsPSIjMDAwMDAwIiBmb250LWZhbWlseT0ic2Fucy1zZXJpZiIgZm9udC1zaXplPSIxMiIgbGVuZ3RoQWRqdXN0PSJzcGFjaW5nIiB0ZXh0TGVuZ3RoPSIxNTAiIHg9IjM3MSIgeT0iMjM2LjI5NjkiPlRhbXBpbGthbiBwZXNhbiBrZXNhbGFoYW48L3RleHQ+PGVsbGlwc2UgY3g9IjQ0NiIgY3k9IjI3OC43OTY5IiBmaWxsPSJub25lIiByeD0iMTEiIHJ5PSIxMSIgc3R5bGU9InN0cm9rZTojMjIyMjIyO3N0cm9rZS13aWR0aDoxOyIvPjxlbGxpcHNlIGN4PSI0NDYiIGN5PSIyNzguNzk2OSIgZmlsbD0iIzIyMjIyMiIgcng9IjYiIHJ5PSI2IiBzdHlsZT0ic3Ryb2tlOiMyMjIyMjI7c3Ryb2tlLXdpZHRoOjE7Ii8+PGxpbmUgc3R5bGU9InN0cm9rZTojMDAwMDAwO3N0cm9rZS13aWR0aDoxLjU7IiB4MT0iMjI1IiB4Mj0iMjI1IiB5MT0iMTEiIHkyPSIyOTUuNzk2OSIvPjxsaW5lIHN0eWxlPSJzdHJva2U6IzAwMDAwMDtzdHJva2Utd2lkdGg6MS41OyIgeDE9IjUzNSIgeDI9IjUzNSIgeTE9IjExIiB5Mj0iMjk1Ljc5NjkiLz48bGluZSBzdHlsZT0ic3Ryb2tlOiMxODE4MTg7c3Ryb2tlLXdpZHRoOjE7IiB4MT0iMTIxIiB4Mj0iMTIxIiB5MT0iNTUuMjY1NiIgeTI9Ijc1LjI2NTYiLz48cG9seWdvbiBmaWxsPSIjMTgxODE4IiBwb2ludHM9IjExNyw2NS4yNjU2LDEyMSw3NS4yNjU2LDEyNSw2NS4yNjU2LDEyMSw2OS4yNjU2IiBzdHlsZT0ic3Ryb2tlOiMxODE4MTg7c3Ryb2tlLXdpZHRoOjE7Ii8+PGxpbmUgc3R5bGU9InN0cm9rZTojMTgxODE4O3N0cm9rZS13aWR0aDoxOyIgeDE9IjI4NiIgeDI9IjI4NiIgeTE9IjI0Ny43OTY5IiB5Mj0iMjY3Ljc5NjkiLz48cG9seWdvbiBmaWxsPSIjMTgxODE4IiBwb2ludHM9IjI4MiwyNTcuNzk2OSwyODYsMjY3Ljc5NjksMjkwLDI1Ny43OTY5LDI4NiwyNjEuNzk2OSIgc3R5bGU9InN0cm9rZTojMTgxODE4O3N0cm9rZS13aWR0aDoxOyIvPjxsaW5lIHN0eWxlPSJzdHJva2U6IzE4MTgxODtzdHJva2Utd2lkdGg6MTsiIHgxPSI0NDYiIHgyPSI0NDYiIHkxPSIyNDcuNzk2OSIgeTI9IjI2Ny43OTY5Ii8+PHBvbHlnb24gZmlsbD0iIzE4MTgxOCIgcG9pbnRzPSI0NDIsMjU3Ljc5NjksNDQ2LDI2Ny43OTY5LDQ1MCwyNTcuNzk2OSw0NDYsMjYxLjc5NjkiIHN0eWxlPSJzdHJva2U6IzE4MTgxODtzdHJva2Utd2lkdGg6MTsiLz48bGluZSBzdHlsZT0ic3Ryb2tlOiMxODE4MTg7c3Ryb2tlLXdpZHRoOjE7IiB4MT0iMzA3LjI1IiB4Mj0iMjg2IiB5MT0iMTkyLjk1MzEiIHkyPSIxOTIuOTUzMSIvPjxsaW5lIHN0eWxlPSJzdHJva2U6IzE4MTgxODtzdHJva2Utd2lkdGg6MTsiIHgxPSIyODYiIHgyPSIyODYiIHkxPSIxOTIuOTUzMSIgeTI9IjIxNC45NTMxIi8+PHBvbHlnb24gZmlsbD0iIzE4MTgxOCIgcG9pbnRzPSIyODIsMjA0Ljk1MzEsMjg2LDIxNC45NTMxLDI5MCwyMDQuOTUzMSwyODYsMjA4Ljk1MzEiIHN0eWxlPSJzdHJva2U6IzE4MTgxODtzdHJva2Utd2lkdGg6MTsiLz48bGluZSBzdHlsZT0ic3Ryb2tlOiMxODE4MTg7c3Ryb2tlLXdpZHRoOjE7IiB4MT0iNDI0Ljc1IiB4Mj0iNDQ2IiB5MT0iMTkyLjk1MzEiIHkyPSIxOTIuOTUzMSIvPjxsaW5lIHN0eWxlPSJzdHJva2U6IzE4MTgxODtzdHJva2Utd2lkdGg6MTsiIHgxPSI0NDYiIHgyPSI0NDYiIHkxPSIxOTIuOTUzMSIgeTI9IjIxNC45NTMxIi8+PHBvbHlnb24gZmlsbD0iIzE4MTgxOCIgcG9pbnRzPSI0NDIsMjA0Ljk1MzEsNDQ2LDIxNC45NTMxLDQ1MCwyMDQuOTUzMSw0NDYsMjA4Ljk1MzEiIHN0eWxlPSJzdHJva2U6IzE4MTgxODtzdHJva2Utd2lkdGg6MTsiLz48bGluZSBzdHlsZT0ic3Ryb2tlOiMxODE4MTg7c3Ryb2tlLXdpZHRoOjE7IiB4MT0iMzY2IiB4Mj0iMzY2IiB5MT0iMTYwLjk1MzEiIHkyPSIxODAuOTUzMSIvPjxwb2x5Z29uIGZpbGw9IiMxODE4MTgiIHBvaW50cz0iMzYyLDE3MC45NTMxLDM2NiwxODAuOTUzMSwzNzAsMTcwLjk1MzEsMzY2LDE3NC45NTMxIiBzdHlsZT0ic3Ryb2tlOiMxODE4MTg7c3Ryb2tlLXdpZHRoOjE7Ii8+PGxpbmUgc3R5bGU9InN0cm9rZTojMTgxODE4O3N0cm9rZS13aWR0aDoxOyIgeDE9IjEyMSIgeDI9IjEyMSIgeTE9IjEwOC4xMDk0IiB5Mj0iMTEzLjEwOTQiLz48bGluZSBzdHlsZT0ic3Ryb2tlOiMxODE4MTg7c3Ryb2tlLXdpZHRoOjE7IiB4MT0iMTIxIiB4Mj0iMzY2IiB5MT0iMTEzLjEwOTQiIHkyPSIxMTMuMTA5NCIvPjxsaW5lIHN0eWxlPSJzdHJva2U6IzE4MTgxODtzdHJva2Utd2lkdGg6MTsiIHgxPSIzNjYiIHgyPSIzNjYiIHkxPSIxMTMuMTA5NCIgeTI9IjEyOC4xMDk0Ii8+PHBvbHlnb24gZmlsbD0iIzE4MTgxOCIgcG9pbnRzPSIzNjIsMTE4LjEwOTQsMzY2LDEyOC4xMDk0LDM3MCwxMTguMTA5NCwzNjYsMTIyLjEwOTQiIHN0eWxlPSJzdHJva2U6IzE4MTgxODtzdHJva2Utd2lkdGg6MTsiLz48dGV4dCBmaWxsPSIjMDAwMDAwIiBmb250LWZhbWlseT0ic2Fucy1zZXJpZiIgZm9udC1zaXplPSIxOCIgbGVuZ3RoQWRqdXN0PSJzcGFjaW5nIiB0ZXh0TGVuZ3RoPSI5MCIgeD0iNzUiIHk9IjI4LjAxNTYiPldhbGkgTXVyaWQ8L3RleHQ+PHRleHQgZmlsbD0iIzAwMDAwMCIgZm9udC1mYW1pbHk9InNhbnMtc2VyaWYiIGZvbnQtc2l6ZT0iMTgiIGxlbmd0aEFkanVzdD0ic3BhY2luZyIgdGV4dExlbmd0aD0iNTQiIHg9IjM1MyIgeT0iMjguMDE1NiI+U2lzdGVtPC90ZXh0PjwhLS1TUkM9W0hPdXozaThtMzhMdGR5OVpVdUxzR0NvZTRuTThxU1lrT1lMRGVwWTU5T1NkUE8zYklQX3Ffa2dUV2tBcVAtS0FMWVdONjJRb3ROa0FrOWxhSUFpV0RxWGF6anVvWnIybFFhTk0yaUREaVl4Z29ISHo1ZlBlSWM0NE5SMnhfMVhWUk85RkZIT2Q0Umk3ek8wdWRCczlqTTlwcHVzRUxhR2hNbTg5OWpaRG9rSV9sZmRNZkU1dWF5SVEtZ1ExN0NMXzhoOGs3bTAwXS0tPjwvZz48L3N2Zz4=;" vertex="1" parent="1">
            <mxGeometry x="-270" y="1120" width="556" height="307" as="geometry" />
          </mxCell>
        </UserObject>
        <UserObject label="" plantUmlData="{&#xa;  &quot;data&quot;: &quot;@startuml\n|Wali Murid|\nstart\n:Klik menu Tagihan;\n|Sistem|\n:Tampilkan data tagihan SPP;\nstop\n@enduml\n&quot;,&#xa;  &quot;format&quot;: &quot;svg&quot;&#xa;}" id="f9MgHtHTdjxqu1ZTsrYx-16">
          <mxCell style="shape=image;noLabel=1;verticalAlign=top;aspect=fixed;imageAspect=0;image=data:image/svg+xml,PHN2ZyB4bWxucz0iaHR0cDovL3d3dy53My5vcmcvMjAwMC9zdmciIHhtbG5zOnhsaW5rPSJodHRwOi8vd3d3LnczLm9yZy8xOTk5L3hsaW5rIiBjb250ZW50U3R5bGVUeXBlPSJ0ZXh0L2NzcyIgZGF0YS1kaWFncmFtLXR5cGU9IkFDVElWSVRZIiBoZWlnaHQ9IjIxNHB4IiBwcmVzZXJ2ZUFzcGVjdFJhdGlvPSJub25lIiBzdHlsZT0id2lkdGg6MzU0cHg7aGVpZ2h0OjIxNHB4O2JhY2tncm91bmQ6I0ZGRkZGRjsiIHZlcnNpb249IjEuMSIgdmlld0JveD0iMCAwIDM1NCAyMTQiIHdpZHRoPSIzNTRweCIgem9vbUFuZFBhbj0ibWFnbmlmeSI+PGRlZnMvPjxnPjxyZWN0IGZpbGw9Im5vbmUiIGhlaWdodD0iMTkuMjY1NiIgc3R5bGU9InN0cm9rZTpub25lO3N0cm9rZS13aWR0aDoxOyIgd2lkdGg9IjMyMS41IiB4PSIxNSIgeT0iMTEiLz48ZWxsaXBzZSBjeD0iODIiIGN5PSI0NS4yNjU2IiBmaWxsPSIjMjIyMjIyIiByeD0iMTAiIHJ5PSIxMCIgc3R5bGU9InN0cm9rZTojMjIyMjIyO3N0cm9rZS13aWR0aDoxOyIvPjxyZWN0IGZpbGw9IiNGMUYxRjEiIGhlaWdodD0iMzIuODQzOCIgcng9IjEyLjUiIHJ5PSIxMi41IiBzdHlsZT0ic3Ryb2tlOiMxODE4MTg7c3Ryb2tlLXdpZHRoOjAuNTsiIHdpZHRoPSIxMjIiIHg9IjIxIiB5PSI3NS4yNjU2Ii8+PHRleHQgZmlsbD0iIzAwMDAwMCIgZm9udC1mYW1pbHk9InNhbnMtc2VyaWYiIGZvbnQtc2l6ZT0iMTIiIGxlbmd0aEFkanVzdD0ic3BhY2luZyIgdGV4dExlbmd0aD0iMTAyIiB4PSIzMSIgeT0iOTYuNjA5NCI+S2xpayBtZW51IFRhZ2loYW48L3RleHQ+PGxpbmUgc3R5bGU9InN0cm9rZTojMDAwMDAwO3N0cm9rZS13aWR0aDoxLjU7IiB4MT0iMTUiIHgyPSIxNSIgeTE9IjExIiB5Mj0iMjAyLjk1MzEiLz48cmVjdCBmaWxsPSIjRjFGMUYxIiBoZWlnaHQ9IjMyLjg0MzgiIHJ4PSIxMi41IiByeT0iMTIuNSIgc3R5bGU9InN0cm9rZTojMTgxODE4O3N0cm9rZS13aWR0aDowLjU7IiB3aWR0aD0iMTc2IiB4PSIxNTMiIHk9IjEyOC4xMDk0Ii8+PHRleHQgZmlsbD0iIzAwMDAwMCIgZm9udC1mYW1pbHk9InNhbnMtc2VyaWYiIGZvbnQtc2l6ZT0iMTIiIGxlbmd0aEFkanVzdD0ic3BhY2luZyIgdGV4dExlbmd0aD0iMTU2IiB4PSIxNjMiIHk9IjE0OS40NTMxIj5UYW1waWxrYW4gZGF0YSB0YWdpaGFuIFNQUDwvdGV4dD48ZWxsaXBzZSBjeD0iMjQxIiBjeT0iMTkxLjk1MzEiIGZpbGw9Im5vbmUiIHJ4PSIxMSIgcnk9IjExIiBzdHlsZT0ic3Ryb2tlOiMyMjIyMjI7c3Ryb2tlLXdpZHRoOjE7Ii8+PGVsbGlwc2UgY3g9IjI0MSIgY3k9IjE5MS45NTMxIiBmaWxsPSIjMjIyMjIyIiByeD0iNiIgcnk9IjYiIHN0eWxlPSJzdHJva2U6IzIyMjIyMjtzdHJva2Utd2lkdGg6MTsiLz48bGluZSBzdHlsZT0ic3Ryb2tlOiMwMDAwMDA7c3Ryb2tlLXdpZHRoOjEuNTsiIHgxPSIxNDciIHgyPSIxNDciIHkxPSIxMSIgeTI9IjIwMi45NTMxIi8+PGxpbmUgc3R5bGU9InN0cm9rZTojMDAwMDAwO3N0cm9rZS13aWR0aDoxLjU7IiB4MT0iMzMzIiB4Mj0iMzMzIiB5MT0iMTEiIHkyPSIyMDIuOTUzMSIvPjxsaW5lIHN0eWxlPSJzdHJva2U6IzE4MTgxODtzdHJva2Utd2lkdGg6MTsiIHgxPSI4MiIgeDI9IjgyIiB5MT0iNTUuMjY1NiIgeTI9Ijc1LjI2NTYiLz48cG9seWdvbiBmaWxsPSIjMTgxODE4IiBwb2ludHM9Ijc4LDY1LjI2NTYsODIsNzUuMjY1Niw4Niw2NS4yNjU2LDgyLDY5LjI2NTYiIHN0eWxlPSJzdHJva2U6IzE4MTgxODtzdHJva2Utd2lkdGg6MTsiLz48bGluZSBzdHlsZT0ic3Ryb2tlOiMxODE4MTg7c3Ryb2tlLXdpZHRoOjE7IiB4MT0iMjQxIiB4Mj0iMjQxIiB5MT0iMTYwLjk1MzEiIHkyPSIxODAuOTUzMSIvPjxwb2x5Z29uIGZpbGw9IiMxODE4MTgiIHBvaW50cz0iMjM3LDE3MC45NTMxLDI0MSwxODAuOTUzMSwyNDUsMTcwLjk1MzEsMjQxLDE3NC45NTMxIiBzdHlsZT0ic3Ryb2tlOiMxODE4MTg7c3Ryb2tlLXdpZHRoOjE7Ii8+PGxpbmUgc3R5bGU9InN0cm9rZTojMTgxODE4O3N0cm9rZS13aWR0aDoxOyIgeDE9IjgyIiB4Mj0iODIiIHkxPSIxMDguMTA5NCIgeTI9IjExMy4xMDk0Ii8+PGxpbmUgc3R5bGU9InN0cm9rZTojMTgxODE4O3N0cm9rZS13aWR0aDoxOyIgeDE9IjgyIiB4Mj0iMjQxIiB5MT0iMTEzLjEwOTQiIHkyPSIxMTMuMTA5NCIvPjxsaW5lIHN0eWxlPSJzdHJva2U6IzE4MTgxODtzdHJva2Utd2lkdGg6MTsiIHgxPSIyNDEiIHgyPSIyNDEiIHkxPSIxMTMuMTA5NCIgeTI9IjEyOC4xMDk0Ii8+PHBvbHlnb24gZmlsbD0iIzE4MTgxOCIgcG9pbnRzPSIyMzcsMTE4LjEwOTQsMjQxLDEyOC4xMDk0LDI0NSwxMTguMTA5NCwyNDEsMTIyLjEwOTQiIHN0eWxlPSJzdHJva2U6IzE4MTgxODtzdHJva2Utd2lkdGg6MTsiLz48dGV4dCBmaWxsPSIjMDAwMDAwIiBmb250LWZhbWlseT0ic2Fucy1zZXJpZiIgZm9udC1zaXplPSIxOCIgbGVuZ3RoQWRqdXN0PSJzcGFjaW5nIiB0ZXh0TGVuZ3RoPSI5MCIgeD0iMzYiIHk9IjI4LjAxNTYiPldhbGkgTXVyaWQ8L3RleHQ+PHRleHQgZmlsbD0iIzAwMDAwMCIgZm9udC1mYW1pbHk9InNhbnMtc2VyaWYiIGZvbnQtc2l6ZT0iMTgiIGxlbmd0aEFkanVzdD0ic3BhY2luZyIgdGV4dExlbmd0aD0iNTQiIHg9IjIxMyIgeT0iMjguMDE1NiI+U2lzdGVtPC90ZXh0PjwhLS1TUkM9WzlTakQyZTBXNDBSR2xRVU9TLUdIOFgwS01kLVdyRTFGZWtEazNiX0dfWnF6S1BZRURKWWdjTzhYUGppQlB3Z2ZCR2d1LTRRcEhackZJTE5ENWIweGJ1bjY0R0FJTnYxdHBkeF93SXkwXS0tPjwvZz48L3N2Zz4=;" vertex="1" parent="1">
            <mxGeometry x="340" y="1160" width="354" height="214" as="geometry" />
          </mxCell>
        </UserObject>
        <UserObject label="" plantUmlData="{&#xa;  &quot;data&quot;: &quot;@startuml\n|Wali Murid|\nstart\n:Klik menu Tagihan;\n|Sistem|\n:Tampilkan data tagihan SPP;\nstop\n@enduml\n&quot;,&#xa;  &quot;format&quot;: &quot;svg&quot;&#xa;}" id="f9MgHtHTdjxqu1ZTsrYx-17">
          <mxCell style="shape=image;noLabel=1;verticalAlign=top;aspect=fixed;imageAspect=0;image=data:image/svg+xml,PHN2ZyB4bWxucz0iaHR0cDovL3d3dy53My5vcmcvMjAwMC9zdmciIHhtbG5zOnhsaW5rPSJodHRwOi8vd3d3LnczLm9yZy8xOTk5L3hsaW5rIiBjb250ZW50U3R5bGVUeXBlPSJ0ZXh0L2NzcyIgZGF0YS1kaWFncmFtLXR5cGU9IkFDVElWSVRZIiBoZWlnaHQ9IjIxNHB4IiBwcmVzZXJ2ZUFzcGVjdFJhdGlvPSJub25lIiBzdHlsZT0id2lkdGg6MzU0cHg7aGVpZ2h0OjIxNHB4O2JhY2tncm91bmQ6I0ZGRkZGRjsiIHZlcnNpb249IjEuMSIgdmlld0JveD0iMCAwIDM1NCAyMTQiIHdpZHRoPSIzNTRweCIgem9vbUFuZFBhbj0ibWFnbmlmeSI+PGRlZnMvPjxnPjxyZWN0IGZpbGw9Im5vbmUiIGhlaWdodD0iMTkuMjY1NiIgc3R5bGU9InN0cm9rZTpub25lO3N0cm9rZS13aWR0aDoxOyIgd2lkdGg9IjMyMS41IiB4PSIxNSIgeT0iMTEiLz48ZWxsaXBzZSBjeD0iODIiIGN5PSI0NS4yNjU2IiBmaWxsPSIjMjIyMjIyIiByeD0iMTAiIHJ5PSIxMCIgc3R5bGU9InN0cm9rZTojMjIyMjIyO3N0cm9rZS13aWR0aDoxOyIvPjxyZWN0IGZpbGw9IiNGMUYxRjEiIGhlaWdodD0iMzIuODQzOCIgcng9IjEyLjUiIHJ5PSIxMi41IiBzdHlsZT0ic3Ryb2tlOiMxODE4MTg7c3Ryb2tlLXdpZHRoOjAuNTsiIHdpZHRoPSIxMjIiIHg9IjIxIiB5PSI3NS4yNjU2Ii8+PHRleHQgZmlsbD0iIzAwMDAwMCIgZm9udC1mYW1pbHk9InNhbnMtc2VyaWYiIGZvbnQtc2l6ZT0iMTIiIGxlbmd0aEFkanVzdD0ic3BhY2luZyIgdGV4dExlbmd0aD0iMTAyIiB4PSIzMSIgeT0iOTYuNjA5NCI+S2xpayBtZW51IFRhZ2loYW48L3RleHQ+PGxpbmUgc3R5bGU9InN0cm9rZTojMDAwMDAwO3N0cm9rZS13aWR0aDoxLjU7IiB4MT0iMTUiIHgyPSIxNSIgeTE9IjExIiB5Mj0iMjAyLjk1MzEiLz48cmVjdCBmaWxsPSIjRjFGMUYxIiBoZWlnaHQ9IjMyLjg0MzgiIHJ4PSIxMi41IiByeT0iMTIuNSIgc3R5bGU9InN0cm9rZTojMTgxODE4O3N0cm9rZS13aWR0aDowLjU7IiB3aWR0aD0iMTc2IiB4PSIxNTMiIHk9IjEyOC4xMDk0Ii8+PHRleHQgZmlsbD0iIzAwMDAwMCIgZm9udC1mYW1pbHk9InNhbnMtc2VyaWYiIGZvbnQtc2l6ZT0iMTIiIGxlbmd0aEFkanVzdD0ic3BhY2luZyIgdGV4dExlbmd0aD0iMTU2IiB4PSIxNjMiIHk9IjE0OS40NTMxIj5UYW1waWxrYW4gZGF0YSB0YWdpaGFuIFNQUDwvdGV4dD48ZWxsaXBzZSBjeD0iMjQxIiBjeT0iMTkxLjk1MzEiIGZpbGw9Im5vbmUiIHJ4PSIxMSIgcnk9IjExIiBzdHlsZT0ic3Ryb2tlOiMyMjIyMjI7c3Ryb2tlLXdpZHRoOjE7Ii8+PGVsbGlwc2UgY3g9IjI0MSIgY3k9IjE5MS45NTMxIiBmaWxsPSIjMjIyMjIyIiByeD0iNiIgcnk9IjYiIHN0eWxlPSJzdHJva2U6IzIyMjIyMjtzdHJva2Utd2lkdGg6MTsiLz48bGluZSBzdHlsZT0ic3Ryb2tlOiMwMDAwMDA7c3Ryb2tlLXdpZHRoOjEuNTsiIHgxPSIxNDciIHgyPSIxNDciIHkxPSIxMSIgeTI9IjIwMi45NTMxIi8+PGxpbmUgc3R5bGU9InN0cm9rZTojMDAwMDAwO3N0cm9rZS13aWR0aDoxLjU7IiB4MT0iMzMzIiB4Mj0iMzMzIiB5MT0iMTEiIHkyPSIyMDIuOTUzMSIvPjxsaW5lIHN0eWxlPSJzdHJva2U6IzE4MTgxODtzdHJva2Utd2lkdGg6MTsiIHgxPSI4MiIgeDI9IjgyIiB5MT0iNTUuMjY1NiIgeTI9Ijc1LjI2NTYiLz48cG9seWdvbiBmaWxsPSIjMTgxODE4IiBwb2ludHM9Ijc4LDY1LjI2NTYsODIsNzUuMjY1Niw4Niw2NS4yNjU2LDgyLDY5LjI2NTYiIHN0eWxlPSJzdHJva2U6IzE4MTgxODtzdHJva2Utd2lkdGg6MTsiLz48bGluZSBzdHlsZT0ic3Ryb2tlOiMxODE4MTg7c3Ryb2tlLXdpZHRoOjE7IiB4MT0iMjQxIiB4Mj0iMjQxIiB5MT0iMTYwLjk1MzEiIHkyPSIxODAuOTUzMSIvPjxwb2x5Z29uIGZpbGw9IiMxODE4MTgiIHBvaW50cz0iMjM3LDE3MC45NTMxLDI0MSwxODAuOTUzMSwyNDUsMTcwLjk1MzEsMjQxLDE3NC45NTMxIiBzdHlsZT0ic3Ryb2tlOiMxODE4MTg7c3Ryb2tlLXdpZHRoOjE7Ii8+PGxpbmUgc3R5bGU9InN0cm9rZTojMTgxODE4O3N0cm9rZS13aWR0aDoxOyIgeDE9IjgyIiB4Mj0iODIiIHkxPSIxMDguMTA5NCIgeTI9IjExMy4xMDk0Ii8+PGxpbmUgc3R5bGU9InN0cm9rZTojMTgxODE4O3N0cm9rZS13aWR0aDoxOyIgeDE9IjgyIiB4Mj0iMjQxIiB5MT0iMTEzLjEwOTQiIHkyPSIxMTMuMTA5NCIvPjxsaW5lIHN0eWxlPSJzdHJva2U6IzE4MTgxODtzdHJva2Utd2lkdGg6MTsiIHgxPSIyNDEiIHgyPSIyNDEiIHkxPSIxMTMuMTA5NCIgeTI9IjEyOC4xMDk0Ii8+PHBvbHlnb24gZmlsbD0iIzE4MTgxOCIgcG9pbnRzPSIyMzcsMTE4LjEwOTQsMjQxLDEyOC4xMDk0LDI0NSwxMTguMTA5NCwyNDEsMTIyLjEwOTQiIHN0eWxlPSJzdHJva2U6IzE4MTgxODtzdHJva2Utd2lkdGg6MTsiLz48dGV4dCBmaWxsPSIjMDAwMDAwIiBmb250LWZhbWlseT0ic2Fucy1zZXJpZiIgZm9udC1zaXplPSIxOCIgbGVuZ3RoQWRqdXN0PSJzcGFjaW5nIiB0ZXh0TGVuZ3RoPSI5MCIgeD0iMzYiIHk9IjI4LjAxNTYiPldhbGkgTXVyaWQ8L3RleHQ+PHRleHQgZmlsbD0iIzAwMDAwMCIgZm9udC1mYW1pbHk9InNhbnMtc2VyaWYiIGZvbnQtc2l6ZT0iMTgiIGxlbmd0aEFkanVzdD0ic3BhY2luZyIgdGV4dExlbmd0aD0iNTQiIHg9IjIxMyIgeT0iMjguMDE1NiI+U2lzdGVtPC90ZXh0PjwhLS1TUkM9WzlTakQyZTBXNDBSR2xRVU9TLUdIOFgwS01kLVdyRTFGZWtEazNiX0dfWnF6S1BZRURKWWdjTzhYUGppQlB3Z2ZCR2d1LTRRcEhackZJTE5ENWIweGJ1bjY0R0FJTnYxdHBkeF93SXkwXS0tPjwvZz48L3N2Zz4=;" vertex="1" parent="1">
            <mxGeometry x="700" y="1140" width="354" height="214" as="geometry" />
          </mxCell>
        </UserObject>
        <UserObject label="" plantUmlData="{&#xa;  &quot;data&quot;: &quot;@startuml\n|Wali Murid|\nstart\n:Klik menu Upload Bukti;\n:Unggah file bukti transfer;\n|Sistem|\n:Simpan bukti pembayaran ke database;\n:Kirim notifikasi ke Petugas TU;\nstop\n@enduml\n&quot;,&#xa;  &quot;format&quot;: &quot;svg&quot;&#xa;}" id="f9MgHtHTdjxqu1ZTsrYx-19">
          <mxCell style="shape=image;noLabel=1;verticalAlign=top;aspect=fixed;imageAspect=0;image=data:image/svg+xml,PHN2ZyB4bWxucz0iaHR0cDovL3d3dy53My5vcmcvMjAwMC9zdmciIHhtbG5zOnhsaW5rPSJodHRwOi8vd3d3LnczLm9yZy8xOTk5L3hsaW5rIiBjb250ZW50U3R5bGVUeXBlPSJ0ZXh0L2NzcyIgZGF0YS1kaWFncmFtLXR5cGU9IkFDVElWSVRZIiBoZWlnaHQ9IjMyMHB4IiBwcmVzZXJ2ZUFzcGVjdFJhdGlvPSJub25lIiBzdHlsZT0id2lkdGg6NDYycHg7aGVpZ2h0OjMyMHB4O2JhY2tncm91bmQ6I0ZGRkZGRjsiIHZlcnNpb249IjEuMSIgdmlld0JveD0iMCAwIDQ2MiAzMjAiIHdpZHRoPSI0NjJweCIgem9vbUFuZFBhbj0ibWFnbmlmeSI+PGRlZnMvPjxnPjxyZWN0IGZpbGw9Im5vbmUiIGhlaWdodD0iMTkuMjY1NiIgc3R5bGU9InN0cm9rZTpub25lO3N0cm9rZS13aWR0aDoxOyIgd2lkdGg9IjQyOS41IiB4PSIxNSIgeT0iMTEiLz48ZWxsaXBzZSBjeD0iMTA5IiBjeT0iNDUuMjY1NiIgZmlsbD0iIzIyMjIyMiIgcng9IjEwIiByeT0iMTAiIHN0eWxlPSJzdHJva2U6IzIyMjIyMjtzdHJva2Utd2lkdGg6MTsiLz48cmVjdCBmaWxsPSIjRjFGMUYxIiBoZWlnaHQ9IjMyLjg0MzgiIHJ4PSIxMi41IiByeT0iMTIuNSIgc3R5bGU9InN0cm9rZTojMTgxODE4O3N0cm9rZS13aWR0aDowLjU7IiB3aWR0aD0iMTUyIiB4PSIzMyIgeT0iNzUuMjY1NiIvPjx0ZXh0IGZpbGw9IiMwMDAwMDAiIGZvbnQtZmFtaWx5PSJzYW5zLXNlcmlmIiBmb250LXNpemU9IjEyIiBsZW5ndGhBZGp1c3Q9InNwYWNpbmciIHRleHRMZW5ndGg9IjEzMiIgeD0iNDMiIHk9Ijk2LjYwOTQiPktsaWsgbWVudSBVcGxvYWQgQnVrdGk8L3RleHQ+PHJlY3QgZmlsbD0iI0YxRjFGMSIgaGVpZ2h0PSIzMi44NDM4IiByeD0iMTIuNSIgcnk9IjEyLjUiIHN0eWxlPSJzdHJva2U6IzE4MTgxODtzdHJva2Utd2lkdGg6MC41OyIgd2lkdGg9IjE3NiIgeD0iMjEiIHk9IjEyOC4xMDk0Ii8+PHRleHQgZmlsbD0iIzAwMDAwMCIgZm9udC1mYW1pbHk9InNhbnMtc2VyaWYiIGZvbnQtc2l6ZT0iMTIiIGxlbmd0aEFkanVzdD0ic3BhY2luZyIgdGV4dExlbmd0aD0iMTU2IiB4PSIzMSIgeT0iMTQ5LjQ1MzEiPlVuZ2dhaCBmaWxlIGJ1a3RpIHRyYW5zZmVyPC90ZXh0PjxsaW5lIHN0eWxlPSJzdHJva2U6IzAwMDAwMDtzdHJva2Utd2lkdGg6MS41OyIgeDE9IjE1IiB4Mj0iMTUiIHkxPSIxMSIgeTI9IjMwOC42NDA2Ii8+PHJlY3QgZmlsbD0iI0YxRjFGMSIgaGVpZ2h0PSIzMi44NDM4IiByeD0iMTIuNSIgcnk9IjEyLjUiIHN0eWxlPSJzdHJva2U6IzE4MTgxODtzdHJva2Utd2lkdGg6MC41OyIgd2lkdGg9IjIzMCIgeD0iMjA3IiB5PSIxODAuOTUzMSIvPjx0ZXh0IGZpbGw9IiMwMDAwMDAiIGZvbnQtZmFtaWx5PSJzYW5zLXNlcmlmIiBmb250LXNpemU9IjEyIiBsZW5ndGhBZGp1c3Q9InNwYWNpbmciIHRleHRMZW5ndGg9IjIxMCIgeD0iMjE3IiB5PSIyMDIuMjk2OSI+U2ltcGFuIGJ1a3RpIHBlbWJheWFyYW4ga2UgZGF0YWJhc2U8L3RleHQ+PHJlY3QgZmlsbD0iI0YxRjFGMSIgaGVpZ2h0PSIzMi44NDM4IiByeD0iMTIuNSIgcnk9IjEyLjUiIHN0eWxlPSJzdHJva2U6IzE4MTgxODtzdHJva2Utd2lkdGg6MC41OyIgd2lkdGg9IjIwMCIgeD0iMjIyIiB5PSIyMzMuNzk2OSIvPjx0ZXh0IGZpbGw9IiMwMDAwMDAiIGZvbnQtZmFtaWx5PSJzYW5zLXNlcmlmIiBmb250LXNpemU9IjEyIiBsZW5ndGhBZGp1c3Q9InNwYWNpbmciIHRleHRMZW5ndGg9IjE4MCIgeD0iMjMyIiB5PSIyNTUuMTQwNiI+S2lyaW0gbm90aWZpa2FzaSBrZSBQZXR1Z2FzIFRVPC90ZXh0PjxlbGxpcHNlIGN4PSIzMjIiIGN5PSIyOTcuNjQwNiIgZmlsbD0ibm9uZSIgcng9IjExIiByeT0iMTEiIHN0eWxlPSJzdHJva2U6IzIyMjIyMjtzdHJva2Utd2lkdGg6MTsiLz48ZWxsaXBzZSBjeD0iMzIyIiBjeT0iMjk3LjY0MDYiIGZpbGw9IiMyMjIyMjIiIHJ4PSI2IiByeT0iNiIgc3R5bGU9InN0cm9rZTojMjIyMjIyO3N0cm9rZS13aWR0aDoxOyIvPjxsaW5lIHN0eWxlPSJzdHJva2U6IzAwMDAwMDtzdHJva2Utd2lkdGg6MS41OyIgeDE9IjIwMSIgeDI9IjIwMSIgeTE9IjExIiB5Mj0iMzA4LjY0MDYiLz48bGluZSBzdHlsZT0ic3Ryb2tlOiMwMDAwMDA7c3Ryb2tlLXdpZHRoOjEuNTsiIHgxPSI0NDEiIHgyPSI0NDEiIHkxPSIxMSIgeTI9IjMwOC42NDA2Ii8+PGxpbmUgc3R5bGU9InN0cm9rZTojMTgxODE4O3N0cm9rZS13aWR0aDoxOyIgeDE9IjEwOSIgeDI9IjEwOSIgeTE9IjU1LjI2NTYiIHkyPSI3NS4yNjU2Ii8+PHBvbHlnb24gZmlsbD0iIzE4MTgxOCIgcG9pbnRzPSIxMDUsNjUuMjY1NiwxMDksNzUuMjY1NiwxMTMsNjUuMjY1NiwxMDksNjkuMjY1NiIgc3R5bGU9InN0cm9rZTojMTgxODE4O3N0cm9rZS13aWR0aDoxOyIvPjxsaW5lIHN0eWxlPSJzdHJva2U6IzE4MTgxODtzdHJva2Utd2lkdGg6MTsiIHgxPSIxMDkiIHgyPSIxMDkiIHkxPSIxMDguMTA5NCIgeTI9IjEyOC4xMDk0Ii8+PHBvbHlnb24gZmlsbD0iIzE4MTgxOCIgcG9pbnRzPSIxMDUsMTE4LjEwOTQsMTA5LDEyOC4xMDk0LDExMywxMTguMTA5NCwxMDksMTIyLjEwOTQiIHN0eWxlPSJzdHJva2U6IzE4MTgxODtzdHJva2Utd2lkdGg6MTsiLz48bGluZSBzdHlsZT0ic3Ryb2tlOiMxODE4MTg7c3Ryb2tlLXdpZHRoOjE7IiB4MT0iMzIyIiB4Mj0iMzIyIiB5MT0iMjEzLjc5NjkiIHkyPSIyMzMuNzk2OSIvPjxwb2x5Z29uIGZpbGw9IiMxODE4MTgiIHBvaW50cz0iMzE4LDIyMy43OTY5LDMyMiwyMzMuNzk2OSwzMjYsMjIzLjc5NjksMzIyLDIyNy43OTY5IiBzdHlsZT0ic3Ryb2tlOiMxODE4MTg7c3Ryb2tlLXdpZHRoOjE7Ii8+PGxpbmUgc3R5bGU9InN0cm9rZTojMTgxODE4O3N0cm9rZS13aWR0aDoxOyIgeDE9IjMyMiIgeDI9IjMyMiIgeTE9IjI2Ni42NDA2IiB5Mj0iMjg2LjY0MDYiLz48cG9seWdvbiBmaWxsPSIjMTgxODE4IiBwb2ludHM9IjMxOCwyNzYuNjQwNiwzMjIsMjg2LjY0MDYsMzI2LDI3Ni42NDA2LDMyMiwyODAuNjQwNiIgc3R5bGU9InN0cm9rZTojMTgxODE4O3N0cm9rZS13aWR0aDoxOyIvPjxsaW5lIHN0eWxlPSJzdHJva2U6IzE4MTgxODtzdHJva2Utd2lkdGg6MTsiIHgxPSIxMDkiIHgyPSIxMDkiIHkxPSIxNjAuOTUzMSIgeTI9IjE2NS45NTMxIi8+PGxpbmUgc3R5bGU9InN0cm9rZTojMTgxODE4O3N0cm9rZS13aWR0aDoxOyIgeDE9IjEwOSIgeDI9IjMyMiIgeTE9IjE2NS45NTMxIiB5Mj0iMTY1Ljk1MzEiLz48bGluZSBzdHlsZT0ic3Ryb2tlOiMxODE4MTg7c3Ryb2tlLXdpZHRoOjE7IiB4MT0iMzIyIiB4Mj0iMzIyIiB5MT0iMTY1Ljk1MzEiIHkyPSIxODAuOTUzMSIvPjxwb2x5Z29uIGZpbGw9IiMxODE4MTgiIHBvaW50cz0iMzE4LDE3MC45NTMxLDMyMiwxODAuOTUzMSwzMjYsMTcwLjk1MzEsMzIyLDE3NC45NTMxIiBzdHlsZT0ic3Ryb2tlOiMxODE4MTg7c3Ryb2tlLXdpZHRoOjE7Ii8+PHRleHQgZmlsbD0iIzAwMDAwMCIgZm9udC1mYW1pbHk9InNhbnMtc2VyaWYiIGZvbnQtc2l6ZT0iMTgiIGxlbmd0aEFkanVzdD0ic3BhY2luZyIgdGV4dExlbmd0aD0iOTAiIHg9IjYzIiB5PSIyOC4wMTU2Ij5XYWxpIE11cmlkPC90ZXh0Pjx0ZXh0IGZpbGw9IiMwMDAwMDAiIGZvbnQtZmFtaWx5PSJzYW5zLXNlcmlmIiBmb250LXNpemU9IjE4IiBsZW5ndGhBZGp1c3Q9InNwYWNpbmciIHRleHRMZW5ndGg9IjU0IiB4PSIyOTQiIHk9IjI4LjAxNTYiPlNpc3RlbTwvdGV4dD48IS0tU1JDPVtCT3V4MmlDbTQwTHhkTUJGT05UZkpJM1djREpGVUVLaS1ZQWpZZTBFUm5kSXBYaVVxcF9tR2l6TXZFWWNBZWdRUVY3WUE3MWlqNk1WU0QyWkVQTlBKNWl5SnRwOVljVlFScVBRNEFsYkNmay1JYktFdEtvaFg4cHU1cEE3N0p5Q1pIcEowU01Fb2tEaGFJQTFPYkFudWIzYmRiLWl4S0lienBRRmJmR2xdLS0+PC9nPjwvc3ZnPg==;" vertex="1" parent="1">
            <mxGeometry x="-230" y="1450" width="462" height="320" as="geometry" />
          </mxCell>
        </UserObject>
        <UserObject label="" plantUmlData="{&#xa;  &quot;data&quot;: &quot;@startuml\n|Petugas TU|\nstart\n:Klik menu Verifikasi;\n:Lihat bukti pembayaran;\nif (Bukti valid?) then (Ya)\n  :Setujui dan validasi pembayaran;\n  |Sistem|\n  :Update status pembayaran;\nelse (Tidak)\n  :Tolak pembayaran dan beri catatan;\nendif\nstop\n@enduml\n&quot;,&#xa;  &quot;format&quot;: &quot;svg&quot;&#xa;}" id="f9MgHtHTdjxqu1ZTsrYx-20">
          <mxCell style="shape=image;noLabel=1;verticalAlign=top;aspect=fixed;imageAspect=0;image=data:image/svg+xml,PHN2ZyB4bWxucz0iaHR0cDovL3d3dy53My5vcmcvMjAwMC9zdmciIHhtbG5zOnhsaW5rPSJodHRwOi8vd3d3LnczLm9yZy8xOTk5L3hsaW5rIiBjb250ZW50U3R5bGVUeXBlPSJ0ZXh0L2NzcyIgZGF0YS1kaWFncmFtLXR5cGU9IkFDVElWSVRZIiBoZWlnaHQ9IjM5OHB4IiBwcmVzZXJ2ZUFzcGVjdFJhdGlvPSJub25lIiBzdHlsZT0id2lkdGg6NzYxcHg7aGVpZ2h0OjM5OHB4O2JhY2tncm91bmQ6I0ZGRkZGRjsiIHZlcnNpb249IjEuMSIgdmlld0JveD0iMCAwIDc2MSAzOTgiIHdpZHRoPSI3NjFweCIgem9vbUFuZFBhbj0ibWFnbmlmeSI+PGRlZnMvPjxnPjxyZWN0IGZpbGw9Im5vbmUiIGhlaWdodD0iMTkuMjY1NiIgc3R5bGU9InN0cm9rZTpub25lO3N0cm9rZS13aWR0aDoxOyIgd2lkdGg9IjcyOC41IiB4PSIxNSIgeT0iMTEiLz48ZWxsaXBzZSBjeD0iMjQwIiBjeT0iNDUuMjY1NiIgZmlsbD0iIzIyMjIyMiIgcng9IjEwIiByeT0iMTAiIHN0eWxlPSJzdHJva2U6IzIyMjIyMjtzdHJva2Utd2lkdGg6MTsiLz48cmVjdCBmaWxsPSIjRjFGMUYxIiBoZWlnaHQ9IjMyLjg0MzgiIHJ4PSIxMi41IiByeT0iMTIuNSIgc3R5bGU9InN0cm9rZTojMTgxODE4O3N0cm9rZS13aWR0aDowLjU7IiB3aWR0aD0iMTQwIiB4PSIxNzAiIHk9Ijc1LjI2NTYiLz48dGV4dCBmaWxsPSIjMDAwMDAwIiBmb250LWZhbWlseT0ic2Fucy1zZXJpZiIgZm9udC1zaXplPSIxMiIgbGVuZ3RoQWRqdXN0PSJzcGFjaW5nIiB0ZXh0TGVuZ3RoPSIxMjAiIHg9IjE4MCIgeT0iOTYuNjA5NCI+S2xpayBtZW51IFZlcmlmaWthc2k8L3RleHQ+PHJlY3QgZmlsbD0iI0YxRjFGMSIgaGVpZ2h0PSIzMi44NDM4IiByeD0iMTIuNSIgcnk9IjEyLjUiIHN0eWxlPSJzdHJva2U6IzE4MTgxODtzdHJva2Utd2lkdGg6MC41OyIgd2lkdGg9IjE1MiIgeD0iMTY0IiB5PSIxMjguMTA5NCIvPjx0ZXh0IGZpbGw9IiMwMDAwMDAiIGZvbnQtZmFtaWx5PSJzYW5zLXNlcmlmIiBmb250LXNpemU9IjEyIiBsZW5ndGhBZGp1c3Q9InNwYWNpbmciIHRleHRMZW5ndGg9IjEzMiIgeD0iMTc0IiB5PSIxNDkuNDUzMSI+TGloYXQgYnVrdGkgcGVtYmF5YXJhbjwvdGV4dD48cG9seWdvbiBmaWxsPSIjRjFGMUYxIiBwb2ludHM9IjIwNywxODAuOTUzMSwyNzMsMTgwLjk1MzEsMjg1LDE5Mi45NTMxLDI3MywyMDQuOTUzMSwyMDcsMjA0Ljk1MzEsMTk1LDE5Mi45NTMxLDIwNywxODAuOTUzMSIgc3R5bGU9InN0cm9rZTojMTgxODE4O3N0cm9rZS13aWR0aDowLjU7Ii8+PHRleHQgZmlsbD0iIzAwMDAwMCIgZm9udC1mYW1pbHk9InNhbnMtc2VyaWYiIGZvbnQtc2l6ZT0iMTEiIGxlbmd0aEFkanVzdD0ic3BhY2luZyIgdGV4dExlbmd0aD0iNjYiIHg9IjIwNyIgeT0iMTk3LjQ2NDgiPkJ1a3RpIHZhbGlkPzwvdGV4dD48dGV4dCBmaWxsPSIjMDAwMDAwIiBmb250LWZhbWlseT0ic2Fucy1zZXJpZiIgZm9udC1zaXplPSIxMSIgbGVuZ3RoQWRqdXN0PSJzcGFjaW5nIiB0ZXh0TGVuZ3RoPSIxMSIgeD0iMTg0IiB5PSIxOTEuNTc4MSI+WWE8L3RleHQ+PHRleHQgZmlsbD0iIzAwMDAwMCIgZm9udC1mYW1pbHk9InNhbnMtc2VyaWYiIGZvbnQtc2l6ZT0iMTEiIGxlbmd0aEFkanVzdD0ic3BhY2luZyIgdGV4dExlbmd0aD0iMjcuNSIgeD0iMjg1IiB5PSIxOTEuNTc4MSI+VGlkYWs8L3RleHQ+PHJlY3QgZmlsbD0iI0YxRjFGMSIgaGVpZ2h0PSIzMi44NDM4IiByeD0iMTIuNSIgcnk9IjEyLjUiIHN0eWxlPSJzdHJva2U6IzE4MTgxODtzdHJva2Utd2lkdGg6MC41OyIgd2lkdGg9IjIwNiIgeD0iMjEiIHk9IjIyNC45NTMxIi8+PHRleHQgZmlsbD0iIzAwMDAwMCIgZm9udC1mYW1pbHk9InNhbnMtc2VyaWYiIGZvbnQtc2l6ZT0iMTIiIGxlbmd0aEFkanVzdD0ic3BhY2luZyIgdGV4dExlbmd0aD0iMTg2IiB4PSIzMSIgeT0iMjQ2LjI5NjkiPlNldHVqdWkgZGFuIHZhbGlkYXNpIHBlbWJheWFyYW48L3RleHQ+PHBvbHlnb24gZmlsbD0iI0YxRjFGMSIgcG9pbnRzPSIyNDAsMzIwLjY0MDYsMjUyLDMzMi42NDA2LDI0MCwzNDQuNjQwNiwyMjgsMzMyLjY0MDYsMjQwLDMyMC42NDA2IiBzdHlsZT0ic3Ryb2tlOiMxODE4MTg7c3Ryb2tlLXdpZHRoOjAuNTsiLz48bGluZSBzdHlsZT0ic3Ryb2tlOiMwMDAwMDA7c3Ryb2tlLXdpZHRoOjEuNTsiIHgxPSIxNSIgeDI9IjE1IiB5MT0iMTEiIHkyPSIzODYuNjQwNiIvPjxyZWN0IGZpbGw9IiNGMUYxRjEiIGhlaWdodD0iMzIuODQzOCIgcng9IjEyLjUiIHJ5PSIxMi41IiBzdHlsZT0ic3Ryb2tlOiMxODE4MTg7c3Ryb2tlLXdpZHRoOjAuNTsiIHdpZHRoPSIxNjQiIHg9IjMyNiIgeT0iMjc3Ljc5NjkiLz48dGV4dCBmaWxsPSIjMDAwMDAwIiBmb250LWZhbWlseT0ic2Fucy1zZXJpZiIgZm9udC1zaXplPSIxMiIgbGVuZ3RoQWRqdXN0PSJzcGFjaW5nIiB0ZXh0TGVuZ3RoPSIxNDQiIHg9IjMzNiIgeT0iMjk5LjE0MDYiPlVwZGF0ZSBzdGF0dXMgcGVtYmF5YXJhbjwvdGV4dD48cmVjdCBmaWxsPSIjRjFGMUYxIiBoZWlnaHQ9IjMyLjg0MzgiIHJ4PSIxMi41IiByeT0iMTIuNSIgc3R5bGU9InN0cm9rZTojMTgxODE4O3N0cm9rZS13aWR0aDowLjU7IiB3aWR0aD0iMjE4IiB4PSI1MTgiIHk9IjIyNC45NTMxIi8+PHRleHQgZmlsbD0iIzAwMDAwMCIgZm9udC1mYW1pbHk9InNhbnMtc2VyaWYiIGZvbnQtc2l6ZT0iMTIiIGxlbmd0aEFkanVzdD0ic3BhY2luZyIgdGV4dExlbmd0aD0iMTk4IiB4PSI1MjgiIHk9IjI0Ni4yOTY5Ij5Ub2xhayBwZW1iYXlhcmFuIGRhbiBiZXJpIGNhdGF0YW48L3RleHQ+PGVsbGlwc2UgY3g9IjUxMSIgY3k9IjM3NS42NDA2IiBmaWxsPSJub25lIiByeD0iMTEiIHJ5PSIxMSIgc3R5bGU9InN0cm9rZTojMjIyMjIyO3N0cm9rZS13aWR0aDoxOyIvPjxlbGxpcHNlIGN4PSI1MTEiIGN5PSIzNzUuNjQwNiIgZmlsbD0iIzIyMjIyMiIgcng9IjYiIHJ5PSI2IiBzdHlsZT0ic3Ryb2tlOiMyMjIyMjI7c3Ryb2tlLXdpZHRoOjE7Ii8+PGxpbmUgc3R5bGU9InN0cm9rZTojMDAwMDAwO3N0cm9rZS13aWR0aDoxLjU7IiB4MT0iMzIwIiB4Mj0iMzIwIiB5MT0iMTEiIHkyPSIzODYuNjQwNiIvPjxsaW5lIHN0eWxlPSJzdHJva2U6IzAwMDAwMDtzdHJva2Utd2lkdGg6MS41OyIgeDE9Ijc0MCIgeDI9Ijc0MCIgeTE9IjExIiB5Mj0iMzg2LjY0MDYiLz48bGluZSBzdHlsZT0ic3Ryb2tlOiMxODE4MTg7c3Ryb2tlLXdpZHRoOjE7IiB4MT0iMjQwIiB4Mj0iMjQwIiB5MT0iNTUuMjY1NiIgeTI9Ijc1LjI2NTYiLz48cG9seWdvbiBmaWxsPSIjMTgxODE4IiBwb2ludHM9IjIzNiw2NS4yNjU2LDI0MCw3NS4yNjU2LDI0NCw2NS4yNjU2LDI0MCw2OS4yNjU2IiBzdHlsZT0ic3Ryb2tlOiMxODE4MTg7c3Ryb2tlLXdpZHRoOjE7Ii8+PGxpbmUgc3R5bGU9InN0cm9rZTojMTgxODE4O3N0cm9rZS13aWR0aDoxOyIgeDE9IjI0MCIgeDI9IjI0MCIgeTE9IjEwOC4xMDk0IiB5Mj0iMTI4LjEwOTQiLz48cG9seWdvbiBmaWxsPSIjMTgxODE4IiBwb2ludHM9IjIzNiwxMTguMTA5NCwyNDAsMTI4LjEwOTQsMjQ0LDExOC4xMDk0LDI0MCwxMjIuMTA5NCIgc3R5bGU9InN0cm9rZTojMTgxODE4O3N0cm9rZS13aWR0aDoxOyIvPjxsaW5lIHN0eWxlPSJzdHJva2U6IzE4MTgxODtzdHJva2Utd2lkdGg6MTsiIHgxPSIxOTUiIHgyPSIxMjQiIHkxPSIxOTIuOTUzMSIgeTI9IjE5Mi45NTMxIi8+PGxpbmUgc3R5bGU9InN0cm9rZTojMTgxODE4O3N0cm9rZS13aWR0aDoxOyIgeDE9IjEyNCIgeDI9IjEyNCIgeTE9IjE5Mi45NTMxIiB5Mj0iMjI0Ljk1MzEiLz48cG9seWdvbiBmaWxsPSIjMTgxODE4IiBwb2ludHM9IjEyMCwyMTQuOTUzMSwxMjQsMjI0Ljk1MzEsMTI4LDIxNC45NTMxLDEyNCwyMTguOTUzMSIgc3R5bGU9InN0cm9rZTojMTgxODE4O3N0cm9rZS13aWR0aDoxOyIvPjxsaW5lIHN0eWxlPSJzdHJva2U6IzE4MTgxODtzdHJva2Utd2lkdGg6MTsiIHgxPSIyNDAiIHgyPSIyNDAiIHkxPSIxNjAuOTUzMSIgeTI9IjE4MC45NTMxIi8+PHBvbHlnb24gZmlsbD0iIzE4MTgxOCIgcG9pbnRzPSIyMzYsMTcwLjk1MzEsMjQwLDE4MC45NTMxLDI0NCwxNzAuOTUzMSwyNDAsMTc0Ljk1MzEiIHN0eWxlPSJzdHJva2U6IzE4MTgxODtzdHJva2Utd2lkdGg6MTsiLz48bGluZSBzdHlsZT0ic3Ryb2tlOiMxODE4MTg7c3Ryb2tlLXdpZHRoOjE7IiB4MT0iMTI0IiB4Mj0iMTI0IiB5MT0iMjU3Ljc5NjkiIHkyPSIyNjIuNzk2OSIvPjxsaW5lIHN0eWxlPSJzdHJva2U6IzE4MTgxODtzdHJva2Utd2lkdGg6MTsiIHgxPSIxMjQiIHgyPSI0MDgiIHkxPSIyNjIuNzk2OSIgeTI9IjI2Mi43OTY5Ii8+PGxpbmUgc3R5bGU9InN0cm9rZTojMTgxODE4O3N0cm9rZS13aWR0aDoxOyIgeDE9IjQwOCIgeDI9IjQwOCIgeTE9IjI2Mi43OTY5IiB5Mj0iMjc3Ljc5NjkiLz48cG9seWdvbiBmaWxsPSIjMTgxODE4IiBwb2ludHM9IjQwNCwyNjcuNzk2OSw0MDgsMjc3Ljc5NjksNDEyLDI2Ny43OTY5LDQwOCwyNzEuNzk2OSIgc3R5bGU9InN0cm9rZTojMTgxODE4O3N0cm9rZS13aWR0aDoxOyIvPjxsaW5lIHN0eWxlPSJzdHJva2U6IzE4MTgxODtzdHJva2Utd2lkdGg6MTsiIHgxPSIyODUiIHgyPSI2MjciIHkxPSIxOTIuOTUzMSIgeTI9IjE5Mi45NTMxIi8+PGxpbmUgc3R5bGU9InN0cm9rZTojMTgxODE4O3N0cm9rZS13aWR0aDoxOyIgeDE9IjYyNyIgeDI9IjYyNyIgeTE9IjE5Mi45NTMxIiB5Mj0iMjI0Ljk1MzEiLz48cG9seWdvbiBmaWxsPSIjMTgxODE4IiBwb2ludHM9IjYyMywyMTQuOTUzMSw2MjcsMjI0Ljk1MzEsNjMxLDIxNC45NTMxLDYyNywyMTguOTUzMSIgc3R5bGU9InN0cm9rZTojMTgxODE4O3N0cm9rZS13aWR0aDoxOyIvPjxsaW5lIHN0eWxlPSJzdHJva2U6IzE4MTgxODtzdHJva2Utd2lkdGg6MTsiIHgxPSI0MDgiIHgyPSI0MDgiIHkxPSIzMTAuNjQwNiIgeTI9IjMxNC42NDA2Ii8+PGxpbmUgc3R5bGU9InN0cm9rZTojMTgxODE4O3N0cm9rZS13aWR0aDoxOyIgeDE9IjQwOCIgeDI9IjIxMCIgeTE9IjMxNC42NDA2IiB5Mj0iMzE0LjY0MDYiLz48bGluZSBzdHlsZT0ic3Ryb2tlOiMxODE4MTg7c3Ryb2tlLXdpZHRoOjE7IiB4MT0iMjEwIiB4Mj0iMjEwIiB5MT0iMzE0LjY0MDYiIHkyPSIzMzIuNjQwNiIvPjxsaW5lIHN0eWxlPSJzdHJva2U6IzE4MTgxODtzdHJva2Utd2lkdGg6MTsiIHgxPSIyMTAiIHgyPSIyMjgiIHkxPSIzMzIuNjQwNiIgeTI9IjMzMi42NDA2Ii8+PHBvbHlnb24gZmlsbD0iIzE4MTgxOCIgcG9pbnRzPSIyMTgsMzI4LjY0MDYsMjI4LDMzMi42NDA2LDIxOCwzMzYuNjQwNiwyMjIsMzMyLjY0MDYiIHN0eWxlPSJzdHJva2U6IzE4MTgxODtzdHJva2Utd2lkdGg6MTsiLz48bGluZSBzdHlsZT0ic3Ryb2tlOiMxODE4MTg7c3Ryb2tlLXdpZHRoOjE7IiB4MT0iNjI3IiB4Mj0iNjI3IiB5MT0iMjU3Ljc5NjkiIHkyPSIzMzIuNjQwNiIvPjxsaW5lIHN0eWxlPSJzdHJva2U6IzE4MTgxODtzdHJva2Utd2lkdGg6MTsiIHgxPSI2MjciIHgyPSIyNTIiIHkxPSIzMzIuNjQwNiIgeTI9IjMzMi42NDA2Ii8+PHBvbHlnb24gZmlsbD0iIzE4MTgxOCIgcG9pbnRzPSIyNjIsMzI4LjY0MDYsMjUyLDMzMi42NDA2LDI2MiwzMzYuNjQwNiwyNTgsMzMyLjY0MDYiIHN0eWxlPSJzdHJva2U6IzE4MTgxODtzdHJva2Utd2lkdGg6MTsiLz48bGluZSBzdHlsZT0ic3Ryb2tlOiMxODE4MTg7c3Ryb2tlLXdpZHRoOjE7IiB4MT0iMjQwIiB4Mj0iMjQwIiB5MT0iMzQ0LjY0MDYiIHkyPSIzNDkuNjQwNiIvPjxsaW5lIHN0eWxlPSJzdHJva2U6IzE4MTgxODtzdHJva2Utd2lkdGg6MTsiIHgxPSIyNDAiIHgyPSI1MTEiIHkxPSIzNDkuNjQwNiIgeTI9IjM0OS42NDA2Ii8+PGxpbmUgc3R5bGU9InN0cm9rZTojMTgxODE4O3N0cm9rZS13aWR0aDoxOyIgeDE9IjUxMSIgeDI9IjUxMSIgeTE9IjM0OS42NDA2IiB5Mj0iMzY0LjY0MDYiLz48cG9seWdvbiBmaWxsPSIjMTgxODE4IiBwb2ludHM9IjUwNywzNTQuNjQwNiw1MTEsMzY0LjY0MDYsNTE1LDM1NC42NDA2LDUxMSwzNTguNjQwNiIgc3R5bGU9InN0cm9rZTojMTgxODE4O3N0cm9rZS13aWR0aDoxOyIvPjx0ZXh0IGZpbGw9IiMwMDAwMDAiIGZvbnQtZmFtaWx5PSJzYW5zLXNlcmlmIiBmb250LXNpemU9IjE4IiBsZW5ndGhBZGp1c3Q9InNwYWNpbmciIHRleHRMZW5ndGg9IjkwIiB4PSIxMjIuNSIgeT0iMjguMDE1NiI+UGV0dWdhcyBUVTwvdGV4dD48dGV4dCBmaWxsPSIjMDAwMDAwIiBmb250LWZhbWlseT0ic2Fucy1zZXJpZiIgZm9udC1zaXplPSIxOCIgbGVuZ3RoQWRqdXN0PSJzcGFjaW5nIiB0ZXh0TGVuZ3RoPSI1NCIgeD0iNTAzIiB5PSIyOC4wMTU2Ij5TaXN0ZW08L3RleHQ+PCEtLVNSQz1bTE8tbjNlOTA0NEp4LXVlZnVIVVdDQjdMbVdHbWlMbmFhVk5XOERvVVlTYnpsMlNzcWN4VWw5Y0Q1elJtODgtd1lTT2hoTWdBcW9XTTR4azBBd19JWW9LbGZJZEVDZjJZM0xPNTJxeWpsTWFiTG5oZmFIc3R3dWo2d0d1dlQ2Mjd4NFF2ME9lZzVKbzNlMkZ0MHY5amJtVFk5THZ2WWIteU1KZklIZmdZbVV5dTdacVpndkYwUms5dzdpZC00TGozY25SWkpZY3pITG1kVk5maE5adTBdLS0+PC9nPjwvc3ZnPg==;" vertex="1" parent="1">
            <mxGeometry x="250" y="1420" width="761" height="398" as="geometry" />
          </mxCell>
        </UserObject>
        <UserObject label="" plantUmlData="{&#xa;  &quot;data&quot;: &quot;@startuml\n|Petugas TU|\nstart\n:Buka menu Laporan;\n:Pilih rentang waktu dan filter;\n|Sistem|\n:Generate laporan pembayaran;\n:Tampilkan dan beri opsi simpan/cetak;\nstop\n@enduml\n&quot;,&#xa;  &quot;format&quot;: &quot;svg&quot;&#xa;}" id="f9MgHtHTdjxqu1ZTsrYx-21">
          <mxCell style="shape=image;noLabel=1;verticalAlign=top;aspect=fixed;imageAspect=0;image=data:image/svg+xml,PHN2ZyB4bWxucz0iaHR0cDovL3d3dy53My5vcmcvMjAwMC9zdmciIHhtbG5zOnhsaW5rPSJodHRwOi8vd3d3LnczLm9yZy8xOTk5L3hsaW5rIiBjb250ZW50U3R5bGVUeXBlPSJ0ZXh0L2NzcyIgZGF0YS1kaWFncmFtLXR5cGU9IkFDVElWSVRZIiBoZWlnaHQ9IjMyMHB4IiBwcmVzZXJ2ZUFzcGVjdFJhdGlvPSJub25lIiBzdHlsZT0id2lkdGg6NDkycHg7aGVpZ2h0OjMyMHB4O2JhY2tncm91bmQ6I0ZGRkZGRjsiIHZlcnNpb249IjEuMSIgdmlld0JveD0iMCAwIDQ5MiAzMjAiIHdpZHRoPSI0OTJweCIgem9vbUFuZFBhbj0ibWFnbmlmeSI+PGRlZnMvPjxnPjxyZWN0IGZpbGw9Im5vbmUiIGhlaWdodD0iMTkuMjY1NiIgc3R5bGU9InN0cm9rZTpub25lO3N0cm9rZS13aWR0aDoxOyIgd2lkdGg9IjQ1OS41IiB4PSIxNSIgeT0iMTEiLz48ZWxsaXBzZSBjeD0iMTIxIiBjeT0iNDUuMjY1NiIgZmlsbD0iIzIyMjIyMiIgcng9IjEwIiByeT0iMTAiIHN0eWxlPSJzdHJva2U6IzIyMjIyMjtzdHJva2Utd2lkdGg6MTsiLz48cmVjdCBmaWxsPSIjRjFGMUYxIiBoZWlnaHQ9IjMyLjg0MzgiIHJ4PSIxMi41IiByeT0iMTIuNSIgc3R5bGU9InN0cm9rZTojMTgxODE4O3N0cm9rZS13aWR0aDowLjU7IiB3aWR0aD0iMTIyIiB4PSI2MCIgeT0iNzUuMjY1NiIvPjx0ZXh0IGZpbGw9IiMwMDAwMDAiIGZvbnQtZmFtaWx5PSJzYW5zLXNlcmlmIiBmb250LXNpemU9IjEyIiBsZW5ndGhBZGp1c3Q9InNwYWNpbmciIHRleHRMZW5ndGg9IjEwMiIgeD0iNzAiIHk9Ijk2LjYwOTQiPkJ1a2EgbWVudSBMYXBvcmFuPC90ZXh0PjxyZWN0IGZpbGw9IiNGMUYxRjEiIGhlaWdodD0iMzIuODQzOCIgcng9IjEyLjUiIHJ5PSIxMi41IiBzdHlsZT0ic3Ryb2tlOiMxODE4MTg7c3Ryb2tlLXdpZHRoOjAuNTsiIHdpZHRoPSIyMDAiIHg9IjIxIiB5PSIxMjguMTA5NCIvPjx0ZXh0IGZpbGw9IiMwMDAwMDAiIGZvbnQtZmFtaWx5PSJzYW5zLXNlcmlmIiBmb250LXNpemU9IjEyIiBsZW5ndGhBZGp1c3Q9InNwYWNpbmciIHRleHRMZW5ndGg9IjE4MCIgeD0iMzEiIHk9IjE0OS40NTMxIj5QaWxpaCByZW50YW5nIHdha3R1IGRhbiBmaWx0ZXI8L3RleHQ+PGxpbmUgc3R5bGU9InN0cm9rZTojMDAwMDAwO3N0cm9rZS13aWR0aDoxLjU7IiB4MT0iMTUiIHgyPSIxNSIgeTE9IjExIiB5Mj0iMzA4LjY0MDYiLz48cmVjdCBmaWxsPSIjRjFGMUYxIiBoZWlnaHQ9IjMyLjg0MzgiIHJ4PSIxMi41IiByeT0iMTIuNSIgc3R5bGU9InN0cm9rZTojMTgxODE4O3N0cm9rZS13aWR0aDowLjU7IiB3aWR0aD0iMTgyIiB4PSIyNTgiIHk9IjE4MC45NTMxIi8+PHRleHQgZmlsbD0iIzAwMDAwMCIgZm9udC1mYW1pbHk9InNhbnMtc2VyaWYiIGZvbnQtc2l6ZT0iMTIiIGxlbmd0aEFkanVzdD0ic3BhY2luZyIgdGV4dExlbmd0aD0iMTYyIiB4PSIyNjgiIHk9IjIwMi4yOTY5Ij5HZW5lcmF0ZSBsYXBvcmFuIHBlbWJheWFyYW48L3RleHQ+PHJlY3QgZmlsbD0iI0YxRjFGMSIgaGVpZ2h0PSIzMi44NDM4IiByeD0iMTIuNSIgcnk9IjEyLjUiIHN0eWxlPSJzdHJva2U6IzE4MTgxODtzdHJva2Utd2lkdGg6MC41OyIgd2lkdGg9IjIzNiIgeD0iMjMxIiB5PSIyMzMuNzk2OSIvPjx0ZXh0IGZpbGw9IiMwMDAwMDAiIGZvbnQtZmFtaWx5PSJzYW5zLXNlcmlmIiBmb250LXNpemU9IjEyIiBsZW5ndGhBZGp1c3Q9InNwYWNpbmciIHRleHRMZW5ndGg9IjIxNiIgeD0iMjQxIiB5PSIyNTUuMTQwNiI+VGFtcGlsa2FuIGRhbiBiZXJpIG9wc2kgc2ltcGFuL2NldGFrPC90ZXh0PjxlbGxpcHNlIGN4PSIzNDkiIGN5PSIyOTcuNjQwNiIgZmlsbD0ibm9uZSIgcng9IjExIiByeT0iMTEiIHN0eWxlPSJzdHJva2U6IzIyMjIyMjtzdHJva2Utd2lkdGg6MTsiLz48ZWxsaXBzZSBjeD0iMzQ5IiBjeT0iMjk3LjY0MDYiIGZpbGw9IiMyMjIyMjIiIHJ4PSI2IiByeT0iNiIgc3R5bGU9InN0cm9rZTojMjIyMjIyO3N0cm9rZS13aWR0aDoxOyIvPjxsaW5lIHN0eWxlPSJzdHJva2U6IzAwMDAwMDtzdHJva2Utd2lkdGg6MS41OyIgeDE9IjIyNSIgeDI9IjIyNSIgeTE9IjExIiB5Mj0iMzA4LjY0MDYiLz48bGluZSBzdHlsZT0ic3Ryb2tlOiMwMDAwMDA7c3Ryb2tlLXdpZHRoOjEuNTsiIHgxPSI0NzEiIHgyPSI0NzEiIHkxPSIxMSIgeTI9IjMwOC42NDA2Ii8+PGxpbmUgc3R5bGU9InN0cm9rZTojMTgxODE4O3N0cm9rZS13aWR0aDoxOyIgeDE9IjEyMSIgeDI9IjEyMSIgeTE9IjU1LjI2NTYiIHkyPSI3NS4yNjU2Ii8+PHBvbHlnb24gZmlsbD0iIzE4MTgxOCIgcG9pbnRzPSIxMTcsNjUuMjY1NiwxMjEsNzUuMjY1NiwxMjUsNjUuMjY1NiwxMjEsNjkuMjY1NiIgc3R5bGU9InN0cm9rZTojMTgxODE4O3N0cm9rZS13aWR0aDoxOyIvPjxsaW5lIHN0eWxlPSJzdHJva2U6IzE4MTgxODtzdHJva2Utd2lkdGg6MTsiIHgxPSIxMjEiIHgyPSIxMjEiIHkxPSIxMDguMTA5NCIgeTI9IjEyOC4xMDk0Ii8+PHBvbHlnb24gZmlsbD0iIzE4MTgxOCIgcG9pbnRzPSIxMTcsMTE4LjEwOTQsMTIxLDEyOC4xMDk0LDEyNSwxMTguMTA5NCwxMjEsMTIyLjEwOTQiIHN0eWxlPSJzdHJva2U6IzE4MTgxODtzdHJva2Utd2lkdGg6MTsiLz48bGluZSBzdHlsZT0ic3Ryb2tlOiMxODE4MTg7c3Ryb2tlLXdpZHRoOjE7IiB4MT0iMzQ5IiB4Mj0iMzQ5IiB5MT0iMjEzLjc5NjkiIHkyPSIyMzMuNzk2OSIvPjxwb2x5Z29uIGZpbGw9IiMxODE4MTgiIHBvaW50cz0iMzQ1LDIyMy43OTY5LDM0OSwyMzMuNzk2OSwzNTMsMjIzLjc5NjksMzQ5LDIyNy43OTY5IiBzdHlsZT0ic3Ryb2tlOiMxODE4MTg7c3Ryb2tlLXdpZHRoOjE7Ii8+PGxpbmUgc3R5bGU9InN0cm9rZTojMTgxODE4O3N0cm9rZS13aWR0aDoxOyIgeDE9IjM0OSIgeDI9IjM0OSIgeTE9IjI2Ni42NDA2IiB5Mj0iMjg2LjY0MDYiLz48cG9seWdvbiBmaWxsPSIjMTgxODE4IiBwb2ludHM9IjM0NSwyNzYuNjQwNiwzNDksMjg2LjY0MDYsMzUzLDI3Ni42NDA2LDM0OSwyODAuNjQwNiIgc3R5bGU9InN0cm9rZTojMTgxODE4O3N0cm9rZS13aWR0aDoxOyIvPjxsaW5lIHN0eWxlPSJzdHJva2U6IzE4MTgxODtzdHJva2Utd2lkdGg6MTsiIHgxPSIxMjEiIHgyPSIxMjEiIHkxPSIxNjAuOTUzMSIgeTI9IjE2NS45NTMxIi8+PGxpbmUgc3R5bGU9InN0cm9rZTojMTgxODE4O3N0cm9rZS13aWR0aDoxOyIgeDE9IjEyMSIgeDI9IjM0OSIgeTE9IjE2NS45NTMxIiB5Mj0iMTY1Ljk1MzEiLz48bGluZSBzdHlsZT0ic3Ryb2tlOiMxODE4MTg7c3Ryb2tlLXdpZHRoOjE7IiB4MT0iMzQ5IiB4Mj0iMzQ5IiB5MT0iMTY1Ljk1MzEiIHkyPSIxODAuOTUzMSIvPjxwb2x5Z29uIGZpbGw9IiMxODE4MTgiIHBvaW50cz0iMzQ1LDE3MC45NTMxLDM0OSwxODAuOTUzMSwzNTMsMTcwLjk1MzEsMzQ5LDE3NC45NTMxIiBzdHlsZT0ic3Ryb2tlOiMxODE4MTg7c3Ryb2tlLXdpZHRoOjE7Ii8+PHRleHQgZmlsbD0iIzAwMDAwMCIgZm9udC1mYW1pbHk9InNhbnMtc2VyaWYiIGZvbnQtc2l6ZT0iMTgiIGxlbmd0aEFkanVzdD0ic3BhY2luZyIgdGV4dExlbmd0aD0iOTAiIHg9Ijc1IiB5PSIyOC4wMTU2Ij5QZXR1Z2FzIFRVPC90ZXh0Pjx0ZXh0IGZpbGw9IiMwMDAwMDAiIGZvbnQtZmFtaWx5PSJzYW5zLXNlcmlmIiBmb250LXNpemU9IjE4IiBsZW5ndGhBZGp1c3Q9InNwYWNpbmciIHRleHRMZW5ndGg9IjU0IiB4PSIzMjEiIHk9IjI4LjAxNTYiPlNpc3RlbTwvdGV4dD48IS0tU1JDPVs5T3VuM2k4bTQwSHhsLTktRzZ6dEQzR0thR1dGc0MwSEpoT2xiZHFNR2xCWjJLZXhxZW5jSjZuekhRRnZGYm1wTDdGLXQyQ2VpdFF3ZWNtTDZmb1Y5Q2NSQWdqMUxfZVdNZ1NkYjV3SVo2am11b1JERTBfZEJ3blNPS3BmYUFibU5sMzVxUGNIWXdJdXV4LXpTMU5RSVhEZ2FXbHF6NjEzM0ZsOExkdTBdLS0+PC9nPjwvc3ZnPg==;" vertex="1" parent="1">
            <mxGeometry x="1020" y="1450" width="492" height="320" as="geometry" />
          </mxCell>
        </UserObject>
        <UserObject label="" plantUmlData="{&#xa;  &quot;data&quot;: &quot;@startuml\n|Petugas TU|\nstart\n:Buka menu Data Siswa;\n:Pilih Tambah/Edit/Hapus;\n|Sistem|\n:Simpan perubahan ke database;\n:Tampilkan notifikasi berhasil/gagal;\nstop\n@enduml\n&quot;,&#xa;  &quot;format&quot;: &quot;svg&quot;&#xa;}" id="f9MgHtHTdjxqu1ZTsrYx-22">
          <mxCell style="shape=image;noLabel=1;verticalAlign=top;aspect=fixed;imageAspect=0;image=data:image/svg+xml,PHN2ZyB4bWxucz0iaHR0cDovL3d3dy53My5vcmcvMjAwMC9zdmciIHhtbG5zOnhsaW5rPSJodHRwOi8vd3d3LnczLm9yZy8xOTk5L3hsaW5rIiBjb250ZW50U3R5bGVUeXBlPSJ0ZXh0L2NzcyIgZGF0YS1kaWFncmFtLXR5cGU9IkFDVElWSVRZIiBoZWlnaHQ9IjMyMHB4IiBwcmVzZXJ2ZUFzcGVjdFJhdGlvPSJub25lIiBzdHlsZT0id2lkdGg6NDQ0cHg7aGVpZ2h0OjMyMHB4O2JhY2tncm91bmQ6I0ZGRkZGRjsiIHZlcnNpb249IjEuMSIgdmlld0JveD0iMCAwIDQ0NCAzMjAiIHdpZHRoPSI0NDRweCIgem9vbUFuZFBhbj0ibWFnbmlmeSI+PGRlZnMvPjxnPjxyZWN0IGZpbGw9Im5vbmUiIGhlaWdodD0iMTkuMjY1NiIgc3R5bGU9InN0cm9rZTpub25lO3N0cm9rZS13aWR0aDoxOyIgd2lkdGg9IjQxMS41IiB4PSIxNSIgeT0iMTEiLz48ZWxsaXBzZSBjeD0iMTAwIiBjeT0iNDUuMjY1NiIgZmlsbD0iIzIyMjIyMiIgcng9IjEwIiByeT0iMTAiIHN0eWxlPSJzdHJva2U6IzIyMjIyMjtzdHJva2Utd2lkdGg6MTsiLz48cmVjdCBmaWxsPSIjRjFGMUYxIiBoZWlnaHQ9IjMyLjg0MzgiIHJ4PSIxMi41IiByeT0iMTIuNSIgc3R5bGU9InN0cm9rZTojMTgxODE4O3N0cm9rZS13aWR0aDowLjU7IiB3aWR0aD0iMTQwIiB4PSIzMCIgeT0iNzUuMjY1NiIvPjx0ZXh0IGZpbGw9IiMwMDAwMDAiIGZvbnQtZmFtaWx5PSJzYW5zLXNlcmlmIiBmb250LXNpemU9IjEyIiBsZW5ndGhBZGp1c3Q9InNwYWNpbmciIHRleHRMZW5ndGg9IjEyMCIgeD0iNDAiIHk9Ijk2LjYwOTQiPkJ1a2EgbWVudSBEYXRhIFNpc3dhPC90ZXh0PjxyZWN0IGZpbGw9IiNGMUYxRjEiIGhlaWdodD0iMzIuODQzOCIgcng9IjEyLjUiIHJ5PSIxMi41IiBzdHlsZT0ic3Ryb2tlOiMxODE4MTg7c3Ryb2tlLXdpZHRoOjAuNTsiIHdpZHRoPSIxNTgiIHg9IjIxIiB5PSIxMjguMTA5NCIvPjx0ZXh0IGZpbGw9IiMwMDAwMDAiIGZvbnQtZmFtaWx5PSJzYW5zLXNlcmlmIiBmb250LXNpemU9IjEyIiBsZW5ndGhBZGp1c3Q9InNwYWNpbmciIHRleHRMZW5ndGg9IjEzOCIgeD0iMzEiIHk9IjE0OS40NTMxIj5QaWxpaCBUYW1iYWgvRWRpdC9IYXB1czwvdGV4dD48bGluZSBzdHlsZT0ic3Ryb2tlOiMwMDAwMDA7c3Ryb2tlLXdpZHRoOjEuNTsiIHgxPSIxNSIgeDI9IjE1IiB5MT0iMTEiIHkyPSIzMDguNjQwNiIvPjxyZWN0IGZpbGw9IiNGMUYxRjEiIGhlaWdodD0iMzIuODQzOCIgcng9IjEyLjUiIHJ5PSIxMi41IiBzdHlsZT0ic3Ryb2tlOiMxODE4MTg7c3Ryb2tlLXdpZHRoOjAuNTsiIHdpZHRoPSIxODgiIHg9IjIxMCIgeT0iMTgwLjk1MzEiLz48dGV4dCBmaWxsPSIjMDAwMDAwIiBmb250LWZhbWlseT0ic2Fucy1zZXJpZiIgZm9udC1zaXplPSIxMiIgbGVuZ3RoQWRqdXN0PSJzcGFjaW5nIiB0ZXh0TGVuZ3RoPSIxNjgiIHg9IjIyMCIgeT0iMjAyLjI5NjkiPlNpbXBhbiBwZXJ1YmFoYW4ga2UgZGF0YWJhc2U8L3RleHQ+PHJlY3QgZmlsbD0iI0YxRjFGMSIgaGVpZ2h0PSIzMi44NDM4IiByeD0iMTIuNSIgcnk9IjEyLjUiIHN0eWxlPSJzdHJva2U6IzE4MTgxODtzdHJva2Utd2lkdGg6MC41OyIgd2lkdGg9IjIzMCIgeD0iMTg5IiB5PSIyMzMuNzk2OSIvPjx0ZXh0IGZpbGw9IiMwMDAwMDAiIGZvbnQtZmFtaWx5PSJzYW5zLXNlcmlmIiBmb250LXNpemU9IjEyIiBsZW5ndGhBZGp1c3Q9InNwYWNpbmciIHRleHRMZW5ndGg9IjIxMCIgeD0iMTk5IiB5PSIyNTUuMTQwNiI+VGFtcGlsa2FuIG5vdGlmaWthc2kgYmVyaGFzaWwvZ2FnYWw8L3RleHQ+PGVsbGlwc2UgY3g9IjMwNCIgY3k9IjI5Ny42NDA2IiBmaWxsPSJub25lIiByeD0iMTEiIHJ5PSIxMSIgc3R5bGU9InN0cm9rZTojMjIyMjIyO3N0cm9rZS13aWR0aDoxOyIvPjxlbGxpcHNlIGN4PSIzMDQiIGN5PSIyOTcuNjQwNiIgZmlsbD0iIzIyMjIyMiIgcng9IjYiIHJ5PSI2IiBzdHlsZT0ic3Ryb2tlOiMyMjIyMjI7c3Ryb2tlLXdpZHRoOjE7Ii8+PGxpbmUgc3R5bGU9InN0cm9rZTojMDAwMDAwO3N0cm9rZS13aWR0aDoxLjU7IiB4MT0iMTgzIiB4Mj0iMTgzIiB5MT0iMTEiIHkyPSIzMDguNjQwNiIvPjxsaW5lIHN0eWxlPSJzdHJva2U6IzAwMDAwMDtzdHJva2Utd2lkdGg6MS41OyIgeDE9IjQyMyIgeDI9IjQyMyIgeTE9IjExIiB5Mj0iMzA4LjY0MDYiLz48bGluZSBzdHlsZT0ic3Ryb2tlOiMxODE4MTg7c3Ryb2tlLXdpZHRoOjE7IiB4MT0iMTAwIiB4Mj0iMTAwIiB5MT0iNTUuMjY1NiIgeTI9Ijc1LjI2NTYiLz48cG9seWdvbiBmaWxsPSIjMTgxODE4IiBwb2ludHM9Ijk2LDY1LjI2NTYsMTAwLDc1LjI2NTYsMTA0LDY1LjI2NTYsMTAwLDY5LjI2NTYiIHN0eWxlPSJzdHJva2U6IzE4MTgxODtzdHJva2Utd2lkdGg6MTsiLz48bGluZSBzdHlsZT0ic3Ryb2tlOiMxODE4MTg7c3Ryb2tlLXdpZHRoOjE7IiB4MT0iMTAwIiB4Mj0iMTAwIiB5MT0iMTA4LjEwOTQiIHkyPSIxMjguMTA5NCIvPjxwb2x5Z29uIGZpbGw9IiMxODE4MTgiIHBvaW50cz0iOTYsMTE4LjEwOTQsMTAwLDEyOC4xMDk0LDEwNCwxMTguMTA5NCwxMDAsMTIyLjEwOTQiIHN0eWxlPSJzdHJva2U6IzE4MTgxODtzdHJva2Utd2lkdGg6MTsiLz48bGluZSBzdHlsZT0ic3Ryb2tlOiMxODE4MTg7c3Ryb2tlLXdpZHRoOjE7IiB4MT0iMzA0IiB4Mj0iMzA0IiB5MT0iMjEzLjc5NjkiIHkyPSIyMzMuNzk2OSIvPjxwb2x5Z29uIGZpbGw9IiMxODE4MTgiIHBvaW50cz0iMzAwLDIyMy43OTY5LDMwNCwyMzMuNzk2OSwzMDgsMjIzLjc5NjksMzA0LDIyNy43OTY5IiBzdHlsZT0ic3Ryb2tlOiMxODE4MTg7c3Ryb2tlLXdpZHRoOjE7Ii8+PGxpbmUgc3R5bGU9InN0cm9rZTojMTgxODE4O3N0cm9rZS13aWR0aDoxOyIgeDE9IjMwNCIgeDI9IjMwNCIgeTE9IjI2Ni42NDA2IiB5Mj0iMjg2LjY0MDYiLz48cG9seWdvbiBmaWxsPSIjMTgxODE4IiBwb2ludHM9IjMwMCwyNzYuNjQwNiwzMDQsMjg2LjY0MDYsMzA4LDI3Ni42NDA2LDMwNCwyODAuNjQwNiIgc3R5bGU9InN0cm9rZTojMTgxODE4O3N0cm9rZS13aWR0aDoxOyIvPjxsaW5lIHN0eWxlPSJzdHJva2U6IzE4MTgxODtzdHJva2Utd2lkdGg6MTsiIHgxPSIxMDAiIHgyPSIxMDAiIHkxPSIxNjAuOTUzMSIgeTI9IjE2NS45NTMxIi8+PGxpbmUgc3R5bGU9InN0cm9rZTojMTgxODE4O3N0cm9rZS13aWR0aDoxOyIgeDE9IjEwMCIgeDI9IjMwNCIgeTE9IjE2NS45NTMxIiB5Mj0iMTY1Ljk1MzEiLz48bGluZSBzdHlsZT0ic3Ryb2tlOiMxODE4MTg7c3Ryb2tlLXdpZHRoOjE7IiB4MT0iMzA0IiB4Mj0iMzA0IiB5MT0iMTY1Ljk1MzEiIHkyPSIxODAuOTUzMSIvPjxwb2x5Z29uIGZpbGw9IiMxODE4MTgiIHBvaW50cz0iMzAwLDE3MC45NTMxLDMwNCwxODAuOTUzMSwzMDgsMTcwLjk1MzEsMzA0LDE3NC45NTMxIiBzdHlsZT0ic3Ryb2tlOiMxODE4MTg7c3Ryb2tlLXdpZHRoOjE7Ii8+PHRleHQgZmlsbD0iIzAwMDAwMCIgZm9udC1mYW1pbHk9InNhbnMtc2VyaWYiIGZvbnQtc2l6ZT0iMTgiIGxlbmd0aEFkanVzdD0ic3BhY2luZyIgdGV4dExlbmd0aD0iOTAiIHg9IjU0IiB5PSIyOC4wMTU2Ij5QZXR1Z2FzIFRVPC90ZXh0Pjx0ZXh0IGZpbGw9IiMwMDAwMDAiIGZvbnQtZmFtaWx5PSJzYW5zLXNlcmlmIiBmb250LXNpemU9IjE4IiBsZW5ndGhBZGp1c3Q9InNwYWNpbmciIHRleHRMZW5ndGg9IjU0IiB4PSIyNzYiIHk9IjI4LjAxNTYiPlNpc3RlbTwvdGV4dD48IS0tU1JDPVszT3ZCMmlDbTQ0RnRGaU5TODdqeExyaGVDZjNxMDBnUDllQ19DVjZPUmRwdXBhZjJGMGNEY1JLVlFCSC1YY2tBTXZyX3owWkFOM2V6ZVExNXNXXzEtTGNJZEJHWVJwWWRyb3V3bEw1eDJzdU9lUG83eXVsYVlhQUx4c3dHa1NZcXN5UTZuaFBXdEllZk1idWtiUXo0REE2RHh6Q3FKR1NFZjYwZGhsZTddLS0+PC9nPjwvc3ZnPg==;" vertex="1" parent="1">
            <mxGeometry x="159.5" y="1780" width="444" height="320" as="geometry" />
          </mxCell>
        </UserObject>
      </root>
    </mxGraphModel>
  </diagram>
</mxfile>
